{"glyphs":{"0":{"ha":850,"x_min":76,"x_max":774,"o":"m 774 407 q 728 190 774 285 q 604 40 683 94 q 425 -14 525 -14 q 247 40 325 -14 q 122 190 168 94 q 76 407 76 285 q 122 624 76 529 q 247 774 168 719 q 425 829 325 829 q 604 774 525 829 q 728 624 683 719 q 774 407 774 529 m 678 407 q 646 581 678 506 q 557 698 614 656 q 425 740 500 740 q 293 698 350 740 q 203 581 236 656 q 171 407 171 506 q 203 233 171 308 q 293 117 236 158 q 425 75 350 75 q 557 117 500 75 q 646 234 614 160 q 678 407 678 308 z "},"1":{"ha":594,"x_min":64,"x_max":564,"o":"m 564 86 l 564 0 l 93 0 l 93 86 l 290 86 l 290 681 q 253 644 279 664 q 192 608 226 625 q 125 581 158 592 q 64 569 92 569 l 64 661 q 133 679 96 661 q 206 721 171 697 q 264 765 240 744 q 290 793 288 786 l 388 793 l 388 86 l 564 86 z "},"2":{"ha":724,"x_min":61,"x_max":657,"o":"m 61 0 q 69 95 61 47 q 101 190 78 143 q 171 281 125 238 q 292 364 217 325 q 375 405 332 385 q 456 449 418 425 q 517 505 494 474 q 540 579 540 536 q 520 647 540 614 q 459 701 500 681 q 357 722 418 722 q 276 710 313 722 q 213 678 240 697 q 165 641 185 660 q 133 610 146 622 l 74 675 q 105 705 81 683 q 167 750 129 726 q 258 790 206 774 q 372 807 310 807 q 517 777 457 807 q 610 697 578 747 q 642 589 642 647 q 617 491 642 532 q 555 420 593 450 q 476 369 517 390 q 401 332 435 347 q 292 271 336 301 q 221 209 247 240 q 180 148 194 178 q 160 86 165 118 l 657 86 l 657 0 l 61 0 z "},"3":{"ha":742,"x_min":53,"x_max":678,"o":"m 476 328 q 583 283 539 318 q 653 196 628 249 q 678 76 678 143 q 638 -71 678 -7 q 525 -169 597 -135 q 357 -204 453 -204 q 172 -162 251 -204 q 53 -44 93 -119 l 118 15 q 208 -81 149 -44 q 357 -118 268 -118 q 520 -67 460 -118 q 581 78 581 -17 q 517 228 581 172 q 338 285 454 285 l 303 285 l 303 365 l 340 365 q 504 415 447 365 q 561 543 561 465 q 535 638 561 600 q 463 694 508 675 q 360 714 418 714 q 220 678 281 714 q 129 581 160 643 l 68 639 q 136 724 92 688 q 240 780 181 760 q 368 800 300 800 q 519 769 454 800 q 622 682 585 738 q 660 551 660 626 q 638 449 660 496 q 574 369 615 401 q 476 328 533 338 z "},"4":{"ha":758,"x_min":32,"x_max":711,"o":"m 494 -176 l 494 71 l 32 71 l 32 154 l 525 793 l 589 793 l 589 157 l 711 157 l 711 71 l 589 71 l 589 -176 l 494 -176 m 132 157 l 504 157 l 504 644 l 132 157 z "},"5":{"ha":757,"x_min":49,"x_max":707,"o":"m 364 -207 q 175 -155 260 -207 q 49 -18 90 -103 l 111 29 q 217 -81 150 -39 q 365 -122 285 -122 q 490 -92 435 -122 q 577 -7 544 -61 q 610 118 610 47 q 578 238 610 186 q 494 319 547 290 q 374 349 440 349 q 251 320 310 349 q 157 238 193 292 l 69 238 l 179 793 l 656 793 l 656 706 l 250 706 l 182 351 q 271 412 218 390 q 385 433 324 433 q 548 393 475 433 q 664 282 621 353 q 707 119 707 211 q 660 -51 707 22 q 536 -166 614 -125 q 364 -207 458 -207 z "},"6":{"ha":838,"x_min":72,"x_max":776,"o":"m 776 325 q 731 494 776 418 q 609 614 686 569 q 438 658 532 658 q 320 636 375 658 q 225 574 265 614 q 164 479 185 533 q 198 711 164 615 q 293 858 232 807 q 436 910 354 910 q 577 867 514 910 q 669 754 640 825 l 731 810 q 613 944 690 894 q 436 993 535 993 q 246 928 328 993 q 118 731 164 863 q 72 399 72 600 q 118 178 72 271 q 244 35 164 85 q 426 -14 324 -14 q 604 32 525 -14 q 730 155 683 78 q 776 325 776 232 m 429 69 q 300 104 358 69 q 206 197 242 139 q 171 325 171 256 q 206 453 171 396 q 299 546 240 511 q 429 581 358 581 q 557 546 499 581 q 651 453 615 511 q 686 325 686 394 q 651 197 686 256 q 557 104 615 139 q 429 69 499 69 z "},"7":{"ha":743,"x_min":47,"x_max":729,"o":"m 579 722 l 47 722 l 47 810 l 729 810 l 231 -176 l 122 -176 l 579 722 z "},"8":{"ha":824,"x_min":69,"x_max":754,"o":"m 754 274 q 706 124 754 188 q 580 24 658 60 q 408 -11 501 -11 q 233 28 310 -11 q 113 133 157 68 q 69 279 69 199 q 99 392 69 342 q 174 478 129 443 q 267 528 219 513 q 186 576 224 546 q 126 646 149 606 q 104 735 104 686 q 131 842 104 796 q 203 922 158 889 q 302 970 247 954 q 413 986 357 986 q 522 970 467 986 q 622 922 576 954 q 694 844 667 890 q 721 736 721 797 q 698 647 721 688 q 638 576 675 606 q 556 528 600 546 q 655 473 610 510 q 727 386 700 436 q 754 274 754 336 m 658 281 q 637 369 658 331 q 578 433 615 407 q 498 474 542 460 q 410 488 454 488 q 294 462 350 488 q 202 390 238 436 q 167 279 167 343 q 188 193 167 231 q 246 128 210 156 q 326 88 282 101 q 414 74 369 74 q 530 99 474 74 q 622 172 586 125 q 658 281 658 219 m 199 731 q 231 640 199 678 q 314 582 264 601 q 411 563 364 563 q 510 583 461 563 q 592 641 560 603 q 625 733 625 679 q 594 824 625 786 q 515 881 564 861 q 410 900 465 900 q 308 880 357 900 q 228 822 258 860 q 199 731 199 783 z "},"9":{"ha":814,"x_min":50,"x_max":754,"o":"m 50 454 q 95 285 50 361 q 218 165 140 210 q 389 121 296 121 q 507 143 453 121 q 603 206 561 165 q 664 300 644 247 q 628 68 663 164 q 534 -79 594 -28 q 390 -131 474 -131 q 250 -87 314 -131 q 157 25 186 -44 l 96 -31 q 215 -165 136 -115 q 390 -214 293 -214 q 581 -149 499 -214 q 708 48 663 -83 q 754 381 754 179 q 709 602 754 510 q 584 744 664 694 q 400 793 504 793 q 223 747 303 793 q 97 625 143 701 q 50 454 50 549 m 399 710 q 527 675 468 710 q 621 582 586 640 q 656 454 656 524 q 621 326 656 385 q 528 233 586 268 q 399 199 469 199 q 270 233 329 199 q 176 326 211 268 q 140 454 140 385 q 176 583 140 525 q 269 675 211 640 q 399 710 328 710 z "},"A":{"ha":939,"x_min":17,"x_max":921,"o":"m 429 986 l 511 986 l 921 0 l 818 0 l 690 308 l 247 308 l 121 0 l 17 0 l 429 986 m 668 385 l 469 872 l 268 385 l 668 385 z "},"Á":{"ha":939,"x_min":17,"x_max":921,"o":"m 429 986 l 511 986 l 921 0 l 818 0 l 690 308 l 247 308 l 121 0 l 17 0 l 429 986 m 668 385 l 469 872 l 268 385 l 668 385 m 503 1121 l 440 1144 l 522 1274 l 622 1274 l 503 1121 z "},"Ă":{"ha":939,"x_min":17,"x_max":921,"o":"m 429 986 l 511 986 l 921 0 l 818 0 l 690 308 l 247 308 l 121 0 l 17 0 l 429 986 m 668 385 l 469 872 l 268 385 l 668 385 m 469 1182 q 522 1208 499 1182 q 549 1274 544 1235 l 606 1274 q 566 1174 606 1215 q 469 1133 526 1133 q 373 1174 413 1133 q 333 1274 333 1215 l 392 1274 q 415 1210 392 1238 q 469 1182 439 1182 z "},"Ắ":{"ha":939,"x_min":17,"x_max":921,"o":"m 429 986 l 511 986 l 921 0 l 818 0 l 690 308 l 247 308 l 121 0 l 17 0 l 429 986 m 668 385 l 469 872 l 268 385 l 668 385 z "},"Ặ":{"ha":939,"x_min":17,"x_max":921,"o":"m 429 986 l 511 986 l 921 0 l 818 0 l 690 308 l 247 308 l 121 0 l 17 0 l 429 986 m 668 385 l 469 872 l 268 385 l 668 385 m 440 -235 l 440 -100 l 526 -100 l 526 -235 l 440 -235 m 469 1182 q 522 1208 499 1182 q 549 1274 544 1235 l 606 1274 q 566 1174 606 1215 q 469 1133 526 1133 q 373 1174 413 1133 q 333 1274 333 1215 l 392 1274 q 415 1210 392 1238 q 469 1182 439 1182 z "},"Ằ":{"ha":939,"x_min":17,"x_max":921,"o":"m 429 986 l 511 986 l 921 0 l 818 0 l 690 308 l 247 308 l 121 0 l 17 0 l 429 986 m 668 385 l 469 872 l 268 385 l 668 385 z "},"Ẳ":{"ha":939,"x_min":17,"x_max":921,"o":"m 429 986 l 511 986 l 921 0 l 818 0 l 690 308 l 247 308 l 121 0 l 17 0 l 429 986 m 668 385 l 469 872 l 268 385 l 668 385 z "},"Ẵ":{"ha":939,"x_min":17,"x_max":921,"o":"m 429 986 l 511 986 l 921 0 l 818 0 l 690 308 l 247 308 l 121 0 l 17 0 l 429 986 m 668 385 l 469 872 l 268 385 l 668 385 z "},"Â":{"ha":939,"x_min":17,"x_max":921,"o":"m 429 986 l 511 986 l 921 0 l 818 0 l 690 308 l 247 308 l 121 0 l 17 0 l 429 986 m 668 385 l 469 872 l 268 385 l 668 385 m 299 1156 l 435 1274 l 504 1274 l 642 1156 l 588 1126 l 469 1214 l 351 1126 l 299 1156 z "},"Ấ":{"ha":939,"x_min":17,"x_max":921,"o":"m 429 986 l 511 986 l 921 0 l 818 0 l 690 308 l 247 308 l 121 0 l 17 0 l 429 986 m 668 385 l 469 872 l 268 385 l 668 385 z "},"Ậ":{"ha":939,"x_min":17,"x_max":921,"o":"m 429 986 l 511 986 l 921 0 l 818 0 l 690 308 l 247 308 l 121 0 l 17 0 l 429 986 m 668 385 l 469 872 l 268 385 l 668 385 m 440 -235 l 440 -100 l 526 -100 l 526 -235 l 440 -235 m 299 1156 l 435 1274 l 504 1274 l 642 1156 l 588 1126 l 469 1214 l 351 1126 l 299 1156 z "},"Ầ":{"ha":939,"x_min":17,"x_max":921,"o":"m 429 986 l 511 986 l 921 0 l 818 0 l 690 308 l 247 308 l 121 0 l 17 0 l 429 986 m 668 385 l 469 872 l 268 385 l 668 385 z "},"Ẩ":{"ha":939,"x_min":17,"x_max":921,"o":"m 429 986 l 511 986 l 921 0 l 818 0 l 690 308 l 247 308 l 121 0 l 17 0 l 429 986 m 668 385 l 469 872 l 268 385 l 668 385 z "},"Ẫ":{"ha":939,"x_min":17,"x_max":921,"o":"m 429 986 l 511 986 l 921 0 l 818 0 l 690 308 l 247 308 l 121 0 l 17 0 l 429 986 m 668 385 l 469 872 l 268 385 l 668 385 z "},"Ȁ":{"ha":939,"x_min":17,"x_max":921,"o":"m 429 986 l 511 986 l 921 0 l 818 0 l 690 308 l 247 308 l 121 0 l 17 0 l 429 986 m 668 385 l 469 872 l 268 385 l 668 385 m 432 1274 l 519 1274 l 599 1144 l 547 1121 l 432 1274 m 257 1274 l 346 1274 l 425 1144 l 374 1121 l 257 1274 z "},"Ä":{"ha":939,"x_min":17,"x_max":921,"o":"m 429 986 l 511 986 l 921 0 l 818 0 l 690 308 l 247 308 l 121 0 l 17 0 l 429 986 m 668 385 l 469 872 l 268 385 l 668 385 m 326 1139 l 326 1269 l 407 1269 l 407 1139 l 326 1139 m 533 1139 l 533 1269 l 614 1269 l 614 1139 l 533 1139 z "},"Ạ":{"ha":939,"x_min":17,"x_max":921,"o":"m 429 986 l 511 986 l 921 0 l 818 0 l 690 308 l 247 308 l 121 0 l 17 0 l 429 986 m 668 385 l 469 872 l 268 385 l 668 385 m 440 -235 l 440 -100 l 526 -100 l 526 -235 l 440 -235 z "},"À":{"ha":939,"x_min":17,"x_max":921,"o":"m 429 986 l 511 986 l 921 0 l 818 0 l 690 308 l 247 308 l 121 0 l 17 0 l 429 986 m 668 385 l 469 872 l 268 385 l 668 385 m 340 1274 l 439 1274 l 522 1144 l 461 1121 l 340 1274 z "},"Ả":{"ha":939,"x_min":17,"x_max":921,"o":"m 429 986 l 511 986 l 921 0 l 818 0 l 690 308 l 247 308 l 121 0 l 17 0 l 429 986 m 668 385 l 469 872 l 268 385 l 668 385 m 406 1221 l 368 1258 q 419 1293 393 1281 q 478 1306 446 1306 q 547 1279 524 1306 q 571 1218 571 1253 q 553 1163 571 1190 q 500 1104 536 1136 l 471 1138 q 503 1176 494 1160 q 513 1210 513 1193 q 501 1240 513 1228 q 469 1253 490 1253 q 438 1246 451 1253 q 406 1221 425 1239 z "},"Ȃ":{"ha":939,"x_min":17,"x_max":921,"o":"m 429 986 l 511 986 l 921 0 l 818 0 l 690 308 l 247 308 l 121 0 l 17 0 l 429 986 m 668 385 l 469 872 l 268 385 l 668 385 m 469 1225 q 415 1197 439 1225 q 392 1133 392 1169 l 333 1133 q 373 1233 333 1192 q 469 1274 413 1274 q 566 1233 526 1274 q 606 1133 606 1192 l 549 1133 q 522 1199 544 1172 q 469 1225 499 1225 z "},"Ā":{"ha":939,"x_min":17,"x_max":921,"o":"m 429 986 l 511 986 l 921 0 l 818 0 l 690 308 l 247 308 l 121 0 l 17 0 l 429 986 m 668 385 l 469 872 l 268 385 l 668 385 m 271 1181 l 271 1246 l 672 1246 l 672 1181 l 271 1181 z "},"Ą":{"ha":939,"x_min":17,"x_max":921,"o":"m 429 986 l 511 986 l 921 0 l 818 0 l 690 308 l 247 308 l 121 0 l 17 0 l 429 986 m 668 385 l 469 872 l 268 385 l 668 385 m 747 -146 q 778 -62 747 -103 q 872 22 810 -21 l 899 22 l 922 0 q 840 -74 865 -43 q 814 -133 814 -106 q 841 -172 814 -160 q 919 -190 868 -185 l 896 -253 q 803 -230 836 -246 q 759 -192 771 -214 q 747 -146 747 -169 z "},"Å":{"ha":939,"x_min":17,"x_max":921,"o":"m 429 986 l 511 986 l 921 0 l 818 0 l 690 308 l 247 308 l 121 0 l 17 0 l 429 986 m 668 385 l 469 872 l 268 385 l 668 385 m 346 1190 q 381 1274 346 1242 q 469 1307 417 1307 q 558 1274 524 1307 q 593 1190 593 1242 q 558 1107 593 1139 q 469 1075 524 1075 q 381 1107 417 1075 q 346 1190 346 1139 m 469 1258 q 422 1240 442 1258 q 401 1190 401 1222 q 421 1142 401 1161 q 469 1122 440 1122 q 517 1141 496 1122 q 539 1190 539 1160 q 518 1240 539 1222 q 469 1258 497 1258 z "},"Ǻ":{"ha":939,"x_min":17,"x_max":921,"o":"m 506 1149 l 442 1172 l 525 1296 l 625 1296 l 506 1149 m 429 986 l 511 986 l 921 0 l 818 0 l 690 308 l 247 308 l 121 0 l 17 0 l 429 986 m 668 385 l 469 872 l 268 385 l 668 385 m 346 1075 q 381 1160 346 1128 q 469 1192 417 1192 q 559 1160 524 1192 q 594 1075 594 1128 q 559 992 594 1024 q 469 960 524 960 q 381 992 417 960 q 346 1075 346 1024 m 469 1144 q 422 1126 443 1144 q 401 1075 401 1108 q 422 1027 401 1047 q 469 1007 442 1007 q 518 1026 497 1007 q 539 1075 539 1044 q 519 1126 539 1108 q 469 1144 499 1144 z "},"Ã":{"ha":939,"x_min":17,"x_max":921,"o":"m 429 986 l 511 986 l 921 0 l 818 0 l 690 308 l 247 308 l 121 0 l 17 0 l 429 986 m 668 385 l 469 872 l 268 385 l 668 385 m 554 1146 q 483 1160 513 1146 q 431 1188 454 1174 q 376 1201 407 1201 q 331 1187 346 1201 q 312 1156 317 1172 q 307 1135 307 1139 l 249 1135 q 253 1163 249 1142 q 272 1206 258 1183 q 310 1247 286 1229 q 375 1264 335 1264 q 441 1249 414 1264 q 494 1220 468 1235 q 553 1206 519 1206 q 606 1222 589 1206 q 627 1254 622 1238 q 632 1274 632 1271 l 690 1274 q 685 1247 690 1267 q 665 1203 679 1226 q 623 1163 650 1179 q 554 1146 596 1146 z "},"Æ":{"ha":1335,"x_min":-36,"x_max":1279,"o":"m 599 986 l 1267 986 l 1267 900 l 719 900 l 719 546 l 1192 546 l 1192 460 l 719 460 l 719 86 l 1279 86 l 1279 0 l 625 0 l 625 308 l 265 308 l 69 0 l -36 0 l 599 986 m 618 394 l 618 869 l 310 394 l 618 394 z "},"Ǽ":{"ha":1335,"x_min":-36,"x_max":1279,"o":"m 599 986 l 1267 986 l 1267 900 l 719 900 l 719 546 l 1192 546 l 1192 460 l 719 460 l 719 86 l 1279 86 l 1279 0 l 625 0 l 625 308 l 265 308 l 69 0 l -36 0 l 599 986 m 618 394 l 618 869 l 310 394 l 618 394 m 844 1121 l 782 1144 l 864 1274 l 964 1274 l 844 1121 z "},"B":{"ha":925,"x_min":124,"x_max":865,"o":"m 865 254 q 828 123 865 181 q 727 33 790 65 q 589 0 664 0 l 124 0 l 124 986 l 599 986 q 719 949 668 986 q 797 855 769 913 q 824 735 824 797 q 786 599 824 661 q 682 506 749 536 q 816 413 767 481 q 865 254 865 344 m 768 271 q 746 363 768 321 q 685 432 724 406 q 599 458 647 458 l 221 458 l 221 85 l 589 85 q 679 111 639 85 q 744 180 719 138 q 768 271 768 222 m 221 901 l 221 538 l 560 538 q 646 563 608 538 q 706 631 683 589 q 728 719 728 672 q 707 810 728 769 q 650 876 686 851 q 568 901 614 901 l 221 901 z "},"C":{"ha":953,"x_min":58,"x_max":910,"o":"m 58 500 q 90 677 58 590 q 181 835 121 764 q 328 949 240 907 q 526 992 415 992 q 752 931 658 992 q 890 776 846 871 l 814 729 q 733 833 782 794 q 630 888 685 871 q 521 904 575 904 q 364 869 432 904 q 249 774 296 833 q 179 642 203 715 q 156 494 156 569 q 183 338 156 413 q 261 205 211 263 q 378 113 311 147 q 525 79 446 79 q 639 99 581 79 q 748 158 697 118 q 829 263 799 199 l 910 221 q 815 96 879 147 q 673 18 751 44 q 519 -8 594 -8 q 333 35 418 -8 q 187 152 249 79 q 92 316 125 225 q 58 500 58 407 z "},"Ć":{"ha":953,"x_min":58,"x_max":910,"o":"m 58 500 q 90 677 58 590 q 181 835 121 764 q 328 949 240 907 q 526 992 415 992 q 752 931 658 992 q 890 776 846 871 l 814 729 q 733 833 782 794 q 630 888 685 871 q 521 904 575 904 q 364 869 432 904 q 249 774 296 833 q 179 642 203 715 q 156 494 156 569 q 183 338 156 413 q 261 205 211 263 q 378 113 311 147 q 525 79 446 79 q 639 99 581 79 q 748 158 697 118 q 829 263 799 199 l 910 221 q 815 96 879 147 q 673 18 751 44 q 519 -8 594 -8 q 333 35 418 -8 q 187 152 249 79 q 92 316 125 225 q 58 500 58 407 m 557 1121 l 494 1144 l 576 1274 l 676 1274 l 557 1121 z "},"Č":{"ha":953,"x_min":58,"x_max":910,"o":"m 58 500 q 90 677 58 590 q 181 835 121 764 q 328 949 240 907 q 526 992 415 992 q 752 931 658 992 q 890 776 846 871 l 814 729 q 733 833 782 794 q 630 888 685 871 q 521 904 575 904 q 364 869 432 904 q 249 774 296 833 q 179 642 203 715 q 156 494 156 569 q 183 338 156 413 q 261 205 211 263 q 378 113 311 147 q 525 79 446 79 q 639 99 581 79 q 748 158 697 118 q 829 263 799 199 l 910 221 q 815 96 879 147 q 673 18 751 44 q 519 -8 594 -8 q 333 35 418 -8 q 187 152 249 79 q 92 316 125 225 q 58 500 58 407 m 406 1274 l 524 1186 l 642 1274 l 696 1246 l 558 1126 l 489 1126 l 353 1246 l 406 1274 z "},"Ç":{"ha":953,"x_min":58,"x_max":910,"o":"m 58 500 q 90 677 58 590 q 181 835 121 764 q 328 949 240 907 q 526 992 415 992 q 752 931 658 992 q 890 776 846 871 l 814 729 q 733 833 782 794 q 630 888 685 871 q 521 904 575 904 q 364 869 432 904 q 249 774 296 833 q 179 642 203 715 q 156 494 156 569 q 183 338 156 413 q 261 205 211 263 q 378 113 311 147 q 525 79 446 79 q 639 99 581 79 q 748 158 697 118 q 829 263 799 199 l 910 221 q 815 96 879 147 q 673 18 751 44 q 519 -8 594 -8 q 333 35 418 -8 q 187 152 249 79 q 92 316 125 225 q 58 500 58 407 m 504 -250 q 427 -240 469 -250 q 346 -211 385 -231 l 374 -157 q 429 -179 403 -171 q 489 -187 456 -187 q 560 -170 535 -187 q 585 -117 585 -153 q 560 -53 585 -81 q 488 0 535 -26 l 528 26 q 615 -42 582 -7 q 649 -132 649 -78 q 610 -219 649 -187 q 504 -250 571 -250 z "},"Ḉ":{"ha":953,"x_min":58,"x_max":910,"o":"m 58 500 q 90 677 58 590 q 181 835 121 764 q 328 949 240 907 q 526 992 415 992 q 752 931 658 992 q 890 776 846 871 l 814 729 q 733 833 782 794 q 630 888 685 871 q 521 904 575 904 q 364 869 432 904 q 249 774 296 833 q 179 642 203 715 q 156 494 156 569 q 183 338 156 413 q 261 205 211 263 q 378 113 311 147 q 525 79 446 79 q 639 99 581 79 q 748 158 697 118 q 829 263 799 199 l 910 221 q 815 96 879 147 q 673 18 751 44 q 519 -8 594 -8 q 333 35 418 -8 q 187 152 249 79 q 92 316 125 225 q 58 500 58 407 m 504 -250 q 427 -240 469 -250 q 346 -211 385 -231 l 374 -157 q 429 -179 403 -171 q 489 -187 456 -187 q 560 -170 535 -187 q 585 -117 585 -153 q 560 -53 585 -81 q 488 0 535 -26 l 528 26 q 615 -42 582 -7 q 649 -132 649 -78 q 610 -219 649 -187 q 504 -250 571 -250 m 557 1121 l 494 1144 l 576 1274 l 676 1274 l 557 1121 z "},"Ĉ":{"ha":953,"x_min":58,"x_max":910,"o":"m 58 500 q 90 677 58 590 q 181 835 121 764 q 328 949 240 907 q 526 992 415 992 q 752 931 658 992 q 890 776 846 871 l 814 729 q 733 833 782 794 q 630 888 685 871 q 521 904 575 904 q 364 869 432 904 q 249 774 296 833 q 179 642 203 715 q 156 494 156 569 q 183 338 156 413 q 261 205 211 263 q 378 113 311 147 q 525 79 446 79 q 639 99 581 79 q 748 158 697 118 q 829 263 799 199 l 910 221 q 815 96 879 147 q 673 18 751 44 q 519 -8 594 -8 q 333 35 418 -8 q 187 152 249 79 q 92 316 125 225 q 58 500 58 407 m 353 1156 l 489 1274 l 558 1274 l 696 1156 l 642 1126 l 524 1214 l 406 1126 l 353 1156 z "},"Ċ":{"ha":953,"x_min":58,"x_max":910,"o":"m 58 500 q 90 677 58 590 q 181 835 121 764 q 328 949 240 907 q 526 992 415 992 q 752 931 658 992 q 890 776 846 871 l 814 729 q 733 833 782 794 q 630 888 685 871 q 521 904 575 904 q 364 869 432 904 q 249 774 296 833 q 179 642 203 715 q 156 494 156 569 q 183 338 156 413 q 261 205 211 263 q 378 113 311 147 q 525 79 446 79 q 639 99 581 79 q 748 158 697 118 q 829 263 799 199 l 910 221 q 815 96 879 147 q 673 18 751 44 q 519 -8 594 -8 q 333 35 418 -8 q 187 152 249 79 q 92 316 125 225 q 58 500 58 407 m 481 1139 l 481 1274 l 567 1274 l 567 1139 l 481 1139 z "},"D":{"ha":993,"x_min":124,"x_max":931,"o":"m 124 0 l 124 986 l 458 986 q 720 920 615 986 q 878 742 825 854 q 931 494 931 631 q 873 233 931 344 q 709 61 815 122 q 458 0 603 0 l 124 0 m 833 494 q 790 704 833 613 q 663 848 746 796 q 458 900 579 900 l 221 900 l 221 86 l 458 86 q 664 140 581 86 q 790 287 747 194 q 833 494 833 379 z "},"Ð":{"ha":1001,"x_min":47,"x_max":939,"o":"m 47 458 l 47 533 l 465 533 l 465 458 l 47 458 m 132 0 l 132 986 l 467 986 q 730 920 625 986 q 887 742 835 854 q 939 494 939 631 q 881 233 939 344 q 717 61 824 122 q 467 0 611 0 l 132 0 m 842 494 q 798 704 842 613 q 671 848 754 796 q 467 900 588 900 l 229 900 l 229 86 l 467 86 q 672 140 589 86 q 799 287 756 194 q 842 494 842 379 z "},"Ď":{"ha":993,"x_min":124,"x_max":931,"o":"m 124 0 l 124 986 l 458 986 q 720 920 615 986 q 878 742 825 854 q 931 494 931 631 q 873 233 931 344 q 709 61 815 122 q 458 0 603 0 l 124 0 m 833 494 q 790 704 833 613 q 663 848 746 796 q 458 900 579 900 l 221 900 l 221 86 l 458 86 q 664 140 581 86 q 790 287 747 194 q 833 494 833 379 m 360 1274 l 478 1186 l 596 1274 l 650 1246 l 513 1126 l 443 1126 l 307 1246 l 360 1274 z "},"Đ":{"ha":1001,"x_min":47,"x_max":939,"o":"m 47 458 l 47 533 l 465 533 l 465 458 l 47 458 m 132 0 l 132 986 l 467 986 q 730 920 625 986 q 887 742 835 854 q 939 494 939 631 q 881 233 939 344 q 717 61 824 122 q 467 0 611 0 l 132 0 m 842 494 q 798 704 842 613 q 671 848 754 796 q 467 900 588 900 l 229 900 l 229 86 l 467 86 q 672 140 589 86 q 799 287 756 194 q 842 494 842 379 z "},"Ḍ":{"ha":993,"x_min":124,"x_max":931,"o":"m 124 0 l 124 986 l 458 986 q 720 920 615 986 q 878 742 825 854 q 931 494 931 631 q 873 233 931 344 q 709 61 815 122 q 458 0 603 0 l 124 0 m 833 494 q 790 704 833 613 q 663 848 746 796 q 458 900 579 900 l 221 900 l 221 86 l 458 86 q 664 140 581 86 q 790 287 747 194 q 833 494 833 379 m 454 -235 l 454 -100 l 540 -100 l 540 -235 l 454 -235 z "},"Ḏ":{"ha":993,"x_min":124,"x_max":931,"o":"m 124 0 l 124 986 l 458 986 q 720 920 615 986 q 878 742 825 854 q 931 494 931 631 q 873 233 931 344 q 709 61 815 122 q 458 0 603 0 l 124 0 m 833 494 q 790 704 833 613 q 663 848 746 796 q 458 900 579 900 l 221 900 l 221 86 l 458 86 q 664 140 581 86 q 790 287 747 194 q 833 494 833 379 m 296 -179 l 296 -114 l 697 -114 l 697 -179 l 296 -179 z "},"E":{"ha":846,"x_min":124,"x_max":786,"o":"m 786 86 l 786 0 l 124 0 l 124 986 l 774 986 l 774 900 l 221 900 l 221 544 l 703 544 l 703 463 l 221 463 l 221 86 l 786 86 z "},"É":{"ha":846,"x_min":124,"x_max":786,"o":"m 786 86 l 786 0 l 124 0 l 124 986 l 774 986 l 774 900 l 221 900 l 221 544 l 703 544 l 703 463 l 221 463 l 221 86 l 786 86 m 500 1121 l 438 1144 l 519 1274 l 619 1274 l 500 1121 z "},"Ĕ":{"ha":846,"x_min":124,"x_max":786,"o":"m 786 86 l 786 0 l 124 0 l 124 986 l 774 986 l 774 900 l 221 900 l 221 544 l 703 544 l 703 463 l 221 463 l 221 86 l 786 86 m 468 1182 q 520 1208 497 1182 q 547 1274 543 1235 l 604 1274 q 565 1174 604 1215 q 468 1133 525 1133 q 372 1174 411 1133 q 332 1274 332 1215 l 390 1274 q 414 1210 390 1238 q 468 1182 438 1182 z "},"Ě":{"ha":846,"x_min":124,"x_max":786,"o":"m 786 86 l 786 0 l 124 0 l 124 986 l 774 986 l 774 900 l 221 900 l 221 544 l 703 544 l 703 463 l 221 463 l 221 86 l 786 86 m 350 1274 l 468 1186 l 586 1274 l 640 1246 l 503 1126 l 433 1126 l 297 1246 l 350 1274 z "},"Ḝ":{"ha":846,"x_min":124,"x_max":786,"o":"m 786 86 l 786 0 l 124 0 l 124 986 l 774 986 l 774 900 l 221 900 l 221 544 l 703 544 l 703 463 l 221 463 l 221 86 l 786 86 m 451 -250 q 374 -240 417 -250 q 293 -211 332 -231 l 321 -157 q 376 -179 350 -171 q 436 -187 403 -187 q 507 -170 482 -187 q 532 -117 532 -153 q 507 -53 532 -81 q 435 0 482 -26 l 475 26 q 563 -42 529 -7 q 596 -132 596 -78 q 557 -219 596 -187 q 451 -250 518 -250 m 468 1182 q 520 1208 497 1182 q 547 1274 543 1235 l 604 1274 q 565 1174 604 1215 q 468 1133 525 1133 q 372 1174 411 1133 q 332 1274 332 1215 l 390 1274 q 414 1210 390 1238 q 468 1182 438 1182 z "},"Ê":{"ha":846,"x_min":124,"x_max":786,"o":"m 786 86 l 786 0 l 124 0 l 124 986 l 774 986 l 774 900 l 221 900 l 221 544 l 703 544 l 703 463 l 221 463 l 221 86 l 786 86 m 297 1156 l 433 1274 l 503 1274 l 640 1156 l 586 1126 l 468 1214 l 350 1126 l 297 1156 z "},"Ế":{"ha":846,"x_min":124,"x_max":786,"o":"m 786 86 l 786 0 l 124 0 l 124 986 l 774 986 l 774 900 l 221 900 l 221 544 l 703 544 l 703 463 l 221 463 l 221 86 l 786 86 z "},"Ệ":{"ha":846,"x_min":124,"x_max":786,"o":"m 786 86 l 786 0 l 124 0 l 124 986 l 774 986 l 774 900 l 221 900 l 221 544 l 703 544 l 703 463 l 221 463 l 221 86 l 786 86 m 425 -235 l 425 -100 l 511 -100 l 511 -235 l 425 -235 m 297 1156 l 433 1274 l 503 1274 l 640 1156 l 586 1126 l 468 1214 l 350 1126 l 297 1156 z "},"Ề":{"ha":846,"x_min":124,"x_max":786,"o":"m 786 86 l 786 0 l 124 0 l 124 986 l 774 986 l 774 900 l 221 900 l 221 544 l 703 544 l 703 463 l 221 463 l 221 86 l 786 86 z "},"Ể":{"ha":846,"x_min":124,"x_max":786,"o":"m 786 86 l 786 0 l 124 0 l 124 986 l 774 986 l 774 900 l 221 900 l 221 544 l 703 544 l 703 463 l 221 463 l 221 86 l 786 86 z "},"Ễ":{"ha":846,"x_min":124,"x_max":786,"o":"m 786 86 l 786 0 l 124 0 l 124 986 l 774 986 l 774 900 l 221 900 l 221 544 l 703 544 l 703 463 l 221 463 l 221 86 l 786 86 z "},"Ȅ":{"ha":846,"x_min":124,"x_max":786,"o":"m 786 86 l 786 0 l 124 0 l 124 986 l 774 986 l 774 900 l 221 900 l 221 544 l 703 544 l 703 463 l 221 463 l 221 86 l 786 86 m 429 1274 l 517 1274 l 596 1144 l 544 1121 l 429 1274 m 254 1274 l 343 1274 l 422 1144 l 371 1121 l 254 1274 z "},"Ë":{"ha":846,"x_min":124,"x_max":786,"o":"m 786 86 l 786 0 l 124 0 l 124 986 l 774 986 l 774 900 l 221 900 l 221 544 l 703 544 l 703 463 l 221 463 l 221 86 l 786 86 m 324 1139 l 324 1269 l 404 1269 l 404 1139 l 324 1139 m 531 1139 l 531 1269 l 611 1269 l 611 1139 l 531 1139 z "},"Ė":{"ha":846,"x_min":124,"x_max":786,"o":"m 786 86 l 786 0 l 124 0 l 124 986 l 774 986 l 774 900 l 221 900 l 221 544 l 703 544 l 703 463 l 221 463 l 221 86 l 786 86 m 425 1139 l 425 1274 l 511 1274 l 511 1139 l 425 1139 z "},"Ẹ":{"ha":846,"x_min":124,"x_max":786,"o":"m 786 86 l 786 0 l 124 0 l 124 986 l 774 986 l 774 900 l 221 900 l 221 544 l 703 544 l 703 463 l 221 463 l 221 86 l 786 86 m 425 -235 l 425 -100 l 511 -100 l 511 -235 l 425 -235 z "},"È":{"ha":846,"x_min":124,"x_max":786,"o":"m 786 86 l 786 0 l 124 0 l 124 986 l 774 986 l 774 900 l 221 900 l 221 544 l 703 544 l 703 463 l 221 463 l 221 86 l 786 86 m 339 1274 l 438 1274 l 521 1144 l 460 1121 l 339 1274 z "},"Ẻ":{"ha":846,"x_min":124,"x_max":786,"o":"m 786 86 l 786 0 l 124 0 l 124 986 l 774 986 l 774 900 l 221 900 l 221 544 l 703 544 l 703 463 l 221 463 l 221 86 l 786 86 m 404 1221 l 367 1258 q 418 1293 392 1281 q 476 1306 444 1306 q 546 1279 522 1306 q 569 1218 569 1253 q 552 1163 569 1190 q 499 1104 535 1136 l 469 1138 q 502 1176 493 1160 q 511 1210 511 1193 q 500 1240 511 1228 q 468 1253 489 1253 q 437 1246 450 1253 q 404 1221 424 1239 z "},"Ȇ":{"ha":846,"x_min":124,"x_max":786,"o":"m 786 86 l 786 0 l 124 0 l 124 986 l 774 986 l 774 900 l 221 900 l 221 544 l 703 544 l 703 463 l 221 463 l 221 86 l 786 86 m 468 1225 q 414 1197 438 1225 q 390 1133 390 1169 l 332 1133 q 372 1233 332 1192 q 468 1274 411 1274 q 565 1233 525 1274 q 604 1133 604 1192 l 547 1133 q 520 1199 543 1172 q 468 1225 497 1225 z "},"Ē":{"ha":846,"x_min":124,"x_max":786,"o":"m 786 86 l 786 0 l 124 0 l 124 986 l 774 986 l 774 900 l 221 900 l 221 544 l 703 544 l 703 463 l 221 463 l 221 86 l 786 86 m 268 1181 l 268 1246 l 669 1246 l 669 1181 l 268 1181 z "},"Ḗ":{"ha":846,"x_min":124,"x_max":786,"o":"m 786 86 l 786 0 l 124 0 l 124 986 l 774 986 l 774 900 l 221 900 l 221 544 l 703 544 l 703 463 l 221 463 l 221 86 l 786 86 m 268 1181 l 268 1246 l 669 1246 l 669 1181 l 268 1181 m 501 1383 l 439 1407 l 521 1536 l 621 1536 l 501 1383 z "},"Ḕ":{"ha":846,"x_min":124,"x_max":786,"o":"m 786 86 l 786 0 l 124 0 l 124 986 l 774 986 l 774 900 l 221 900 l 221 544 l 703 544 l 703 463 l 221 463 l 221 86 l 786 86 m 268 1181 l 268 1246 l 669 1246 l 669 1181 l 268 1181 m 340 1536 l 439 1536 l 522 1407 l 461 1383 l 340 1536 z "},"Ę":{"ha":846,"x_min":124,"x_max":786,"o":"m 786 86 l 786 0 l 124 0 l 124 986 l 774 986 l 774 900 l 221 900 l 221 544 l 703 544 l 703 463 l 221 463 l 221 86 l 786 86 m 613 -146 q 644 -62 613 -103 q 738 22 675 -21 l 764 22 l 788 0 q 705 -74 731 -43 q 679 -133 679 -106 q 706 -172 679 -160 q 785 -190 733 -185 l 761 -253 q 669 -230 701 -246 q 624 -192 636 -214 q 613 -146 613 -169 z "},"Ẽ":{"ha":846,"x_min":124,"x_max":786,"o":"m 786 86 l 786 0 l 124 0 l 124 986 l 774 986 l 774 900 l 221 900 l 221 544 l 703 544 l 703 463 l 221 463 l 221 86 l 786 86 m 553 1146 q 482 1160 511 1146 q 429 1188 453 1174 q 375 1201 406 1201 q 330 1187 344 1201 q 310 1156 315 1172 q 306 1135 306 1139 l 247 1135 q 252 1163 247 1142 q 271 1206 257 1183 q 309 1247 285 1229 q 374 1264 333 1264 q 440 1249 413 1264 q 492 1220 467 1235 q 551 1206 518 1206 q 604 1222 588 1206 q 626 1254 621 1238 q 631 1274 631 1271 l 689 1274 q 683 1247 689 1267 q 663 1203 678 1226 q 622 1163 649 1179 q 553 1146 594 1146 z "},"F":{"ha":818,"x_min":124,"x_max":771,"o":"m 124 0 l 124 986 l 771 986 l 771 900 l 221 900 l 221 538 l 685 538 l 685 457 l 221 457 l 221 0 l 124 0 z "},"G":{"ha":994,"x_min":58,"x_max":918,"o":"m 519 -7 q 336 35 421 -7 q 189 150 251 78 q 92 311 126 222 q 58 494 58 400 q 92 684 58 594 q 188 843 126 774 q 332 953 249 913 q 514 993 415 993 q 751 933 660 993 q 890 778 843 874 l 815 728 q 689 863 768 819 q 513 906 610 906 q 365 871 431 906 q 251 778 299 836 q 180 646 204 719 q 156 493 156 572 q 183 335 156 410 q 263 203 211 261 q 381 113 314 146 q 526 81 449 81 q 697 126 617 81 q 851 265 778 171 l 851 163 q 519 -7 711 -7 m 836 410 l 617 410 l 617 485 l 918 485 l 918 0 l 836 0 l 836 410 z "},"Ğ":{"ha":994,"x_min":58,"x_max":918,"o":"m 519 -7 q 336 35 421 -7 q 189 150 251 78 q 92 311 126 222 q 58 494 58 400 q 92 684 58 594 q 188 843 126 774 q 332 953 249 913 q 514 993 415 993 q 751 933 660 993 q 890 778 843 874 l 815 728 q 689 863 768 819 q 513 906 610 906 q 365 871 431 906 q 251 778 299 836 q 180 646 204 719 q 156 493 156 572 q 183 335 156 410 q 263 203 211 261 q 381 113 314 146 q 526 81 449 81 q 697 126 617 81 q 851 265 778 171 l 851 163 q 519 -7 711 -7 m 836 410 l 617 410 l 617 485 l 918 485 l 918 0 l 836 0 l 836 410 m 513 1182 q 565 1208 542 1182 q 592 1274 588 1235 l 649 1274 q 609 1174 649 1215 q 513 1133 569 1133 q 416 1174 456 1133 q 376 1274 376 1215 l 435 1274 q 458 1210 435 1238 q 513 1182 482 1182 z "},"Ǧ":{"ha":994,"x_min":58,"x_max":918,"o":"m 519 -7 q 336 35 421 -7 q 189 150 251 78 q 92 311 126 222 q 58 494 58 400 q 92 684 58 594 q 188 843 126 774 q 332 953 249 913 q 514 993 415 993 q 751 933 660 993 q 890 778 843 874 l 815 728 q 689 863 768 819 q 513 906 610 906 q 365 871 431 906 q 251 778 299 836 q 180 646 204 719 q 156 493 156 572 q 183 335 156 410 q 263 203 211 261 q 381 113 314 146 q 526 81 449 81 q 697 126 617 81 q 851 265 778 171 l 851 163 q 519 -7 711 -7 m 836 410 l 617 410 l 617 485 l 918 485 l 918 0 l 836 0 l 836 410 m 394 1274 l 513 1186 l 631 1274 l 685 1246 l 547 1126 l 478 1126 l 342 1246 l 394 1274 z "},"Ĝ":{"ha":994,"x_min":58,"x_max":918,"o":"m 519 -7 q 336 35 421 -7 q 189 150 251 78 q 92 311 126 222 q 58 494 58 400 q 92 684 58 594 q 188 843 126 774 q 332 953 249 913 q 514 993 415 993 q 751 933 660 993 q 890 778 843 874 l 815 728 q 689 863 768 819 q 513 906 610 906 q 365 871 431 906 q 251 778 299 836 q 180 646 204 719 q 156 493 156 572 q 183 335 156 410 q 263 203 211 261 q 381 113 314 146 q 526 81 449 81 q 697 126 617 81 q 851 265 778 171 l 851 163 q 519 -7 711 -7 m 836 410 l 617 410 l 617 485 l 918 485 l 918 0 l 836 0 l 836 410 m 342 1156 l 478 1274 l 547 1274 l 685 1156 l 631 1126 l 513 1214 l 394 1126 l 342 1156 z "},"Ģ":{"ha":994,"x_min":58,"x_max":918,"o":"m 519 -7 q 336 35 421 -7 q 189 150 251 78 q 92 311 126 222 q 58 494 58 400 q 92 684 58 594 q 188 843 126 774 q 332 953 249 913 q 514 993 415 993 q 751 933 660 993 q 890 778 843 874 l 815 728 q 689 863 768 819 q 513 906 610 906 q 365 871 431 906 q 251 778 299 836 q 180 646 204 719 q 156 493 156 572 q 183 335 156 410 q 263 203 211 261 q 381 113 314 146 q 526 81 449 81 q 697 126 617 81 q 851 265 778 171 l 851 163 q 519 -7 711 -7 m 836 410 l 617 410 l 617 485 l 918 485 l 918 0 l 836 0 l 836 410 m 481 -276 l 504 -174 l 476 -174 l 476 -68 l 564 -68 l 564 -174 l 529 -276 l 481 -276 z "},"Ġ":{"ha":994,"x_min":58,"x_max":918,"o":"m 519 -7 q 336 35 421 -7 q 189 150 251 78 q 92 311 126 222 q 58 494 58 400 q 92 684 58 594 q 188 843 126 774 q 332 953 249 913 q 514 993 415 993 q 751 933 660 993 q 890 778 843 874 l 815 728 q 689 863 768 819 q 513 906 610 906 q 365 871 431 906 q 251 778 299 836 q 180 646 204 719 q 156 493 156 572 q 183 335 156 410 q 263 203 211 261 q 381 113 314 146 q 526 81 449 81 q 697 126 617 81 q 851 265 778 171 l 851 163 q 519 -7 711 -7 m 836 410 l 617 410 l 617 485 l 918 485 l 918 0 l 836 0 l 836 410 m 469 1139 l 469 1274 l 556 1274 l 556 1139 l 469 1139 z "},"Ḡ":{"ha":994,"x_min":58,"x_max":918,"o":"m 519 -7 q 336 35 421 -7 q 189 150 251 78 q 92 311 126 222 q 58 494 58 400 q 92 684 58 594 q 188 843 126 774 q 332 953 249 913 q 514 993 415 993 q 751 933 660 993 q 890 778 843 874 l 815 728 q 689 863 768 819 q 513 906 610 906 q 365 871 431 906 q 251 778 299 836 q 180 646 204 719 q 156 493 156 572 q 183 335 156 410 q 263 203 211 261 q 381 113 314 146 q 526 81 449 81 q 697 126 617 81 q 851 265 778 171 l 851 163 q 519 -7 711 -7 m 836 410 l 617 410 l 617 485 l 918 485 l 918 0 l 836 0 l 836 410 m 314 1181 l 314 1246 l 715 1246 l 715 1181 l 314 1181 z "},"H":{"ha":1025,"x_min":124,"x_max":901,"o":"m 901 986 l 901 0 l 806 0 l 806 461 l 221 461 l 221 0 l 124 0 l 124 986 l 221 986 l 221 547 l 806 547 l 806 986 l 901 986 z "},"Ħ":{"ha":1039,"x_min":61,"x_max":978,"o":"m 61 744 l 61 818 l 978 818 l 978 744 l 61 744 m 908 986 l 908 0 l 813 0 l 813 461 l 228 461 l 228 0 l 131 0 l 131 986 l 228 986 l 228 547 l 813 547 l 813 986 l 908 986 z "},"Ḫ":{"ha":1025,"x_min":124,"x_max":901,"o":"m 901 986 l 901 0 l 806 0 l 806 461 l 221 461 l 221 0 l 124 0 l 124 986 l 221 986 l 221 547 l 806 547 l 806 986 l 901 986 m 514 -162 q 566 -136 543 -162 q 593 -71 589 -110 l 650 -71 q 610 -170 650 -129 q 514 -211 571 -211 q 417 -170 457 -211 q 378 -71 378 -129 l 436 -71 q 460 -135 436 -107 q 514 -162 483 -162 z "},"Ĥ":{"ha":1025,"x_min":124,"x_max":901,"o":"m 901 986 l 901 0 l 806 0 l 806 461 l 221 461 l 221 0 l 124 0 l 124 986 l 221 986 l 221 547 l 806 547 l 806 986 l 901 986 m 344 1156 l 481 1274 l 550 1274 l 688 1156 l 633 1126 l 515 1214 l 397 1126 l 344 1156 z "},"Ḥ":{"ha":1025,"x_min":124,"x_max":901,"o":"m 901 986 l 901 0 l 806 0 l 806 461 l 221 461 l 221 0 l 124 0 l 124 986 l 221 986 l 221 547 l 806 547 l 806 986 l 901 986 m 469 -235 l 469 -100 l 556 -100 l 556 -235 l 469 -235 z "},"I":{"ha":344,"x_min":124,"x_max":221,"o":"m 124 0 l 124 986 l 221 986 l 221 0 l 124 0 z "},"Í":{"ha":344,"x_min":124,"x_max":325,"o":"m 124 0 l 124 986 l 221 986 l 221 0 l 124 0 m 204 1121 l 142 1144 l 224 1274 l 324 1274 l 204 1121 z "},"Ĭ":{"ha":344,"x_min":36,"x_max":308,"o":"m 124 0 l 124 986 l 221 986 l 221 0 l 124 0 m 172 1182 q 224 1208 201 1182 q 251 1274 247 1235 l 308 1274 q 269 1174 308 1215 q 172 1133 229 1133 q 76 1174 115 1133 q 36 1274 36 1215 l 94 1274 q 118 1210 94 1238 q 172 1182 142 1182 z "},"Î":{"ha":344,"x_min":0,"x_max":343,"o":"m 124 0 l 124 986 l 221 986 l 221 0 l 124 0 m 1 1156 l 138 1274 l 207 1274 l 344 1156 l 290 1126 l 172 1214 l 54 1126 l 1 1156 z "},"Ȉ":{"ha":344,"x_min":-40,"x_max":301,"o":"m 124 0 l 124 986 l 221 986 l 221 0 l 124 0 m 133 1274 l 221 1274 l 300 1144 l 249 1121 l 133 1274 m -42 1274 l 47 1274 l 126 1144 l 75 1121 l -42 1274 z "},"Ï":{"ha":344,"x_min":29,"x_max":315,"o":"m 124 0 l 124 986 l 221 986 l 221 0 l 124 0 m 28 1139 l 28 1269 l 108 1269 l 108 1139 l 28 1139 m 235 1139 l 235 1269 l 315 1269 l 315 1139 l 235 1139 z "},"Ḯ":{"ha":344,"x_min":29,"x_max":325,"o":"m 124 0 l 124 986 l 221 986 l 221 0 l 124 0 m 28 1139 l 28 1269 l 108 1269 l 108 1139 l 28 1139 m 235 1139 l 235 1269 l 315 1269 l 315 1139 l 235 1139 m 204 1397 l 142 1421 l 224 1550 l 324 1550 l 204 1397 z "},"İ":{"ha":344,"x_min":124,"x_max":221,"o":"m 124 0 l 124 986 l 221 986 l 221 0 l 124 0 m 129 1139 l 129 1274 l 215 1274 l 215 1139 l 129 1139 z "},"Ị":{"ha":344,"x_min":124,"x_max":221,"o":"m 124 0 l 124 986 l 221 986 l 221 0 l 124 0 m 129 -235 l 129 -100 l 215 -100 l 215 -235 l 129 -235 z "},"Ì":{"ha":344,"x_min":42,"x_max":225,"o":"m 124 0 l 124 986 l 221 986 l 221 0 l 124 0 m 43 1274 l 142 1274 l 225 1144 l 164 1121 l 43 1274 z "},"Ỉ":{"ha":344,"x_min":69,"x_max":274,"o":"m 124 0 l 124 986 l 221 986 l 221 0 l 124 0 m 108 1221 l 71 1258 q 122 1293 96 1281 q 181 1306 149 1306 q 250 1279 226 1306 q 274 1218 274 1253 q 256 1163 274 1190 q 203 1104 239 1136 l 174 1138 q 206 1176 197 1160 q 215 1210 215 1193 q 204 1240 215 1228 q 172 1253 193 1253 q 141 1246 154 1253 q 108 1221 128 1239 z "},"Ȋ":{"ha":344,"x_min":36,"x_max":308,"o":"m 124 0 l 124 986 l 221 986 l 221 0 l 124 0 m 172 1225 q 118 1197 142 1225 q 94 1133 94 1169 l 36 1133 q 76 1233 36 1192 q 172 1274 115 1274 q 269 1233 229 1274 q 308 1133 308 1192 l 251 1133 q 224 1199 247 1172 q 172 1225 201 1225 z "},"Ī":{"ha":344,"x_min":-28,"x_max":374,"o":"m 124 0 l 124 986 l 221 986 l 221 0 l 124 0 m -28 1181 l -28 1246 l 374 1246 l 374 1181 l -28 1181 z "},"Į":{"ha":344,"x_min":46,"x_max":221,"o":"m 124 0 l 124 986 l 221 986 l 221 0 l 124 0 m 46 -146 q 77 -62 46 -103 q 171 22 108 -21 l 197 22 l 221 0 q 138 -74 164 -43 q 113 -133 113 -106 q 140 -172 113 -160 q 218 -190 167 -185 l 194 -253 q 102 -230 135 -246 q 58 -192 69 -214 q 46 -146 46 -169 z "},"Ĩ":{"ha":344,"x_min":-50,"x_max":393,"o":"m 124 0 l 124 986 l 221 986 l 221 0 l 124 0 m 257 1146 q 186 1160 215 1146 q 133 1188 157 1174 q 79 1201 110 1201 q 34 1187 49 1201 q 15 1156 19 1172 q 10 1135 10 1139 l -49 1135 q -44 1163 -49 1142 q -25 1206 -39 1183 q 13 1247 -11 1229 q 78 1264 38 1264 q 144 1249 117 1264 q 197 1220 171 1235 q 256 1206 222 1206 q 308 1222 292 1206 q 330 1254 325 1238 q 335 1274 335 1271 l 393 1274 q 388 1247 393 1267 q 367 1203 382 1226 q 326 1163 353 1179 q 257 1146 299 1146 z "},"J":{"ha":668,"x_min":19,"x_max":557,"o":"m 47 124 q 124 88 76 103 q 235 72 172 72 q 351 97 307 72 q 419 170 396 121 q 451 293 443 219 q 460 465 460 367 l 460 986 l 557 986 l 557 485 q 546 282 557 374 q 503 124 535 190 q 407 21 471 57 q 238 -15 343 -15 q 117 0 169 -15 q 19 46 64 15 l 47 124 z "},"Ĵ":{"ha":668,"x_min":19,"x_max":681,"o":"m 47 124 q 124 88 76 103 q 235 72 172 72 q 351 97 307 72 q 419 170 396 121 q 451 293 443 219 q 460 465 460 367 l 460 986 l 557 986 l 557 485 q 546 282 557 374 q 503 124 535 190 q 407 21 471 57 q 238 -15 343 -15 q 117 0 169 -15 q 19 46 64 15 l 47 124 m 339 1156 l 475 1274 l 544 1274 l 682 1156 l 628 1126 l 510 1214 l 392 1126 l 339 1156 z "},"K":{"ha":893,"x_min":124,"x_max":892,"o":"m 124 0 l 124 985 l 221 985 l 221 413 l 764 986 l 871 986 l 468 553 l 892 0 l 782 0 l 406 494 l 221 303 l 221 0 l 124 0 z "},"Ķ":{"ha":893,"x_min":124,"x_max":892,"o":"m 124 0 l 124 985 l 221 985 l 221 413 l 764 986 l 871 986 l 468 553 l 892 0 l 782 0 l 406 494 l 221 303 l 221 0 l 124 0 m 417 -276 l 440 -174 l 413 -174 l 413 -68 l 500 -68 l 500 -174 l 465 -276 l 417 -276 z "},"L":{"ha":810,"x_min":124,"x_max":790,"o":"m 124 0 l 124 986 l 221 986 l 221 86 l 790 86 l 790 0 l 124 0 z "},"Ĺ":{"ha":810,"x_min":124,"x_max":790,"o":"m 124 0 l 124 986 l 221 986 l 221 86 l 790 86 l 790 0 l 124 0 m 201 1121 l 139 1144 l 221 1274 l 321 1274 l 201 1121 z "},"Ľ":{"ha":810,"x_min":124,"x_max":790,"o":"m 124 0 l 124 986 l 221 986 l 221 86 l 790 86 l 790 0 l 124 0 m 586 868 l 524 892 l 606 1021 l 706 1021 l 586 868 z "},"Ļ":{"ha":810,"x_min":124,"x_max":790,"o":"m 124 0 l 124 986 l 221 986 l 221 86 l 790 86 l 790 0 l 124 0 m 421 -276 l 444 -174 l 417 -174 l 417 -68 l 504 -68 l 504 -174 l 469 -276 l 421 -276 z "},"Ŀ":{"ha":810,"x_min":124,"x_max":790,"o":"m 124 0 l 124 986 l 221 986 l 221 86 l 790 86 l 790 0 l 124 0 m 508 483 l 508 639 l 590 639 l 590 483 l 508 483 z "},"Ḷ":{"ha":810,"x_min":124,"x_max":790,"o":"m 124 0 l 124 986 l 221 986 l 221 86 l 790 86 l 790 0 l 124 0 m 421 -235 l 421 -100 l 507 -100 l 507 -235 l 421 -235 z "},"Ḻ":{"ha":810,"x_min":124,"x_max":790,"o":"m 124 0 l 124 986 l 221 986 l 221 86 l 790 86 l 790 0 l 124 0 m 263 -179 l 263 -114 l 664 -114 l 664 -179 l 263 -179 z "},"Ł":{"ha":819,"x_min":22,"x_max":800,"o":"m 53 318 l 22 374 l 446 725 l 476 671 l 53 318 m 133 0 l 133 986 l 231 986 l 231 86 l 800 86 l 800 0 l 133 0 z "},"M":{"ha":1218,"x_min":124,"x_max":1094,"o":"m 997 0 l 997 803 l 640 179 l 579 179 l 221 803 l 221 0 l 124 0 l 124 986 l 224 986 l 608 311 l 996 986 l 1094 986 l 1094 0 l 997 0 z "},"Ṃ":{"ha":1218,"x_min":124,"x_max":1094,"o":"m 997 0 l 997 803 l 640 179 l 579 179 l 221 803 l 221 0 l 124 0 l 124 986 l 224 986 l 608 311 l 996 986 l 1094 986 l 1094 0 l 997 0 m 565 -235 l 565 -100 l 651 -100 l 651 -235 l 565 -235 z "},"N":{"ha":1072,"x_min":124,"x_max":949,"o":"m 221 807 l 221 0 l 124 0 l 124 986 l 204 986 l 851 164 l 851 985 l 949 985 l 949 0 l 858 0 l 221 807 z "},"Ń":{"ha":1072,"x_min":124,"x_max":949,"o":"m 221 807 l 221 0 l 124 0 l 124 986 l 204 986 l 851 164 l 851 985 l 949 985 l 949 0 l 858 0 l 221 807 m 572 1121 l 510 1144 l 592 1274 l 692 1274 l 572 1121 z "},"Ň":{"ha":1072,"x_min":124,"x_max":949,"o":"m 221 807 l 221 0 l 124 0 l 124 986 l 204 986 l 851 164 l 851 985 l 949 985 l 949 0 l 858 0 l 221 807 m 422 1274 l 540 1186 l 658 1274 l 713 1246 l 575 1126 l 506 1126 l 369 1246 l 422 1274 z "},"Ņ":{"ha":1072,"x_min":124,"x_max":949,"o":"m 221 807 l 221 0 l 124 0 l 124 986 l 204 986 l 851 164 l 851 985 l 949 985 l 949 0 l 858 0 l 221 807 m 497 -276 l 521 -174 l 493 -174 l 493 -68 l 581 -68 l 581 -174 l 546 -276 l 497 -276 z "},"Ṅ":{"ha":1072,"x_min":124,"x_max":949,"o":"m 221 807 l 221 0 l 124 0 l 124 986 l 204 986 l 851 164 l 851 985 l 949 985 l 949 0 l 858 0 l 221 807 m 497 1139 l 497 1274 l 583 1274 l 583 1139 l 497 1139 z "},"Ṇ":{"ha":1072,"x_min":124,"x_max":949,"o":"m 221 807 l 221 0 l 124 0 l 124 986 l 204 986 l 851 164 l 851 985 l 949 985 l 949 0 l 858 0 l 221 807 m 497 -235 l 497 -100 l 583 -100 l 583 -235 l 497 -235 z "},"Ŋ":{"ha":1064,"x_min":124,"x_max":940,"o":"m 221 804 l 221 0 l 124 0 l 124 986 l 197 986 l 844 169 l 844 985 l 940 985 l 940 -35 q 909 -147 940 -99 q 829 -224 878 -196 q 726 -251 781 -251 q 640 -239 681 -251 q 568 -197 600 -226 l 615 -133 q 663 -160 636 -153 q 715 -167 690 -167 q 778 -150 749 -167 q 826 -103 807 -133 q 846 -37 846 -74 l 846 13 l 221 804 z "},"Ṉ":{"ha":1072,"x_min":124,"x_max":949,"o":"m 221 807 l 221 0 l 124 0 l 124 986 l 204 986 l 851 164 l 851 985 l 949 985 l 949 0 l 858 0 l 221 807 m 340 -179 l 340 -114 l 742 -114 l 742 -179 l 340 -179 z "},"Ñ":{"ha":1072,"x_min":124,"x_max":949,"o":"m 221 807 l 221 0 l 124 0 l 124 986 l 204 986 l 851 164 l 851 985 l 949 985 l 949 0 l 858 0 l 221 807 m 625 1146 q 554 1160 583 1146 q 501 1188 525 1174 q 447 1201 478 1201 q 402 1187 417 1201 q 383 1156 388 1172 q 378 1135 378 1139 l 319 1135 q 324 1163 319 1142 q 343 1206 329 1183 q 381 1247 357 1229 q 446 1264 406 1264 q 512 1249 485 1264 q 565 1220 539 1235 q 624 1206 590 1206 q 676 1222 660 1206 q 698 1254 693 1238 q 703 1274 703 1271 l 761 1274 q 756 1247 761 1267 q 735 1203 750 1226 q 694 1163 721 1179 q 625 1146 667 1146 z "},"O":{"ha":1043,"x_min":58,"x_max":983,"o":"m 521 -7 q 332 35 417 -7 q 186 148 247 76 q 92 309 125 219 q 58 493 58 399 q 93 681 58 592 q 191 841 128 771 q 339 952 254 911 q 522 993 424 993 q 711 950 626 993 q 856 835 796 907 q 950 674 917 763 q 983 492 983 585 q 949 303 983 393 q 851 144 914 214 q 704 33 789 74 q 521 -7 619 -7 m 156 493 q 182 338 156 413 q 257 206 208 264 q 373 115 306 149 q 521 81 440 81 q 673 116 606 81 q 788 210 740 151 q 861 343 836 269 q 886 493 886 417 q 860 647 886 574 q 784 779 833 721 q 668 871 735 838 q 521 904 601 904 q 370 869 438 904 q 255 776 303 835 q 181 643 207 717 q 156 493 156 569 z "},"Ó":{"ha":1043,"x_min":58,"x_max":983,"o":"m 521 -7 q 332 35 417 -7 q 186 148 247 76 q 92 309 125 219 q 58 493 58 399 q 93 681 58 592 q 191 841 128 771 q 339 952 254 911 q 522 993 424 993 q 711 950 626 993 q 856 835 796 907 q 950 674 917 763 q 983 492 983 585 q 949 303 983 393 q 851 144 914 214 q 704 33 789 74 q 521 -7 619 -7 m 156 493 q 182 338 156 413 q 257 206 208 264 q 373 115 306 149 q 521 81 440 81 q 673 116 606 81 q 788 210 740 151 q 861 343 836 269 q 886 493 886 417 q 860 647 886 574 q 784 779 833 721 q 668 871 735 838 q 521 904 601 904 q 370 869 438 904 q 255 776 303 835 q 181 643 207 717 q 156 493 156 569 m 556 1121 l 493 1144 l 575 1274 l 675 1274 l 556 1121 z "},"Ŏ":{"ha":1043,"x_min":58,"x_max":983,"o":"m 521 -7 q 332 35 417 -7 q 186 148 247 76 q 92 309 125 219 q 58 493 58 399 q 93 681 58 592 q 191 841 128 771 q 339 952 254 911 q 522 993 424 993 q 711 950 626 993 q 856 835 796 907 q 950 674 917 763 q 983 492 983 585 q 949 303 983 393 q 851 144 914 214 q 704 33 789 74 q 521 -7 619 -7 m 156 493 q 182 338 156 413 q 257 206 208 264 q 373 115 306 149 q 521 81 440 81 q 673 116 606 81 q 788 210 740 151 q 861 343 836 269 q 886 493 886 417 q 860 647 886 574 q 784 779 833 721 q 668 871 735 838 q 521 904 601 904 q 370 869 438 904 q 255 776 303 835 q 181 643 207 717 q 156 493 156 569 m 522 1182 q 574 1208 551 1182 q 601 1274 597 1235 l 658 1274 q 619 1174 658 1215 q 522 1133 579 1133 q 426 1174 465 1133 q 386 1274 386 1215 l 444 1274 q 468 1210 444 1238 q 522 1182 492 1182 z "},"Ô":{"ha":1043,"x_min":58,"x_max":983,"o":"m 521 -7 q 332 35 417 -7 q 186 148 247 76 q 92 309 125 219 q 58 493 58 399 q 93 681 58 592 q 191 841 128 771 q 339 952 254 911 q 522 993 424 993 q 711 950 626 993 q 856 835 796 907 q 950 674 917 763 q 983 492 983 585 q 949 303 983 393 q 851 144 914 214 q 704 33 789 74 q 521 -7 619 -7 m 156 493 q 182 338 156 413 q 257 206 208 264 q 373 115 306 149 q 521 81 440 81 q 673 116 606 81 q 788 210 740 151 q 861 343 836 269 q 886 493 886 417 q 860 647 886 574 q 784 779 833 721 q 668 871 735 838 q 521 904 601 904 q 370 869 438 904 q 255 776 303 835 q 181 643 207 717 q 156 493 156 569 m 351 1156 l 488 1274 l 557 1274 l 694 1156 l 640 1126 l 522 1214 l 404 1126 l 351 1156 z "},"Ố":{"ha":1043,"x_min":58,"x_max":983,"o":"m 521 -7 q 332 35 417 -7 q 186 148 247 76 q 92 309 125 219 q 58 493 58 399 q 93 681 58 592 q 191 841 128 771 q 339 952 254 911 q 522 993 424 993 q 711 950 626 993 q 856 835 796 907 q 950 674 917 763 q 983 492 983 585 q 949 303 983 393 q 851 144 914 214 q 704 33 789 74 q 521 -7 619 -7 m 156 493 q 182 338 156 413 q 257 206 208 264 q 373 115 306 149 q 521 81 440 81 q 673 116 606 81 q 788 210 740 151 q 861 343 836 269 q 886 493 886 417 q 860 647 886 574 q 784 779 833 721 q 668 871 735 838 q 521 904 601 904 q 370 869 438 904 q 255 776 303 835 q 181 643 207 717 q 156 493 156 569 z "},"Ộ":{"ha":1043,"x_min":58,"x_max":983,"o":"m 521 -7 q 332 35 417 -7 q 186 148 247 76 q 92 309 125 219 q 58 493 58 399 q 93 681 58 592 q 191 841 128 771 q 339 952 254 911 q 522 993 424 993 q 711 950 626 993 q 856 835 796 907 q 950 674 917 763 q 983 492 983 585 q 949 303 983 393 q 851 144 914 214 q 704 33 789 74 q 521 -7 619 -7 m 156 493 q 182 338 156 413 q 257 206 208 264 q 373 115 306 149 q 521 81 440 81 q 673 116 606 81 q 788 210 740 151 q 861 343 836 269 q 886 493 886 417 q 860 647 886 574 q 784 779 833 721 q 668 871 735 838 q 521 904 601 904 q 370 869 438 904 q 255 776 303 835 q 181 643 207 717 q 156 493 156 569 m 478 -235 l 478 -100 l 564 -100 l 564 -235 l 478 -235 m 351 1156 l 488 1274 l 557 1274 l 694 1156 l 640 1126 l 522 1214 l 404 1126 l 351 1156 z "},"Ồ":{"ha":1043,"x_min":58,"x_max":983,"o":"m 521 -7 q 332 35 417 -7 q 186 148 247 76 q 92 309 125 219 q 58 493 58 399 q 93 681 58 592 q 191 841 128 771 q 339 952 254 911 q 522 993 424 993 q 711 950 626 993 q 856 835 796 907 q 950 674 917 763 q 983 492 983 585 q 949 303 983 393 q 851 144 914 214 q 704 33 789 74 q 521 -7 619 -7 m 156 493 q 182 338 156 413 q 257 206 208 264 q 373 115 306 149 q 521 81 440 81 q 673 116 606 81 q 788 210 740 151 q 861 343 836 269 q 886 493 886 417 q 860 647 886 574 q 784 779 833 721 q 668 871 735 838 q 521 904 601 904 q 370 869 438 904 q 255 776 303 835 q 181 643 207 717 q 156 493 156 569 z "},"Ổ":{"ha":1043,"x_min":58,"x_max":983,"o":"m 521 -7 q 332 35 417 -7 q 186 148 247 76 q 92 309 125 219 q 58 493 58 399 q 93 681 58 592 q 191 841 128 771 q 339 952 254 911 q 522 993 424 993 q 711 950 626 993 q 856 835 796 907 q 950 674 917 763 q 983 492 983 585 q 949 303 983 393 q 851 144 914 214 q 704 33 789 74 q 521 -7 619 -7 m 156 493 q 182 338 156 413 q 257 206 208 264 q 373 115 306 149 q 521 81 440 81 q 673 116 606 81 q 788 210 740 151 q 861 343 836 269 q 886 493 886 417 q 860 647 886 574 q 784 779 833 721 q 668 871 735 838 q 521 904 601 904 q 370 869 438 904 q 255 776 303 835 q 181 643 207 717 q 156 493 156 569 z "},"Ỗ":{"ha":1043,"x_min":58,"x_max":983,"o":"m 521 -7 q 332 35 417 -7 q 186 148 247 76 q 92 309 125 219 q 58 493 58 399 q 93 681 58 592 q 191 841 128 771 q 339 952 254 911 q 522 993 424 993 q 711 950 626 993 q 856 835 796 907 q 950 674 917 763 q 983 492 983 585 q 949 303 983 393 q 851 144 914 214 q 704 33 789 74 q 521 -7 619 -7 m 156 493 q 182 338 156 413 q 257 206 208 264 q 373 115 306 149 q 521 81 440 81 q 673 116 606 81 q 788 210 740 151 q 861 343 836 269 q 886 493 886 417 q 860 647 886 574 q 784 779 833 721 q 668 871 735 838 q 521 904 601 904 q 370 869 438 904 q 255 776 303 835 q 181 643 207 717 q 156 493 156 569 z "},"Ȍ":{"ha":1043,"x_min":58,"x_max":983,"o":"m 521 -7 q 332 35 417 -7 q 186 148 247 76 q 92 309 125 219 q 58 493 58 399 q 93 681 58 592 q 191 841 128 771 q 339 952 254 911 q 522 993 424 993 q 711 950 626 993 q 856 835 796 907 q 950 674 917 763 q 983 492 983 585 q 949 303 983 393 q 851 144 914 214 q 704 33 789 74 q 521 -7 619 -7 m 156 493 q 182 338 156 413 q 257 206 208 264 q 373 115 306 149 q 521 81 440 81 q 673 116 606 81 q 788 210 740 151 q 861 343 836 269 q 886 493 886 417 q 860 647 886 574 q 784 779 833 721 q 668 871 735 838 q 521 904 601 904 q 370 869 438 904 q 255 776 303 835 q 181 643 207 717 q 156 493 156 569 m 485 1274 l 572 1274 l 651 1144 l 600 1121 l 485 1274 m 310 1274 l 399 1274 l 478 1144 l 426 1121 l 310 1274 z "},"Ö":{"ha":1043,"x_min":58,"x_max":983,"o":"m 521 -7 q 332 35 417 -7 q 186 148 247 76 q 92 309 125 219 q 58 493 58 399 q 93 681 58 592 q 191 841 128 771 q 339 952 254 911 q 522 993 424 993 q 711 950 626 993 q 856 835 796 907 q 950 674 917 763 q 983 492 983 585 q 949 303 983 393 q 851 144 914 214 q 704 33 789 74 q 521 -7 619 -7 m 156 493 q 182 338 156 413 q 257 206 208 264 q 373 115 306 149 q 521 81 440 81 q 673 116 606 81 q 788 210 740 151 q 861 343 836 269 q 886 493 886 417 q 860 647 886 574 q 784 779 833 721 q 668 871 735 838 q 521 904 601 904 q 370 869 438 904 q 255 776 303 835 q 181 643 207 717 q 156 493 156 569 m 379 1139 l 379 1269 l 460 1269 l 460 1139 l 379 1139 m 586 1139 l 586 1269 l 667 1269 l 667 1139 l 586 1139 z "},"Ȫ":{"ha":1043,"x_min":58,"x_max":983,"o":"m 521 -7 q 332 35 417 -7 q 186 148 247 76 q 92 309 125 219 q 58 493 58 399 q 93 681 58 592 q 191 841 128 771 q 339 952 254 911 q 522 993 424 993 q 711 950 626 993 q 856 835 796 907 q 950 674 917 763 q 983 492 983 585 q 949 303 983 393 q 851 144 914 214 q 704 33 789 74 q 521 -7 619 -7 m 156 493 q 182 338 156 413 q 257 206 208 264 q 373 115 306 149 q 521 81 440 81 q 673 116 606 81 q 788 210 740 151 q 861 343 836 269 q 886 493 886 417 q 860 647 886 574 q 784 779 833 721 q 668 871 735 838 q 521 904 601 904 q 370 869 438 904 q 255 776 303 835 q 181 643 207 717 q 156 493 156 569 m 379 1139 l 379 1269 l 460 1269 l 460 1139 l 379 1139 m 586 1139 l 586 1269 l 667 1269 l 667 1139 l 586 1139 m 322 1457 l 322 1522 l 724 1522 l 724 1457 l 322 1457 z "},"Ȱ":{"ha":1043,"x_min":58,"x_max":983,"o":"m 521 -7 q 332 35 417 -7 q 186 148 247 76 q 92 309 125 219 q 58 493 58 399 q 93 681 58 592 q 191 841 128 771 q 339 952 254 911 q 522 993 424 993 q 711 950 626 993 q 856 835 796 907 q 950 674 917 763 q 983 492 983 585 q 949 303 983 393 q 851 144 914 214 q 704 33 789 74 q 521 -7 619 -7 m 156 493 q 182 338 156 413 q 257 206 208 264 q 373 115 306 149 q 521 81 440 81 q 673 116 606 81 q 788 210 740 151 q 861 343 836 269 q 886 493 886 417 q 860 647 886 574 q 784 779 833 721 q 668 871 735 838 q 521 904 601 904 q 370 869 438 904 q 255 776 303 835 q 181 643 207 717 q 156 493 156 569 m 479 1139 l 479 1274 l 565 1274 l 565 1139 l 479 1139 m 322 1469 l 322 1535 l 724 1535 l 724 1469 l 322 1469 z "},"Ọ":{"ha":1043,"x_min":58,"x_max":983,"o":"m 521 -7 q 332 35 417 -7 q 186 148 247 76 q 92 309 125 219 q 58 493 58 399 q 93 681 58 592 q 191 841 128 771 q 339 952 254 911 q 522 993 424 993 q 711 950 626 993 q 856 835 796 907 q 950 674 917 763 q 983 492 983 585 q 949 303 983 393 q 851 144 914 214 q 704 33 789 74 q 521 -7 619 -7 m 156 493 q 182 338 156 413 q 257 206 208 264 q 373 115 306 149 q 521 81 440 81 q 673 116 606 81 q 788 210 740 151 q 861 343 836 269 q 886 493 886 417 q 860 647 886 574 q 784 779 833 721 q 668 871 735 838 q 521 904 601 904 q 370 869 438 904 q 255 776 303 835 q 181 643 207 717 q 156 493 156 569 m 478 -235 l 478 -100 l 564 -100 l 564 -235 l 478 -235 z "},"Ò":{"ha":1043,"x_min":58,"x_max":983,"o":"m 521 -7 q 332 35 417 -7 q 186 148 247 76 q 92 309 125 219 q 58 493 58 399 q 93 681 58 592 q 191 841 128 771 q 339 952 254 911 q 522 993 424 993 q 711 950 626 993 q 856 835 796 907 q 950 674 917 763 q 983 492 983 585 q 949 303 983 393 q 851 144 914 214 q 704 33 789 74 q 521 -7 619 -7 m 156 493 q 182 338 156 413 q 257 206 208 264 q 373 115 306 149 q 521 81 440 81 q 673 116 606 81 q 788 210 740 151 q 861 343 836 269 q 886 493 886 417 q 860 647 886 574 q 784 779 833 721 q 668 871 735 838 q 521 904 601 904 q 370 869 438 904 q 255 776 303 835 q 181 643 207 717 q 156 493 156 569 m 393 1274 l 492 1274 l 575 1144 l 514 1121 l 393 1274 z "},"Ỏ":{"ha":1043,"x_min":58,"x_max":983,"o":"m 521 -7 q 332 35 417 -7 q 186 148 247 76 q 92 309 125 219 q 58 493 58 399 q 93 681 58 592 q 191 841 128 771 q 339 952 254 911 q 522 993 424 993 q 711 950 626 993 q 856 835 796 907 q 950 674 917 763 q 983 492 983 585 q 949 303 983 393 q 851 144 914 214 q 704 33 789 74 q 521 -7 619 -7 m 156 493 q 182 338 156 413 q 257 206 208 264 q 373 115 306 149 q 521 81 440 81 q 673 116 606 81 q 788 210 740 151 q 861 343 836 269 q 886 493 886 417 q 860 647 886 574 q 784 779 833 721 q 668 871 735 838 q 521 904 601 904 q 370 869 438 904 q 255 776 303 835 q 181 643 207 717 q 156 493 156 569 m 458 1221 l 421 1258 q 472 1293 446 1281 q 531 1306 499 1306 q 600 1279 576 1306 q 624 1218 624 1253 q 606 1163 624 1190 q 553 1104 589 1136 l 524 1138 q 556 1176 547 1160 q 565 1210 565 1193 q 554 1240 565 1228 q 522 1253 543 1253 q 491 1246 504 1253 q 458 1221 478 1239 z "},"Ơ":{"ha":1043,"x_min":58,"x_max":983,"o":"m 521 -7 q 332 35 417 -7 q 186 148 247 76 q 92 309 125 219 q 58 493 58 399 q 93 681 58 592 q 191 841 128 771 q 339 952 254 911 q 522 993 424 993 q 711 950 626 993 q 856 835 796 907 q 950 674 917 763 q 983 492 983 585 q 949 303 983 393 q 851 144 914 214 q 704 33 789 74 q 521 -7 619 -7 m 156 493 q 182 338 156 413 q 257 206 208 264 q 373 115 306 149 q 521 81 440 81 q 673 116 606 81 q 788 210 740 151 q 861 343 836 269 q 886 493 886 417 q 860 647 886 574 q 784 779 833 721 q 668 871 735 838 q 521 904 601 904 q 370 869 438 904 q 255 776 303 835 q 181 643 207 717 q 156 493 156 569 m 600 915 l 601 986 q 674 994 647 986 q 714 1018 700 1003 q 731 1055 726 1035 q 736 1103 735 1075 l 817 1103 q 811 1055 815 1078 q 798 1012 807 1032 q 774 972 789 992 q 731 941 757 954 q 671 922 704 928 q 600 915 638 915 z "},"Ớ":{"ha":1043,"x_min":58,"x_max":983,"o":"m 521 -7 q 332 35 417 -7 q 186 148 247 76 q 92 309 125 219 q 58 493 58 399 q 93 681 58 592 q 191 841 128 771 q 339 952 254 911 q 522 993 424 993 q 711 950 626 993 q 856 835 796 907 q 950 674 917 763 q 983 492 983 585 q 949 303 983 393 q 851 144 914 214 q 704 33 789 74 q 521 -7 619 -7 m 156 493 q 182 338 156 413 q 257 206 208 264 q 373 115 306 149 q 521 81 440 81 q 673 116 606 81 q 788 210 740 151 q 861 343 836 269 q 886 493 886 417 q 860 647 886 574 q 784 779 833 721 q 668 871 735 838 q 521 904 601 904 q 370 869 438 904 q 255 776 303 835 q 181 643 207 717 q 156 493 156 569 m 600 915 l 601 986 q 674 994 647 986 q 714 1018 700 1003 q 731 1055 726 1035 q 736 1103 735 1075 l 817 1103 q 811 1055 815 1078 q 798 1012 807 1032 q 774 972 789 992 q 731 941 757 954 q 671 922 704 928 q 600 915 638 915 m 556 1121 l 493 1144 l 575 1274 l 675 1274 l 556 1121 z "},"Ợ":{"ha":1043,"x_min":58,"x_max":983,"o":"m 521 -7 q 332 35 417 -7 q 186 148 247 76 q 92 309 125 219 q 58 493 58 399 q 93 681 58 592 q 191 841 128 771 q 339 952 254 911 q 522 993 424 993 q 711 950 626 993 q 856 835 796 907 q 950 674 917 763 q 983 492 983 585 q 949 303 983 393 q 851 144 914 214 q 704 33 789 74 q 521 -7 619 -7 m 156 493 q 182 338 156 413 q 257 206 208 264 q 373 115 306 149 q 521 81 440 81 q 673 116 606 81 q 788 210 740 151 q 861 343 836 269 q 886 493 886 417 q 860 647 886 574 q 784 779 833 721 q 668 871 735 838 q 521 904 601 904 q 370 869 438 904 q 255 776 303 835 q 181 643 207 717 q 156 493 156 569 m 600 915 l 601 986 q 674 994 647 986 q 714 1018 700 1003 q 731 1055 726 1035 q 736 1103 735 1075 l 817 1103 q 811 1055 815 1078 q 798 1012 807 1032 q 774 972 789 992 q 731 941 757 954 q 671 922 704 928 q 600 915 638 915 m 478 -235 l 478 -100 l 564 -100 l 564 -235 l 478 -235 z "},"Ờ":{"ha":1043,"x_min":58,"x_max":983,"o":"m 521 -7 q 332 35 417 -7 q 186 148 247 76 q 92 309 125 219 q 58 493 58 399 q 93 681 58 592 q 191 841 128 771 q 339 952 254 911 q 522 993 424 993 q 711 950 626 993 q 856 835 796 907 q 950 674 917 763 q 983 492 983 585 q 949 303 983 393 q 851 144 914 214 q 704 33 789 74 q 521 -7 619 -7 m 156 493 q 182 338 156 413 q 257 206 208 264 q 373 115 306 149 q 521 81 440 81 q 673 116 606 81 q 788 210 740 151 q 861 343 836 269 q 886 493 886 417 q 860 647 886 574 q 784 779 833 721 q 668 871 735 838 q 521 904 601 904 q 370 869 438 904 q 255 776 303 835 q 181 643 207 717 q 156 493 156 569 m 600 915 l 601 986 q 674 994 647 986 q 714 1018 700 1003 q 731 1055 726 1035 q 736 1103 735 1075 l 817 1103 q 811 1055 815 1078 q 798 1012 807 1032 q 774 972 789 992 q 731 941 757 954 q 671 922 704 928 q 600 915 638 915 m 393 1274 l 492 1274 l 575 1144 l 514 1121 l 393 1274 z "},"Ở":{"ha":1043,"x_min":58,"x_max":983,"o":"m 521 -7 q 332 35 417 -7 q 186 148 247 76 q 92 309 125 219 q 58 493 58 399 q 93 681 58 592 q 191 841 128 771 q 339 952 254 911 q 522 993 424 993 q 711 950 626 993 q 856 835 796 907 q 950 674 917 763 q 983 492 983 585 q 949 303 983 393 q 851 144 914 214 q 704 33 789 74 q 521 -7 619 -7 m 156 493 q 182 338 156 413 q 257 206 208 264 q 373 115 306 149 q 521 81 440 81 q 673 116 606 81 q 788 210 740 151 q 861 343 836 269 q 886 493 886 417 q 860 647 886 574 q 784 779 833 721 q 668 871 735 838 q 521 904 601 904 q 370 869 438 904 q 255 776 303 835 q 181 643 207 717 q 156 493 156 569 m 600 915 l 601 986 q 674 994 647 986 q 714 1018 700 1003 q 731 1055 726 1035 q 736 1103 735 1075 l 817 1103 q 811 1055 815 1078 q 798 1012 807 1032 q 774 972 789 992 q 731 941 757 954 q 671 922 704 928 q 600 915 638 915 m 458 1221 l 421 1258 q 472 1293 446 1281 q 531 1306 499 1306 q 600 1279 576 1306 q 624 1218 624 1253 q 606 1163 624 1190 q 553 1104 589 1136 l 524 1138 q 556 1176 547 1160 q 565 1210 565 1193 q 554 1240 565 1228 q 522 1253 543 1253 q 491 1246 504 1253 q 458 1221 478 1239 z "},"Ỡ":{"ha":1043,"x_min":58,"x_max":983,"o":"m 521 -7 q 332 35 417 -7 q 186 148 247 76 q 92 309 125 219 q 58 493 58 399 q 93 681 58 592 q 191 841 128 771 q 339 952 254 911 q 522 993 424 993 q 711 950 626 993 q 856 835 796 907 q 950 674 917 763 q 983 492 983 585 q 949 303 983 393 q 851 144 914 214 q 704 33 789 74 q 521 -7 619 -7 m 156 493 q 182 338 156 413 q 257 206 208 264 q 373 115 306 149 q 521 81 440 81 q 673 116 606 81 q 788 210 740 151 q 861 343 836 269 q 886 493 886 417 q 860 647 886 574 q 784 779 833 721 q 668 871 735 838 q 521 904 601 904 q 370 869 438 904 q 255 776 303 835 q 181 643 207 717 q 156 493 156 569 m 600 915 l 601 986 q 674 994 647 986 q 714 1018 700 1003 q 731 1055 726 1035 q 736 1103 735 1075 l 817 1103 q 811 1055 815 1078 q 798 1012 807 1032 q 774 972 789 992 q 731 941 757 954 q 671 922 704 928 q 600 915 638 915 m 607 1146 q 536 1160 565 1146 q 483 1188 507 1174 q 429 1201 460 1201 q 384 1187 399 1201 q 365 1156 369 1172 q 360 1135 360 1139 l 301 1135 q 306 1163 301 1142 q 325 1206 311 1183 q 363 1247 339 1229 q 428 1264 388 1264 q 494 1249 467 1264 q 547 1220 521 1235 q 606 1206 572 1206 q 658 1222 642 1206 q 680 1254 675 1238 q 685 1274 685 1271 l 743 1274 q 738 1247 743 1267 q 717 1203 732 1226 q 676 1163 703 1179 q 607 1146 649 1146 z "},"Ő":{"ha":1043,"x_min":58,"x_max":983,"o":"m 521 -7 q 332 35 417 -7 q 186 148 247 76 q 92 309 125 219 q 58 493 58 399 q 93 681 58 592 q 191 841 128 771 q 339 952 254 911 q 522 993 424 993 q 711 950 626 993 q 856 835 796 907 q 950 674 917 763 q 983 492 983 585 q 949 303 983 393 q 851 144 914 214 q 704 33 789 74 q 521 -7 619 -7 m 156 493 q 182 338 156 413 q 257 206 208 264 q 373 115 306 149 q 521 81 440 81 q 673 116 606 81 q 788 210 740 151 q 861 343 836 269 q 886 493 886 417 q 860 647 886 574 q 784 779 833 721 q 668 871 735 838 q 521 904 601 904 q 370 869 438 904 q 255 776 303 835 q 181 643 207 717 q 156 493 156 569 m 435 1121 l 383 1144 l 463 1274 l 551 1274 l 435 1121 m 610 1121 l 557 1144 l 636 1274 l 725 1274 l 610 1121 z "},"Ȏ":{"ha":1043,"x_min":58,"x_max":983,"o":"m 521 -7 q 332 35 417 -7 q 186 148 247 76 q 92 309 125 219 q 58 493 58 399 q 93 681 58 592 q 191 841 128 771 q 339 952 254 911 q 522 993 424 993 q 711 950 626 993 q 856 835 796 907 q 950 674 917 763 q 983 492 983 585 q 949 303 983 393 q 851 144 914 214 q 704 33 789 74 q 521 -7 619 -7 m 156 493 q 182 338 156 413 q 257 206 208 264 q 373 115 306 149 q 521 81 440 81 q 673 116 606 81 q 788 210 740 151 q 861 343 836 269 q 886 493 886 417 q 860 647 886 574 q 784 779 833 721 q 668 871 735 838 q 521 904 601 904 q 370 869 438 904 q 255 776 303 835 q 181 643 207 717 q 156 493 156 569 m 522 1225 q 468 1197 492 1225 q 444 1133 444 1169 l 386 1133 q 426 1233 386 1192 q 522 1274 465 1274 q 619 1233 579 1274 q 658 1133 658 1192 l 601 1133 q 574 1199 597 1172 q 522 1225 551 1225 z "},"Ō":{"ha":1043,"x_min":58,"x_max":983,"o":"m 521 -7 q 332 35 417 -7 q 186 148 247 76 q 92 309 125 219 q 58 493 58 399 q 93 681 58 592 q 191 841 128 771 q 339 952 254 911 q 522 993 424 993 q 711 950 626 993 q 856 835 796 907 q 950 674 917 763 q 983 492 983 585 q 949 303 983 393 q 851 144 914 214 q 704 33 789 74 q 521 -7 619 -7 m 156 493 q 182 338 156 413 q 257 206 208 264 q 373 115 306 149 q 521 81 440 81 q 673 116 606 81 q 788 210 740 151 q 861 343 836 269 q 886 493 886 417 q 860 647 886 574 q 784 779 833 721 q 668 871 735 838 q 521 904 601 904 q 370 869 438 904 q 255 776 303 835 q 181 643 207 717 q 156 493 156 569 m 322 1181 l 322 1246 l 724 1246 l 724 1181 l 322 1181 z "},"Ṓ":{"ha":1043,"x_min":58,"x_max":983,"o":"m 521 -7 q 332 35 417 -7 q 186 148 247 76 q 92 309 125 219 q 58 493 58 399 q 93 681 58 592 q 191 841 128 771 q 339 952 254 911 q 522 993 424 993 q 711 950 626 993 q 856 835 796 907 q 950 674 917 763 q 983 492 983 585 q 949 303 983 393 q 851 144 914 214 q 704 33 789 74 q 521 -7 619 -7 m 156 493 q 182 338 156 413 q 257 206 208 264 q 373 115 306 149 q 521 81 440 81 q 673 116 606 81 q 788 210 740 151 q 861 343 836 269 q 886 493 886 417 q 860 647 886 574 q 784 779 833 721 q 668 871 735 838 q 521 904 601 904 q 370 869 438 904 q 255 776 303 835 q 181 643 207 717 q 156 493 156 569 m 322 1181 l 322 1246 l 724 1246 l 724 1181 l 322 1181 m 556 1383 l 493 1407 l 575 1536 l 675 1536 l 556 1383 z "},"Ṑ":{"ha":1043,"x_min":58,"x_max":983,"o":"m 521 -7 q 332 35 417 -7 q 186 148 247 76 q 92 309 125 219 q 58 493 58 399 q 93 681 58 592 q 191 841 128 771 q 339 952 254 911 q 522 993 424 993 q 711 950 626 993 q 856 835 796 907 q 950 674 917 763 q 983 492 983 585 q 949 303 983 393 q 851 144 914 214 q 704 33 789 74 q 521 -7 619 -7 m 156 493 q 182 338 156 413 q 257 206 208 264 q 373 115 306 149 q 521 81 440 81 q 673 116 606 81 q 788 210 740 151 q 861 343 836 269 q 886 493 886 417 q 860 647 886 574 q 784 779 833 721 q 668 871 735 838 q 521 904 601 904 q 370 869 438 904 q 255 776 303 835 q 181 643 207 717 q 156 493 156 569 m 322 1181 l 322 1246 l 724 1246 l 724 1181 l 322 1181 m 394 1536 l 493 1536 l 576 1407 l 515 1383 l 394 1536 z "},"Ǫ":{"ha":1043,"x_min":58,"x_max":983,"o":"m 521 -7 q 332 35 417 -7 q 186 148 247 76 q 92 309 125 219 q 58 493 58 399 q 93 681 58 592 q 191 841 128 771 q 339 952 254 911 q 522 993 424 993 q 711 950 626 993 q 856 835 796 907 q 950 674 917 763 q 983 492 983 585 q 949 303 983 393 q 851 144 914 214 q 704 33 789 74 q 521 -7 619 -7 m 156 493 q 182 338 156 413 q 257 206 208 264 q 373 115 306 149 q 521 81 440 81 q 673 116 606 81 q 788 210 740 151 q 861 343 836 269 q 886 493 886 417 q 860 647 886 574 q 784 779 833 721 q 668 871 735 838 q 521 904 601 904 q 370 869 438 904 q 255 776 303 835 q 181 643 207 717 q 156 493 156 569 m 443 -139 q 474 -55 443 -96 q 568 29 506 -14 l 594 29 l 618 7 q 535 -67 561 -36 q 510 -126 510 -99 q 537 -165 510 -153 q 615 -183 564 -178 l 592 -246 q 499 -223 532 -239 q 455 -185 467 -207 q 443 -139 443 -162 z "},"Ø":{"ha":1043,"x_min":58,"x_max":983,"o":"m 521 -7 q 332 35 417 -7 q 186 148 247 76 q 92 309 125 219 q 58 493 58 399 q 93 681 58 592 q 191 841 128 771 q 339 952 254 911 q 522 993 424 993 q 711 950 626 993 q 856 835 796 907 q 950 674 917 763 q 983 492 983 585 q 949 303 983 393 q 851 144 914 214 q 704 33 789 74 q 521 -7 619 -7 m 156 493 q 182 338 156 413 q 257 206 208 264 q 373 115 306 149 q 521 81 440 81 q 673 116 606 81 q 788 210 740 151 q 861 343 836 269 q 886 493 886 417 q 860 647 886 574 q 784 779 833 721 q 668 871 735 838 q 521 904 601 904 q 370 869 438 904 q 255 776 303 835 q 181 643 207 717 q 156 493 156 569 m 903 986 l 247 0 l 140 0 l 796 986 l 903 986 z "},"Ǿ":{"ha":1043,"x_min":58,"x_max":983,"o":"m 521 -7 q 332 35 417 -7 q 186 148 247 76 q 92 309 125 219 q 58 493 58 399 q 93 681 58 592 q 191 841 128 771 q 339 952 254 911 q 522 993 424 993 q 711 950 626 993 q 856 835 796 907 q 950 674 917 763 q 983 492 983 585 q 949 303 983 393 q 851 144 914 214 q 704 33 789 74 q 521 -7 619 -7 m 156 493 q 182 338 156 413 q 257 206 208 264 q 373 115 306 149 q 521 81 440 81 q 673 116 606 81 q 788 210 740 151 q 861 343 836 269 q 886 493 886 417 q 860 647 886 574 q 784 779 833 721 q 668 871 735 838 q 521 904 601 904 q 370 869 438 904 q 255 776 303 835 q 181 643 207 717 q 156 493 156 569 m 903 986 l 247 0 l 140 0 l 796 986 l 903 986 m 556 1121 l 493 1144 l 575 1274 l 675 1274 l 556 1121 z "},"Õ":{"ha":1043,"x_min":58,"x_max":983,"o":"m 521 -7 q 332 35 417 -7 q 186 148 247 76 q 92 309 125 219 q 58 493 58 399 q 93 681 58 592 q 191 841 128 771 q 339 952 254 911 q 522 993 424 993 q 711 950 626 993 q 856 835 796 907 q 950 674 917 763 q 983 492 983 585 q 949 303 983 393 q 851 144 914 214 q 704 33 789 74 q 521 -7 619 -7 m 156 493 q 182 338 156 413 q 257 206 208 264 q 373 115 306 149 q 521 81 440 81 q 673 116 606 81 q 788 210 740 151 q 861 343 836 269 q 886 493 886 417 q 860 647 886 574 q 784 779 833 721 q 668 871 735 838 q 521 904 601 904 q 370 869 438 904 q 255 776 303 835 q 181 643 207 717 q 156 493 156 569 m 607 1146 q 536 1160 565 1146 q 483 1188 507 1174 q 429 1201 460 1201 q 384 1187 399 1201 q 365 1156 369 1172 q 360 1135 360 1139 l 301 1135 q 306 1163 301 1142 q 325 1206 311 1183 q 363 1247 339 1229 q 428 1264 388 1264 q 494 1249 467 1264 q 547 1220 521 1235 q 606 1206 572 1206 q 658 1222 642 1206 q 680 1254 675 1238 q 685 1274 685 1271 l 743 1274 q 738 1247 743 1267 q 717 1203 732 1226 q 676 1163 703 1179 q 607 1146 649 1146 z "},"Ṍ":{"ha":1043,"x_min":58,"x_max":983,"o":"m 521 -7 q 332 35 417 -7 q 186 148 247 76 q 92 309 125 219 q 58 493 58 399 q 93 681 58 592 q 191 841 128 771 q 339 952 254 911 q 522 993 424 993 q 711 950 626 993 q 856 835 796 907 q 950 674 917 763 q 983 492 983 585 q 949 303 983 393 q 851 144 914 214 q 704 33 789 74 q 521 -7 619 -7 m 156 493 q 182 338 156 413 q 257 206 208 264 q 373 115 306 149 q 521 81 440 81 q 673 116 606 81 q 788 210 740 151 q 861 343 836 269 q 886 493 886 417 q 860 647 886 574 q 784 779 833 721 q 668 871 735 838 q 521 904 601 904 q 370 869 438 904 q 255 776 303 835 q 181 643 207 717 q 156 493 156 569 m 607 1146 q 536 1160 565 1146 q 483 1188 507 1174 q 429 1201 460 1201 q 384 1187 399 1201 q 365 1156 369 1172 q 360 1135 360 1139 l 301 1135 q 306 1163 301 1142 q 325 1206 311 1183 q 363 1247 339 1229 q 428 1264 388 1264 q 494 1249 467 1264 q 547 1220 521 1235 q 606 1206 572 1206 q 658 1222 642 1206 q 680 1254 675 1238 q 685 1274 685 1271 l 743 1274 q 738 1247 743 1267 q 717 1203 732 1226 q 676 1163 703 1179 q 607 1146 649 1146 m 556 1410 l 493 1433 l 575 1563 l 675 1563 l 556 1410 z "},"Ṏ":{"ha":1043,"x_min":58,"x_max":983,"o":"m 521 -7 q 332 35 417 -7 q 186 148 247 76 q 92 309 125 219 q 58 493 58 399 q 93 681 58 592 q 191 841 128 771 q 339 952 254 911 q 522 993 424 993 q 711 950 626 993 q 856 835 796 907 q 950 674 917 763 q 983 492 983 585 q 949 303 983 393 q 851 144 914 214 q 704 33 789 74 q 521 -7 619 -7 m 156 493 q 182 338 156 413 q 257 206 208 264 q 373 115 306 149 q 521 81 440 81 q 673 116 606 81 q 788 210 740 151 q 861 343 836 269 q 886 493 886 417 q 860 647 886 574 q 784 779 833 721 q 668 871 735 838 q 521 904 601 904 q 370 869 438 904 q 255 776 303 835 q 181 643 207 717 q 156 493 156 569 m 607 1146 q 536 1160 565 1146 q 483 1188 507 1174 q 429 1201 460 1201 q 384 1187 399 1201 q 365 1156 369 1172 q 360 1135 360 1139 l 301 1135 q 306 1163 301 1142 q 325 1206 311 1183 q 363 1247 339 1229 q 428 1264 388 1264 q 494 1249 467 1264 q 547 1220 521 1235 q 606 1206 572 1206 q 658 1222 642 1206 q 680 1254 675 1238 q 685 1274 685 1271 l 743 1274 q 738 1247 743 1267 q 717 1203 732 1226 q 676 1163 703 1179 q 607 1146 649 1146 m 379 1429 l 379 1560 l 460 1560 l 460 1429 l 379 1429 m 586 1429 l 586 1560 l 667 1560 l 667 1429 l 586 1429 z "},"Ȭ":{"ha":1043,"x_min":58,"x_max":983,"o":"m 521 -7 q 332 35 417 -7 q 186 148 247 76 q 92 309 125 219 q 58 493 58 399 q 93 681 58 592 q 191 841 128 771 q 339 952 254 911 q 522 993 424 993 q 711 950 626 993 q 856 835 796 907 q 950 674 917 763 q 983 492 983 585 q 949 303 983 393 q 851 144 914 214 q 704 33 789 74 q 521 -7 619 -7 m 156 493 q 182 338 156 413 q 257 206 208 264 q 373 115 306 149 q 521 81 440 81 q 673 116 606 81 q 788 210 740 151 q 861 343 836 269 q 886 493 886 417 q 860 647 886 574 q 784 779 833 721 q 668 871 735 838 q 521 904 601 904 q 370 869 438 904 q 255 776 303 835 q 181 643 207 717 q 156 493 156 569 m 607 1146 q 536 1160 565 1146 q 483 1188 507 1174 q 429 1201 460 1201 q 384 1187 399 1201 q 365 1156 369 1172 q 360 1135 360 1139 l 301 1135 q 306 1163 301 1142 q 325 1206 311 1183 q 363 1247 339 1229 q 428 1264 388 1264 q 494 1249 467 1264 q 547 1220 521 1235 q 606 1206 572 1206 q 658 1222 642 1206 q 680 1254 675 1238 q 685 1274 685 1271 l 743 1274 q 738 1247 743 1267 q 717 1203 732 1226 q 676 1163 703 1179 q 607 1146 649 1146 m 322 1469 l 322 1535 l 724 1535 l 724 1469 l 322 1469 z "},"Œ":{"ha":1601,"x_min":58,"x_max":1544,"o":"m 1544 86 l 1544 0 l 889 0 l 889 250 q 803 119 858 176 q 677 27 749 61 q 522 -7 606 -7 q 334 35 419 -7 q 187 148 249 76 q 92 309 125 219 q 58 493 58 399 q 93 681 58 592 q 191 841 128 771 q 339 952 254 911 q 522 993 424 993 q 681 959 608 993 q 806 866 753 925 q 889 736 858 807 l 889 986 l 1532 986 l 1532 900 l 986 900 l 986 546 l 1457 546 l 1457 460 l 986 460 l 986 86 l 1544 86 m 522 81 q 673 116 606 81 q 788 210 740 151 q 861 344 836 269 q 886 494 886 418 q 860 649 886 575 q 784 780 833 722 q 668 872 735 838 q 521 906 601 906 q 370 870 438 906 q 255 776 303 835 q 181 643 207 717 q 156 493 156 569 q 182 338 156 413 q 257 206 208 264 q 373 115 306 149 q 522 81 440 81 z "},"P":{"ha":864,"x_min":124,"x_max":825,"o":"m 124 0 l 124 986 l 532 986 q 649 960 596 986 q 742 888 703 933 q 803 788 781 843 q 825 676 825 733 q 790 524 825 596 q 690 408 754 453 q 540 364 626 364 l 221 364 l 221 0 l 124 0 m 221 450 l 536 450 q 638 482 594 450 q 704 565 681 514 q 728 676 728 617 q 700 789 728 738 q 627 870 672 840 q 528 900 582 900 l 221 900 l 221 450 z "},"Þ":{"ha":838,"x_min":124,"x_max":799,"o":"m 506 790 q 624 764 571 790 q 716 693 676 738 q 777 593 756 649 q 799 479 799 538 q 763 328 799 400 q 664 213 728 257 q 515 168 600 168 l 221 168 l 221 0 l 124 0 l 124 986 l 221 986 l 221 790 l 506 790 m 511 256 q 613 288 571 256 q 679 372 656 319 q 703 481 703 424 q 676 591 703 540 q 603 673 649 642 q 503 704 557 704 l 221 704 l 221 256 l 511 256 z "},"Q":{"ha":1040,"x_min":58,"x_max":983,"o":"m 521 -7 q 332 35 417 -7 q 186 149 247 78 q 92 309 125 219 q 58 493 58 399 q 93 681 58 592 q 191 841 128 771 q 339 952 254 911 q 522 993 424 993 q 711 950 626 993 q 856 835 796 907 q 950 674 917 763 q 983 492 983 585 q 949 303 983 393 q 851 144 914 214 q 704 33 789 74 q 521 -7 619 -7 m 521 81 q 673 116 606 81 q 788 210 740 151 q 861 343 836 269 q 886 493 886 417 q 860 648 886 574 q 784 780 833 722 q 668 872 735 838 q 521 906 601 906 q 370 870 438 906 q 255 776 303 835 q 181 643 207 717 q 156 493 156 569 q 182 338 156 413 q 257 206 208 264 q 373 115 306 149 q 521 81 440 81 m 610 303 l 706 303 l 961 0 l 865 0 l 610 303 z "},"R":{"ha":907,"x_min":124,"x_max":854,"o":"m 124 0 l 124 986 l 540 986 q 657 960 604 986 q 749 888 710 933 q 810 788 789 843 q 832 676 832 733 q 805 543 832 606 q 728 438 778 481 q 613 381 679 394 l 854 0 l 744 0 l 513 364 l 221 364 l 221 0 l 124 0 m 221 450 l 543 450 q 644 482 601 450 q 711 566 688 514 q 735 676 735 618 q 708 787 735 736 q 635 869 681 838 q 535 900 590 900 l 221 900 l 221 450 z "},"Ŕ":{"ha":907,"x_min":124,"x_max":854,"o":"m 124 0 l 124 986 l 540 986 q 657 960 604 986 q 749 888 710 933 q 810 788 789 843 q 832 676 832 733 q 805 543 832 606 q 728 438 778 481 q 613 381 679 394 l 854 0 l 744 0 l 513 364 l 221 364 l 221 0 l 124 0 m 221 450 l 543 450 q 644 482 601 450 q 711 566 688 514 q 735 676 735 618 q 708 787 735 736 q 635 869 681 838 q 535 900 590 900 l 221 900 l 221 450 m 456 1124 l 393 1147 l 475 1276 l 575 1276 l 456 1124 z "},"Ř":{"ha":907,"x_min":124,"x_max":854,"o":"m 124 0 l 124 986 l 540 986 q 657 960 604 986 q 749 888 710 933 q 810 788 789 843 q 832 676 832 733 q 805 543 832 606 q 728 438 778 481 q 613 381 679 394 l 854 0 l 744 0 l 513 364 l 221 364 l 221 0 l 124 0 m 221 450 l 543 450 q 644 482 601 450 q 711 566 688 514 q 735 676 735 618 q 708 787 735 736 q 635 869 681 838 q 535 900 590 900 l 221 900 l 221 450 m 304 1276 l 422 1189 l 540 1276 l 594 1249 l 457 1129 l 388 1129 l 251 1249 l 304 1276 z "},"Ŗ":{"ha":907,"x_min":124,"x_max":854,"o":"m 124 0 l 124 986 l 540 986 q 657 960 604 986 q 749 888 710 933 q 810 788 789 843 q 832 676 832 733 q 805 543 832 606 q 728 438 778 481 q 613 381 679 394 l 854 0 l 744 0 l 513 364 l 221 364 l 221 0 l 124 0 m 221 450 l 543 450 q 644 482 601 450 q 711 566 688 514 q 735 676 735 618 q 708 787 735 736 q 635 869 681 838 q 535 900 590 900 l 221 900 l 221 450 m 411 -276 l 435 -174 l 407 -174 l 407 -68 l 494 -68 l 494 -174 l 460 -276 l 411 -276 z "},"Ȑ":{"ha":907,"x_min":124,"x_max":854,"o":"m 124 0 l 124 986 l 540 986 q 657 960 604 986 q 749 888 710 933 q 810 788 789 843 q 832 676 832 733 q 805 543 832 606 q 728 438 778 481 q 613 381 679 394 l 854 0 l 744 0 l 513 364 l 221 364 l 221 0 l 124 0 m 221 450 l 543 450 q 644 482 601 450 q 711 566 688 514 q 735 676 735 618 q 708 787 735 736 q 635 869 681 838 q 535 900 590 900 l 221 900 l 221 450 m 385 1278 l 472 1278 l 551 1149 l 500 1125 l 385 1278 m 210 1278 l 299 1278 l 378 1149 l 326 1125 l 210 1278 z "},"Ṛ":{"ha":907,"x_min":124,"x_max":854,"o":"m 124 0 l 124 986 l 540 986 q 657 960 604 986 q 749 888 710 933 q 810 788 789 843 q 832 676 832 733 q 805 543 832 606 q 728 438 778 481 q 613 381 679 394 l 854 0 l 744 0 l 513 364 l 221 364 l 221 0 l 124 0 m 221 450 l 543 450 q 644 482 601 450 q 711 566 688 514 q 735 676 735 618 q 708 787 735 736 q 635 869 681 838 q 535 900 590 900 l 221 900 l 221 450 m 411 -235 l 411 -100 l 497 -100 l 497 -235 l 411 -235 z "},"Ȓ":{"ha":907,"x_min":124,"x_max":854,"o":"m 124 0 l 124 986 l 540 986 q 657 960 604 986 q 749 888 710 933 q 810 788 789 843 q 832 676 832 733 q 805 543 832 606 q 728 438 778 481 q 613 381 679 394 l 854 0 l 744 0 l 513 364 l 221 364 l 221 0 l 124 0 m 221 450 l 543 450 q 644 482 601 450 q 711 566 688 514 q 735 676 735 618 q 708 787 735 736 q 635 869 681 838 q 535 900 590 900 l 221 900 l 221 450 m 424 1228 q 369 1200 393 1228 q 346 1136 346 1172 l 288 1136 q 327 1235 288 1194 q 424 1276 367 1276 q 520 1235 481 1276 q 560 1136 560 1194 l 503 1136 q 476 1201 499 1175 q 424 1228 453 1228 z "},"Ṟ":{"ha":907,"x_min":124,"x_max":854,"o":"m 124 0 l 124 986 l 540 986 q 657 960 604 986 q 749 888 710 933 q 810 788 789 843 q 832 676 832 733 q 805 543 832 606 q 728 438 778 481 q 613 381 679 394 l 854 0 l 744 0 l 513 364 l 221 364 l 221 0 l 124 0 m 221 450 l 543 450 q 644 482 601 450 q 711 566 688 514 q 735 676 735 618 q 708 787 735 736 q 635 869 681 838 q 535 900 590 900 l 221 900 l 221 450 m 254 -179 l 254 -114 l 656 -114 l 656 -179 l 254 -179 z "},"S":{"ha":843,"x_min":44,"x_max":796,"o":"m 700 801 q 651 844 679 825 q 589 876 624 863 q 515 899 554 890 q 431 907 475 907 q 241 858 301 907 q 181 724 181 808 q 209 632 181 665 q 299 578 238 599 q 454 535 360 557 q 636 482 560 513 q 754 399 713 451 q 796 258 796 347 q 769 140 796 190 q 696 57 743 90 q 583 8 649 24 q 440 -8 518 -8 q 294 8 364 -8 q 161 55 224 24 q 44 135 99 86 l 93 214 q 156 162 119 186 q 238 118 193 138 q 335 88 283 99 q 443 78 388 78 q 627 121 561 78 q 693 249 693 164 q 660 347 693 310 q 560 407 626 383 q 396 453 493 431 q 222 506 293 476 q 116 583 151 535 q 81 710 81 631 q 126 865 81 801 q 250 960 171 928 q 432 993 329 993 q 553 980 497 993 q 658 942 610 967 q 747 879 706 917 l 700 801 z "},"Ś":{"ha":843,"x_min":44,"x_max":796,"o":"m 700 801 q 651 844 679 825 q 589 876 624 863 q 515 899 554 890 q 431 907 475 907 q 241 858 301 907 q 181 724 181 808 q 209 632 181 665 q 299 578 238 599 q 454 535 360 557 q 636 482 560 513 q 754 399 713 451 q 796 258 796 347 q 769 140 796 190 q 696 57 743 90 q 583 8 649 24 q 440 -8 518 -8 q 294 8 364 -8 q 161 55 224 24 q 44 135 99 86 l 93 214 q 156 162 119 186 q 238 118 193 138 q 335 88 283 99 q 443 78 388 78 q 627 121 561 78 q 693 249 693 164 q 660 347 693 310 q 560 407 626 383 q 396 453 493 431 q 222 506 293 476 q 116 583 151 535 q 81 710 81 631 q 126 865 81 801 q 250 960 171 928 q 432 993 329 993 q 553 980 497 993 q 658 942 610 967 q 747 879 706 917 l 700 801 m 468 1142 l 406 1165 l 488 1294 l 588 1294 l 468 1142 z "},"Ṥ":{"ha":843,"x_min":44,"x_max":796,"o":"m 700 801 q 651 844 679 825 q 589 876 624 863 q 515 899 554 890 q 431 907 475 907 q 241 858 301 907 q 181 724 181 808 q 209 632 181 665 q 299 578 238 599 q 454 535 360 557 q 636 482 560 513 q 754 399 713 451 q 796 258 796 347 q 769 140 796 190 q 696 57 743 90 q 583 8 649 24 q 440 -8 518 -8 q 294 8 364 -8 q 161 55 224 24 q 44 135 99 86 l 93 214 q 156 162 119 186 q 238 118 193 138 q 335 88 283 99 q 443 78 388 78 q 627 121 561 78 q 693 249 693 164 q 660 347 693 310 q 560 407 626 383 q 396 453 493 431 q 222 506 293 476 q 116 583 151 535 q 81 710 81 631 q 126 865 81 801 q 250 960 171 928 q 432 993 329 993 q 553 980 497 993 q 658 942 610 967 q 747 879 706 917 l 700 801 m 468 1142 l 406 1165 l 488 1294 l 588 1294 l 468 1142 m 453 1450 l 453 1585 l 539 1585 l 539 1450 l 453 1450 z "},"Š":{"ha":843,"x_min":44,"x_max":796,"o":"m 700 801 q 651 844 679 825 q 589 876 624 863 q 515 899 554 890 q 431 907 475 907 q 241 858 301 907 q 181 724 181 808 q 209 632 181 665 q 299 578 238 599 q 454 535 360 557 q 636 482 560 513 q 754 399 713 451 q 796 258 796 347 q 769 140 796 190 q 696 57 743 90 q 583 8 649 24 q 440 -8 518 -8 q 294 8 364 -8 q 161 55 224 24 q 44 135 99 86 l 93 214 q 156 162 119 186 q 238 118 193 138 q 335 88 283 99 q 443 78 388 78 q 627 121 561 78 q 693 249 693 164 q 660 347 693 310 q 560 407 626 383 q 396 453 493 431 q 222 506 293 476 q 116 583 151 535 q 81 710 81 631 q 126 865 81 801 q 250 960 171 928 q 432 993 329 993 q 553 980 497 993 q 658 942 610 967 q 747 879 706 917 l 700 801 m 318 1294 l 436 1207 l 554 1294 l 608 1267 l 471 1147 l 401 1147 l 265 1267 l 318 1294 z "},"Ṧ":{"ha":843,"x_min":44,"x_max":796,"o":"m 700 801 q 651 844 679 825 q 589 876 624 863 q 515 899 554 890 q 431 907 475 907 q 241 858 301 907 q 181 724 181 808 q 209 632 181 665 q 299 578 238 599 q 454 535 360 557 q 636 482 560 513 q 754 399 713 451 q 796 258 796 347 q 769 140 796 190 q 696 57 743 90 q 583 8 649 24 q 440 -8 518 -8 q 294 8 364 -8 q 161 55 224 24 q 44 135 99 86 l 93 214 q 156 162 119 186 q 238 118 193 138 q 335 88 283 99 q 443 78 388 78 q 627 121 561 78 q 693 249 693 164 q 660 347 693 310 q 560 407 626 383 q 396 453 493 431 q 222 506 293 476 q 116 583 151 535 q 81 710 81 631 q 126 865 81 801 q 250 960 171 928 q 432 993 329 993 q 553 980 497 993 q 658 942 610 967 q 747 879 706 917 l 700 801 m 318 1294 l 436 1207 l 554 1294 l 608 1267 l 471 1147 l 401 1147 l 265 1267 l 318 1294 m 393 1450 l 393 1585 l 479 1585 l 479 1450 l 393 1450 z "},"Ş":{"ha":843,"x_min":44,"x_max":796,"o":"m 700 801 q 651 844 679 825 q 589 876 624 863 q 515 899 554 890 q 431 907 475 907 q 241 858 301 907 q 181 724 181 808 q 209 632 181 665 q 299 578 238 599 q 454 535 360 557 q 636 482 560 513 q 754 399 713 451 q 796 258 796 347 q 769 140 796 190 q 696 57 743 90 q 583 8 649 24 q 440 -8 518 -8 q 294 8 364 -8 q 161 55 224 24 q 44 135 99 86 l 93 214 q 156 162 119 186 q 238 118 193 138 q 335 88 283 99 q 443 78 388 78 q 627 121 561 78 q 693 249 693 164 q 660 347 693 310 q 560 407 626 383 q 396 453 493 431 q 222 506 293 476 q 116 583 151 535 q 81 710 81 631 q 126 865 81 801 q 250 960 171 928 q 432 993 329 993 q 553 980 497 993 q 658 942 610 967 q 747 879 706 917 l 700 801 m 422 -250 q 345 -240 388 -250 q 264 -211 303 -231 l 292 -157 q 347 -179 321 -171 q 407 -187 374 -187 q 478 -170 453 -187 q 503 -117 503 -153 q 478 -53 503 -81 q 406 0 453 -26 l 446 26 q 533 -42 500 -7 q 567 -132 567 -78 q 528 -219 567 -187 q 422 -250 489 -250 z "},"Ŝ":{"ha":843,"x_min":44,"x_max":796,"o":"m 700 801 q 651 844 679 825 q 589 876 624 863 q 515 899 554 890 q 431 907 475 907 q 241 858 301 907 q 181 724 181 808 q 209 632 181 665 q 299 578 238 599 q 454 535 360 557 q 636 482 560 513 q 754 399 713 451 q 796 258 796 347 q 769 140 796 190 q 696 57 743 90 q 583 8 649 24 q 440 -8 518 -8 q 294 8 364 -8 q 161 55 224 24 q 44 135 99 86 l 93 214 q 156 162 119 186 q 238 118 193 138 q 335 88 283 99 q 443 78 388 78 q 627 121 561 78 q 693 249 693 164 q 660 347 693 310 q 560 407 626 383 q 396 453 493 431 q 222 506 293 476 q 116 583 151 535 q 81 710 81 631 q 126 865 81 801 q 250 960 171 928 q 432 993 329 993 q 553 980 497 993 q 658 942 610 967 q 747 879 706 917 l 700 801 m 265 1176 l 401 1294 l 471 1294 l 608 1176 l 554 1147 l 436 1235 l 318 1147 l 265 1176 z "},"Ș":{"ha":843,"x_min":44,"x_max":796,"o":"m 700 801 q 651 844 679 825 q 589 876 624 863 q 515 899 554 890 q 431 907 475 907 q 241 858 301 907 q 181 724 181 808 q 209 632 181 665 q 299 578 238 599 q 454 535 360 557 q 636 482 560 513 q 754 399 713 451 q 796 258 796 347 q 769 140 796 190 q 696 57 743 90 q 583 8 649 24 q 440 -8 518 -8 q 294 8 364 -8 q 161 55 224 24 q 44 135 99 86 l 93 214 q 156 162 119 186 q 238 118 193 138 q 335 88 283 99 q 443 78 388 78 q 627 121 561 78 q 693 249 693 164 q 660 347 693 310 q 560 407 626 383 q 396 453 493 431 q 222 506 293 476 q 116 583 151 535 q 81 710 81 631 q 126 865 81 801 q 250 960 171 928 q 432 993 329 993 q 553 980 497 993 q 658 942 610 967 q 747 879 706 917 l 700 801 m 394 -276 l 418 -174 l 390 -174 l 390 -68 l 478 -68 l 478 -174 l 443 -276 l 394 -276 z "},"Ṡ":{"ha":843,"x_min":44,"x_max":796,"o":"m 700 801 q 651 844 679 825 q 589 876 624 863 q 515 899 554 890 q 431 907 475 907 q 241 858 301 907 q 181 724 181 808 q 209 632 181 665 q 299 578 238 599 q 454 535 360 557 q 636 482 560 513 q 754 399 713 451 q 796 258 796 347 q 769 140 796 190 q 696 57 743 90 q 583 8 649 24 q 440 -8 518 -8 q 294 8 364 -8 q 161 55 224 24 q 44 135 99 86 l 93 214 q 156 162 119 186 q 238 118 193 138 q 335 88 283 99 q 443 78 388 78 q 627 121 561 78 q 693 249 693 164 q 660 347 693 310 q 560 407 626 383 q 396 453 493 431 q 222 506 293 476 q 116 583 151 535 q 81 710 81 631 q 126 865 81 801 q 250 960 171 928 q 432 993 329 993 q 553 980 497 993 q 658 942 610 967 q 747 879 706 917 l 700 801 m 393 1160 l 393 1294 l 479 1294 l 479 1160 l 393 1160 z "},"Ṣ":{"ha":843,"x_min":44,"x_max":796,"o":"m 700 801 q 651 844 679 825 q 589 876 624 863 q 515 899 554 890 q 431 907 475 907 q 241 858 301 907 q 181 724 181 808 q 209 632 181 665 q 299 578 238 599 q 454 535 360 557 q 636 482 560 513 q 754 399 713 451 q 796 258 796 347 q 769 140 796 190 q 696 57 743 90 q 583 8 649 24 q 440 -8 518 -8 q 294 8 364 -8 q 161 55 224 24 q 44 135 99 86 l 93 214 q 156 162 119 186 q 238 118 193 138 q 335 88 283 99 q 443 78 388 78 q 627 121 561 78 q 693 249 693 164 q 660 347 693 310 q 560 407 626 383 q 396 453 493 431 q 222 506 293 476 q 116 583 151 535 q 81 710 81 631 q 126 865 81 801 q 250 960 171 928 q 432 993 329 993 q 553 980 497 993 q 658 942 610 967 q 747 879 706 917 l 700 801 m 394 -235 l 394 -100 l 481 -100 l 481 -235 l 394 -235 z "},"Ṩ":{"ha":843,"x_min":44,"x_max":796,"o":"m 700 801 q 651 844 679 825 q 589 876 624 863 q 515 899 554 890 q 431 907 475 907 q 241 858 301 907 q 181 724 181 808 q 209 632 181 665 q 299 578 238 599 q 454 535 360 557 q 636 482 560 513 q 754 399 713 451 q 796 258 796 347 q 769 140 796 190 q 696 57 743 90 q 583 8 649 24 q 440 -8 518 -8 q 294 8 364 -8 q 161 55 224 24 q 44 135 99 86 l 93 214 q 156 162 119 186 q 238 118 193 138 q 335 88 283 99 q 443 78 388 78 q 627 121 561 78 q 693 249 693 164 q 660 347 693 310 q 560 407 626 383 q 396 453 493 431 q 222 506 293 476 q 116 583 151 535 q 81 710 81 631 q 126 865 81 801 q 250 960 171 928 q 432 993 329 993 q 553 980 497 993 q 658 942 610 967 q 747 879 706 917 l 700 801 m 394 -235 l 394 -100 l 481 -100 l 481 -235 l 394 -235 m 393 1160 l 393 1294 l 479 1294 l 479 1160 l 393 1160 z "},"ẞ":{"ha":876,"x_min":104,"x_max":826,"o":"m 547 -14 q 383 15 460 -14 q 250 104 307 44 l 290 171 q 413 88 350 114 q 543 63 475 63 q 681 97 628 63 q 733 194 733 131 q 708 260 733 238 q 634 297 682 282 q 519 329 586 313 q 392 374 443 350 q 317 433 342 397 q 292 526 292 468 q 325 640 292 596 q 416 710 358 685 q 546 749 474 736 q 693 771 618 763 l 675 740 q 639 833 671 796 q 558 890 607 871 q 449 908 508 908 q 310 874 367 908 q 224 780 254 839 q 194 647 194 721 l 194 0 l 104 0 l 104 661 q 130 795 104 735 q 203 900 156 856 q 314 968 250 944 q 451 992 378 992 q 605 960 539 992 q 712 872 671 928 q 764 740 753 817 l 768 707 q 617 685 688 696 q 493 656 546 674 q 410 610 440 639 q 381 533 381 582 q 401 474 381 496 q 459 437 421 451 q 554 407 497 422 q 699 362 638 385 q 793 303 760 339 q 826 201 826 267 q 749 43 826 100 q 547 -14 672 -14 z "},"Ə":{"ha":1024,"x_min":40,"x_max":965,"o":"m 507 -8 q 324 30 408 -8 q 176 136 240 68 q 76 294 111 204 q 40 486 40 383 q 41 513 40 500 q 43 532 42 525 l 858 532 q 821 679 851 611 q 741 797 790 747 q 630 875 692 847 q 497 903 568 903 q 370 878 431 903 q 264 810 310 854 q 199 710 218 767 l 107 751 q 202 876 140 822 q 343 962 264 931 q 507 993 422 993 q 685 953 601 993 q 831 845 768 914 q 929 685 893 776 q 965 488 965 593 q 930 293 965 383 q 831 135 894 203 q 685 30 768 68 q 507 -8 603 -8 m 507 79 q 681 127 603 79 q 807 258 758 175 q 861 447 856 340 l 144 447 q 201 258 151 342 q 331 127 251 175 q 507 79 411 79 z "},"T":{"ha":847,"x_min":24,"x_max":824,"o":"m 824 900 l 472 900 l 472 0 l 375 0 l 375 900 l 24 900 l 24 986 l 824 986 l 824 900 z "},"Ŧ":{"ha":890,"x_min":46,"x_max":844,"o":"m 106 428 l 106 501 l 786 501 l 786 428 l 106 428 m 844 900 l 493 900 l 493 0 l 397 0 l 397 900 l 46 900 l 46 986 l 844 986 l 844 900 z "},"Ť":{"ha":847,"x_min":24,"x_max":824,"o":"m 824 900 l 472 900 l 472 0 l 375 0 l 375 900 l 24 900 l 24 986 l 824 986 l 824 900 m 308 1274 l 426 1186 l 544 1274 l 599 1246 l 461 1126 l 392 1126 l 256 1246 l 308 1274 z "},"Ţ":{"ha":847,"x_min":24,"x_max":824,"o":"m 824 900 l 472 900 l 472 0 l 375 0 l 375 900 l 24 900 l 24 986 l 824 986 l 824 900 m 410 -250 q 333 -240 375 -250 q 251 -211 290 -231 l 279 -157 q 335 -179 308 -171 q 394 -187 361 -187 q 465 -170 440 -187 q 490 -117 490 -153 q 465 -53 490 -81 q 393 0 440 -26 l 433 26 q 521 -42 488 -7 q 554 -132 554 -78 q 515 -219 554 -187 q 410 -250 476 -250 z "},"Ț":{"ha":847,"x_min":24,"x_max":824,"o":"m 824 900 l 472 900 l 472 0 l 375 0 l 375 900 l 24 900 l 24 986 l 824 986 l 824 900 m 383 -276 l 407 -174 l 379 -174 l 379 -68 l 467 -68 l 467 -174 l 432 -276 l 383 -276 z "},"Ṭ":{"ha":847,"x_min":24,"x_max":824,"o":"m 824 900 l 472 900 l 472 0 l 375 0 l 375 900 l 24 900 l 24 986 l 824 986 l 824 900 m 383 -235 l 383 -100 l 469 -100 l 469 -235 l 383 -235 z "},"Ṯ":{"ha":847,"x_min":24,"x_max":824,"o":"m 824 900 l 472 900 l 472 0 l 375 0 l 375 900 l 24 900 l 24 986 l 824 986 l 824 900 m 226 -179 l 226 -114 l 628 -114 l 628 -179 l 226 -179 z "},"U":{"ha":1049,"x_min":110,"x_max":940,"o":"m 525 -7 q 328 35 408 -7 q 200 147 247 76 q 131 306 153 217 q 110 489 110 394 l 110 986 l 206 986 l 206 489 q 222 339 206 413 q 274 207 238 265 q 371 115 310 149 q 524 81 432 81 q 680 116 618 81 q 777 210 742 151 q 828 341 813 268 q 843 489 843 414 l 843 986 l 940 986 l 940 489 q 918 300 940 390 q 847 142 896 210 q 718 33 797 74 q 525 -7 639 -7 z "},"Ú":{"ha":1049,"x_min":110,"x_max":940,"o":"m 525 -7 q 328 35 408 -7 q 200 147 247 76 q 131 306 153 217 q 110 489 110 394 l 110 986 l 206 986 l 206 489 q 222 339 206 413 q 274 207 238 265 q 371 115 310 149 q 524 81 432 81 q 680 116 618 81 q 777 210 742 151 q 828 341 813 268 q 843 489 843 414 l 843 986 l 940 986 l 940 489 q 918 300 940 390 q 847 142 896 210 q 718 33 797 74 q 525 -7 639 -7 m 558 1121 l 496 1144 l 578 1274 l 678 1274 l 558 1121 z "},"Ŭ":{"ha":1049,"x_min":110,"x_max":940,"o":"m 525 -7 q 328 35 408 -7 q 200 147 247 76 q 131 306 153 217 q 110 489 110 394 l 110 986 l 206 986 l 206 489 q 222 339 206 413 q 274 207 238 265 q 371 115 310 149 q 524 81 432 81 q 680 116 618 81 q 777 210 742 151 q 828 341 813 268 q 843 489 843 414 l 843 986 l 940 986 l 940 489 q 918 300 940 390 q 847 142 896 210 q 718 33 797 74 q 525 -7 639 -7 m 525 1182 q 577 1208 554 1182 q 604 1274 600 1235 l 661 1274 q 622 1174 661 1215 q 525 1133 582 1133 q 428 1174 468 1133 q 389 1274 389 1215 l 447 1274 q 471 1210 447 1238 q 525 1182 494 1182 z "},"Û":{"ha":1049,"x_min":110,"x_max":940,"o":"m 525 -7 q 328 35 408 -7 q 200 147 247 76 q 131 306 153 217 q 110 489 110 394 l 110 986 l 206 986 l 206 489 q 222 339 206 413 q 274 207 238 265 q 371 115 310 149 q 524 81 432 81 q 680 116 618 81 q 777 210 742 151 q 828 341 813 268 q 843 489 843 414 l 843 986 l 940 986 l 940 489 q 918 300 940 390 q 847 142 896 210 q 718 33 797 74 q 525 -7 639 -7 m 354 1156 l 490 1274 l 560 1274 l 697 1156 l 643 1126 l 525 1214 l 407 1126 l 354 1156 z "},"Ȕ":{"ha":1049,"x_min":110,"x_max":940,"o":"m 525 -7 q 328 35 408 -7 q 200 147 247 76 q 131 306 153 217 q 110 489 110 394 l 110 986 l 206 986 l 206 489 q 222 339 206 413 q 274 207 238 265 q 371 115 310 149 q 524 81 432 81 q 680 116 618 81 q 777 210 742 151 q 828 341 813 268 q 843 489 843 414 l 843 986 l 940 986 l 940 489 q 918 300 940 390 q 847 142 896 210 q 718 33 797 74 q 525 -7 639 -7 m 488 1274 l 575 1274 l 654 1144 l 603 1121 l 488 1274 m 313 1274 l 401 1274 l 481 1144 l 429 1121 l 313 1274 z "},"Ü":{"ha":1049,"x_min":110,"x_max":940,"o":"m 525 -7 q 328 35 408 -7 q 200 147 247 76 q 131 306 153 217 q 110 489 110 394 l 110 986 l 206 986 l 206 489 q 222 339 206 413 q 274 207 238 265 q 371 115 310 149 q 524 81 432 81 q 680 116 618 81 q 777 210 742 151 q 828 341 813 268 q 843 489 843 414 l 843 986 l 940 986 l 940 489 q 918 300 940 390 q 847 142 896 210 q 718 33 797 74 q 525 -7 639 -7 m 382 1139 l 382 1269 l 463 1269 l 463 1139 l 382 1139 m 589 1139 l 589 1269 l 669 1269 l 669 1139 l 589 1139 z "},"Ụ":{"ha":1049,"x_min":110,"x_max":940,"o":"m 525 -7 q 328 35 408 -7 q 200 147 247 76 q 131 306 153 217 q 110 489 110 394 l 110 986 l 206 986 l 206 489 q 222 339 206 413 q 274 207 238 265 q 371 115 310 149 q 524 81 432 81 q 680 116 618 81 q 777 210 742 151 q 828 341 813 268 q 843 489 843 414 l 843 986 l 940 986 l 940 489 q 918 300 940 390 q 847 142 896 210 q 718 33 797 74 q 525 -7 639 -7 m 482 -235 l 482 -100 l 568 -100 l 568 -235 l 482 -235 z "},"Ù":{"ha":1049,"x_min":110,"x_max":940,"o":"m 525 -7 q 328 35 408 -7 q 200 147 247 76 q 131 306 153 217 q 110 489 110 394 l 110 986 l 206 986 l 206 489 q 222 339 206 413 q 274 207 238 265 q 371 115 310 149 q 524 81 432 81 q 680 116 618 81 q 777 210 742 151 q 828 341 813 268 q 843 489 843 414 l 843 986 l 940 986 l 940 489 q 918 300 940 390 q 847 142 896 210 q 718 33 797 74 q 525 -7 639 -7 m 396 1274 l 494 1274 l 578 1144 l 517 1121 l 396 1274 z "},"Ủ":{"ha":1049,"x_min":110,"x_max":940,"o":"m 525 -7 q 328 35 408 -7 q 200 147 247 76 q 131 306 153 217 q 110 489 110 394 l 110 986 l 206 986 l 206 489 q 222 339 206 413 q 274 207 238 265 q 371 115 310 149 q 524 81 432 81 q 680 116 618 81 q 777 210 742 151 q 828 341 813 268 q 843 489 843 414 l 843 986 l 940 986 l 940 489 q 918 300 940 390 q 847 142 896 210 q 718 33 797 74 q 525 -7 639 -7 m 461 1221 l 424 1258 q 475 1293 449 1281 q 533 1306 501 1306 q 603 1279 579 1306 q 626 1218 626 1253 q 609 1163 626 1190 q 556 1104 592 1136 l 526 1138 q 559 1176 550 1160 q 568 1210 568 1193 q 557 1240 568 1228 q 525 1253 546 1253 q 494 1246 507 1253 q 461 1221 481 1239 z "},"Ư":{"ha":1049,"x_min":110,"x_max":1097,"o":"m 525 -7 q 328 35 408 -7 q 200 147 247 76 q 131 306 153 217 q 110 489 110 394 l 110 986 l 206 986 l 206 489 q 222 339 206 413 q 274 207 238 265 q 371 115 310 149 q 524 81 432 81 q 680 116 618 81 q 777 210 742 151 q 828 341 813 268 q 843 489 843 414 l 843 986 l 940 986 l 940 489 q 918 300 940 390 q 847 142 896 210 q 718 33 797 74 q 525 -7 639 -7 m 882 917 l 883 988 q 956 996 929 988 q 996 1019 982 1004 q 1013 1056 1008 1036 q 1018 1104 1017 1076 l 1099 1104 q 1093 1056 1097 1079 q 1080 1013 1089 1033 q 1056 974 1071 993 q 1013 942 1039 956 q 953 923 986 929 q 882 917 919 917 z "},"Ứ":{"ha":1049,"x_min":110,"x_max":1097,"o":"m 525 -7 q 328 35 408 -7 q 200 147 247 76 q 131 306 153 217 q 110 489 110 394 l 110 986 l 206 986 l 206 489 q 222 339 206 413 q 274 207 238 265 q 371 115 310 149 q 524 81 432 81 q 680 116 618 81 q 777 210 742 151 q 828 341 813 268 q 843 489 843 414 l 843 986 l 940 986 l 940 489 q 918 300 940 390 q 847 142 896 210 q 718 33 797 74 q 525 -7 639 -7 m 882 917 l 883 988 q 956 996 929 988 q 996 1019 982 1004 q 1013 1056 1008 1036 q 1018 1104 1017 1076 l 1099 1104 q 1093 1056 1097 1079 q 1080 1013 1089 1033 q 1056 974 1071 993 q 1013 942 1039 956 q 953 923 986 929 q 882 917 919 917 m 558 1121 l 496 1144 l 578 1274 l 678 1274 l 558 1121 z "},"Ự":{"ha":1049,"x_min":110,"x_max":1097,"o":"m 525 -7 q 328 35 408 -7 q 200 147 247 76 q 131 306 153 217 q 110 489 110 394 l 110 986 l 206 986 l 206 489 q 222 339 206 413 q 274 207 238 265 q 371 115 310 149 q 524 81 432 81 q 680 116 618 81 q 777 210 742 151 q 828 341 813 268 q 843 489 843 414 l 843 986 l 940 986 l 940 489 q 918 300 940 390 q 847 142 896 210 q 718 33 797 74 q 525 -7 639 -7 m 882 917 l 883 988 q 956 996 929 988 q 996 1019 982 1004 q 1013 1056 1008 1036 q 1018 1104 1017 1076 l 1099 1104 q 1093 1056 1097 1079 q 1080 1013 1089 1033 q 1056 974 1071 993 q 1013 942 1039 956 q 953 923 986 929 q 882 917 919 917 m 482 -235 l 482 -100 l 568 -100 l 568 -235 l 482 -235 z "},"Ừ":{"ha":1049,"x_min":110,"x_max":1097,"o":"m 525 -7 q 328 35 408 -7 q 200 147 247 76 q 131 306 153 217 q 110 489 110 394 l 110 986 l 206 986 l 206 489 q 222 339 206 413 q 274 207 238 265 q 371 115 310 149 q 524 81 432 81 q 680 116 618 81 q 777 210 742 151 q 828 341 813 268 q 843 489 843 414 l 843 986 l 940 986 l 940 489 q 918 300 940 390 q 847 142 896 210 q 718 33 797 74 q 525 -7 639 -7 m 882 917 l 883 988 q 956 996 929 988 q 996 1019 982 1004 q 1013 1056 1008 1036 q 1018 1104 1017 1076 l 1099 1104 q 1093 1056 1097 1079 q 1080 1013 1089 1033 q 1056 974 1071 993 q 1013 942 1039 956 q 953 923 986 929 q 882 917 919 917 m 396 1274 l 494 1274 l 578 1144 l 517 1121 l 396 1274 z "},"Ử":{"ha":1049,"x_min":110,"x_max":1097,"o":"m 525 -7 q 328 35 408 -7 q 200 147 247 76 q 131 306 153 217 q 110 489 110 394 l 110 986 l 206 986 l 206 489 q 222 339 206 413 q 274 207 238 265 q 371 115 310 149 q 524 81 432 81 q 680 116 618 81 q 777 210 742 151 q 828 341 813 268 q 843 489 843 414 l 843 986 l 940 986 l 940 489 q 918 300 940 390 q 847 142 896 210 q 718 33 797 74 q 525 -7 639 -7 m 882 917 l 883 988 q 956 996 929 988 q 996 1019 982 1004 q 1013 1056 1008 1036 q 1018 1104 1017 1076 l 1099 1104 q 1093 1056 1097 1079 q 1080 1013 1089 1033 q 1056 974 1071 993 q 1013 942 1039 956 q 953 923 986 929 q 882 917 919 917 m 461 1221 l 424 1258 q 475 1293 449 1281 q 533 1306 501 1306 q 603 1279 579 1306 q 626 1218 626 1253 q 609 1163 626 1190 q 556 1104 592 1136 l 526 1138 q 559 1176 550 1160 q 568 1210 568 1193 q 557 1240 568 1228 q 525 1253 546 1253 q 494 1246 507 1253 q 461 1221 481 1239 z "},"Ữ":{"ha":1049,"x_min":110,"x_max":1097,"o":"m 525 -7 q 328 35 408 -7 q 200 147 247 76 q 131 306 153 217 q 110 489 110 394 l 110 986 l 206 986 l 206 489 q 222 339 206 413 q 274 207 238 265 q 371 115 310 149 q 524 81 432 81 q 680 116 618 81 q 777 210 742 151 q 828 341 813 268 q 843 489 843 414 l 843 986 l 940 986 l 940 489 q 918 300 940 390 q 847 142 896 210 q 718 33 797 74 q 525 -7 639 -7 m 882 917 l 883 988 q 956 996 929 988 q 996 1019 982 1004 q 1013 1056 1008 1036 q 1018 1104 1017 1076 l 1099 1104 q 1093 1056 1097 1079 q 1080 1013 1089 1033 q 1056 974 1071 993 q 1013 942 1039 956 q 953 923 986 929 q 882 917 919 917 m 610 1146 q 539 1160 568 1146 q 486 1188 510 1174 q 432 1201 463 1201 q 387 1187 401 1201 q 367 1156 372 1172 q 363 1135 363 1139 l 304 1135 q 309 1163 304 1142 q 328 1206 314 1183 q 366 1247 342 1229 q 431 1264 390 1264 q 497 1249 469 1264 q 549 1220 524 1235 q 608 1206 575 1206 q 661 1222 644 1206 q 683 1254 678 1238 q 688 1274 688 1271 l 746 1274 q 740 1247 746 1267 q 720 1203 735 1226 q 678 1163 706 1179 q 610 1146 651 1146 z "},"Ű":{"ha":1049,"x_min":110,"x_max":940,"o":"m 525 -7 q 328 35 408 -7 q 200 147 247 76 q 131 306 153 217 q 110 489 110 394 l 110 986 l 206 986 l 206 489 q 222 339 206 413 q 274 207 238 265 q 371 115 310 149 q 524 81 432 81 q 680 116 618 81 q 777 210 742 151 q 828 341 813 268 q 843 489 843 414 l 843 986 l 940 986 l 940 489 q 918 300 940 390 q 847 142 896 210 q 718 33 797 74 q 525 -7 639 -7 m 438 1121 l 386 1144 l 465 1274 l 554 1274 l 438 1121 m 613 1121 l 560 1144 l 639 1274 l 728 1274 l 613 1121 z "},"Ȗ":{"ha":1049,"x_min":110,"x_max":940,"o":"m 525 -7 q 328 35 408 -7 q 200 147 247 76 q 131 306 153 217 q 110 489 110 394 l 110 986 l 206 986 l 206 489 q 222 339 206 413 q 274 207 238 265 q 371 115 310 149 q 524 81 432 81 q 680 116 618 81 q 777 210 742 151 q 828 341 813 268 q 843 489 843 414 l 843 986 l 940 986 l 940 489 q 918 300 940 390 q 847 142 896 210 q 718 33 797 74 q 525 -7 639 -7 m 525 1225 q 471 1197 494 1225 q 447 1133 447 1169 l 389 1133 q 428 1233 389 1192 q 525 1274 468 1274 q 622 1233 582 1274 q 661 1133 661 1192 l 604 1133 q 577 1199 600 1172 q 525 1225 554 1225 z "},"Ū":{"ha":1049,"x_min":110,"x_max":940,"o":"m 525 -7 q 328 35 408 -7 q 200 147 247 76 q 131 306 153 217 q 110 489 110 394 l 110 986 l 206 986 l 206 489 q 222 339 206 413 q 274 207 238 265 q 371 115 310 149 q 524 81 432 81 q 680 116 618 81 q 777 210 742 151 q 828 341 813 268 q 843 489 843 414 l 843 986 l 940 986 l 940 489 q 918 300 940 390 q 847 142 896 210 q 718 33 797 74 q 525 -7 639 -7 m 326 1181 l 326 1246 l 728 1246 l 728 1181 l 326 1181 z "},"Ṻ":{"ha":1049,"x_min":110,"x_max":940,"o":"m 525 -7 q 328 35 408 -7 q 200 147 247 76 q 131 306 153 217 q 110 489 110 394 l 110 986 l 206 986 l 206 489 q 222 339 206 413 q 274 207 238 265 q 371 115 310 149 q 524 81 432 81 q 680 116 618 81 q 777 210 742 151 q 828 341 813 268 q 843 489 843 414 l 843 986 l 940 986 l 940 489 q 918 300 940 390 q 847 142 896 210 q 718 33 797 74 q 525 -7 639 -7 m 326 1181 l 326 1246 l 728 1246 l 728 1181 l 326 1181 m 382 1401 l 382 1532 l 463 1532 l 463 1401 l 382 1401 m 589 1401 l 589 1532 l 669 1532 l 669 1401 l 589 1401 z "},"Ų":{"ha":1049,"x_min":110,"x_max":940,"o":"m 525 -7 q 328 35 408 -7 q 200 147 247 76 q 131 306 153 217 q 110 489 110 394 l 110 986 l 206 986 l 206 489 q 222 339 206 413 q 274 207 238 265 q 371 115 310 149 q 524 81 432 81 q 680 116 618 81 q 777 210 742 151 q 828 341 813 268 q 843 489 843 414 l 843 986 l 940 986 l 940 489 q 918 300 940 390 q 847 142 896 210 q 718 33 797 74 q 525 -7 639 -7 m 438 -144 q 469 -60 438 -101 q 563 24 500 -19 l 589 24 l 613 1 q 530 -73 556 -42 q 504 -132 504 -104 q 531 -171 504 -158 q 610 -189 558 -183 l 586 -251 q 494 -228 526 -244 q 449 -190 461 -212 q 438 -144 438 -168 z "},"Ů":{"ha":1049,"x_min":110,"x_max":940,"o":"m 525 -7 q 328 35 408 -7 q 200 147 247 76 q 131 306 153 217 q 110 489 110 394 l 110 986 l 206 986 l 206 489 q 222 339 206 413 q 274 207 238 265 q 371 115 310 149 q 524 81 432 81 q 680 116 618 81 q 777 210 742 151 q 828 341 813 268 q 843 489 843 414 l 843 986 l 940 986 l 940 489 q 918 300 940 390 q 847 142 896 210 q 718 33 797 74 q 525 -7 639 -7 m 401 1190 q 437 1274 401 1242 q 525 1307 472 1307 q 614 1274 579 1307 q 649 1190 649 1242 q 614 1107 649 1139 q 525 1075 579 1075 q 437 1107 472 1075 q 401 1190 401 1139 m 525 1258 q 477 1240 497 1258 q 457 1190 457 1222 q 476 1142 457 1161 q 525 1122 496 1122 q 573 1141 551 1122 q 594 1190 594 1160 q 574 1240 594 1222 q 525 1258 553 1258 z "},"Ũ":{"ha":1049,"x_min":110,"x_max":940,"o":"m 525 -7 q 328 35 408 -7 q 200 147 247 76 q 131 306 153 217 q 110 489 110 394 l 110 986 l 206 986 l 206 489 q 222 339 206 413 q 274 207 238 265 q 371 115 310 149 q 524 81 432 81 q 680 116 618 81 q 777 210 742 151 q 828 341 813 268 q 843 489 843 414 l 843 986 l 940 986 l 940 489 q 918 300 940 390 q 847 142 896 210 q 718 33 797 74 q 525 -7 639 -7 m 610 1146 q 539 1160 568 1146 q 486 1188 510 1174 q 432 1201 463 1201 q 387 1187 401 1201 q 367 1156 372 1172 q 363 1135 363 1139 l 304 1135 q 309 1163 304 1142 q 328 1206 314 1183 q 366 1247 342 1229 q 431 1264 390 1264 q 497 1249 469 1264 q 549 1220 524 1235 q 608 1206 575 1206 q 661 1222 644 1206 q 683 1254 678 1238 q 688 1274 688 1271 l 746 1274 q 740 1247 746 1267 q 720 1203 735 1226 q 678 1163 706 1179 q 610 1146 651 1146 z "},"Ṹ":{"ha":1049,"x_min":110,"x_max":940,"o":"m 525 -7 q 328 35 408 -7 q 200 147 247 76 q 131 306 153 217 q 110 489 110 394 l 110 986 l 206 986 l 206 489 q 222 339 206 413 q 274 207 238 265 q 371 115 310 149 q 524 81 432 81 q 680 116 618 81 q 777 210 742 151 q 828 341 813 268 q 843 489 843 414 l 843 986 l 940 986 l 940 489 q 918 300 940 390 q 847 142 896 210 q 718 33 797 74 q 525 -7 639 -7 m 610 1146 q 539 1160 568 1146 q 486 1188 510 1174 q 432 1201 463 1201 q 387 1187 401 1201 q 367 1156 372 1172 q 363 1135 363 1139 l 304 1135 q 309 1163 304 1142 q 328 1206 314 1183 q 366 1247 342 1229 q 431 1264 390 1264 q 497 1249 469 1264 q 549 1220 524 1235 q 608 1206 575 1206 q 661 1222 644 1206 q 683 1254 678 1238 q 688 1274 688 1271 l 746 1274 q 740 1247 746 1267 q 720 1203 735 1226 q 678 1163 706 1179 q 610 1146 651 1146 m 558 1410 l 496 1433 l 578 1563 l 678 1563 l 558 1410 z "},"V":{"ha":943,"x_min":18,"x_max":925,"o":"m 119 986 l 472 121 l 824 986 l 925 986 l 517 0 l 428 0 l 18 986 l 119 986 z "},"W":{"ha":1453,"x_min":17,"x_max":1438,"o":"m 494 979 l 586 979 l 725 629 l 865 979 l 958 979 l 786 558 l 975 113 l 1332 986 l 1438 986 l 1019 0 l 933 0 l 726 488 l 518 0 l 433 0 l 17 986 l 121 986 l 479 113 l 667 558 l 494 979 z "},"Ẃ":{"ha":1453,"x_min":17,"x_max":1438,"o":"m 494 979 l 586 979 l 725 629 l 865 979 l 958 979 l 786 558 l 975 113 l 1332 986 l 1438 986 l 1019 0 l 933 0 l 726 488 l 518 0 l 433 0 l 17 986 l 121 986 l 479 113 l 667 558 l 494 979 m 758 1121 l 696 1144 l 778 1274 l 878 1274 l 758 1121 z "},"Ŵ":{"ha":1453,"x_min":17,"x_max":1438,"o":"m 494 979 l 586 979 l 725 629 l 865 979 l 958 979 l 786 558 l 975 113 l 1332 986 l 1438 986 l 1019 0 l 933 0 l 726 488 l 518 0 l 433 0 l 17 986 l 121 986 l 479 113 l 667 558 l 494 979 m 554 1156 l 690 1274 l 760 1274 l 897 1156 l 843 1126 l 725 1214 l 607 1126 l 554 1156 z "},"Ẅ":{"ha":1453,"x_min":17,"x_max":1438,"o":"m 494 979 l 586 979 l 725 629 l 865 979 l 958 979 l 786 558 l 975 113 l 1332 986 l 1438 986 l 1019 0 l 933 0 l 726 488 l 518 0 l 433 0 l 17 986 l 121 986 l 479 113 l 667 558 l 494 979 m 582 1139 l 582 1269 l 663 1269 l 663 1139 l 582 1139 m 789 1139 l 789 1269 l 869 1269 l 869 1139 l 789 1139 z "},"Ẁ":{"ha":1453,"x_min":17,"x_max":1438,"o":"m 494 979 l 586 979 l 725 629 l 865 979 l 958 979 l 786 558 l 975 113 l 1332 986 l 1438 986 l 1019 0 l 933 0 l 726 488 l 518 0 l 433 0 l 17 986 l 121 986 l 479 113 l 667 558 l 494 979 m 596 1274 l 694 1274 l 778 1144 l 717 1121 l 596 1274 z "},"X":{"ha":878,"x_min":7,"x_max":871,"o":"m 118 986 l 440 557 l 761 986 l 871 986 l 493 486 l 860 0 l 750 0 l 440 415 l 129 0 l 18 0 l 385 486 l 7 986 l 118 986 z "},"Y":{"ha":904,"x_min":22,"x_max":882,"o":"m 129 986 l 451 456 l 776 986 l 882 986 l 500 367 l 500 0 l 403 0 l 403 369 l 22 986 l 129 986 z "},"Ý":{"ha":904,"x_min":22,"x_max":882,"o":"m 129 986 l 451 456 l 776 986 l 882 986 l 500 367 l 500 0 l 403 0 l 403 369 l 22 986 l 129 986 m 483 1121 l 421 1144 l 503 1274 l 603 1274 l 483 1121 z "},"Ŷ":{"ha":904,"x_min":22,"x_max":882,"o":"m 129 986 l 451 456 l 776 986 l 882 986 l 500 367 l 500 0 l 403 0 l 403 369 l 22 986 l 129 986 m 281 1156 l 417 1274 l 486 1274 l 624 1156 l 569 1126 l 451 1214 l 333 1126 l 281 1156 z "},"Ÿ":{"ha":904,"x_min":22,"x_max":882,"o":"m 129 986 l 451 456 l 776 986 l 882 986 l 500 367 l 500 0 l 403 0 l 403 369 l 22 986 l 129 986 m 307 1139 l 307 1269 l 388 1269 l 388 1139 l 307 1139 m 514 1139 l 514 1269 l 594 1269 l 594 1139 l 514 1139 z "},"Ẏ":{"ha":904,"x_min":22,"x_max":882,"o":"m 129 986 l 451 456 l 776 986 l 882 986 l 500 367 l 500 0 l 403 0 l 403 369 l 22 986 l 129 986 m 408 1139 l 408 1274 l 494 1274 l 494 1139 l 408 1139 z "},"Ỵ":{"ha":904,"x_min":22,"x_max":882,"o":"m 129 986 l 451 456 l 776 986 l 882 986 l 500 367 l 500 0 l 403 0 l 403 369 l 22 986 l 129 986 m 410 -235 l 410 -100 l 496 -100 l 496 -235 l 410 -235 z "},"Ỳ":{"ha":904,"x_min":22,"x_max":882,"o":"m 129 986 l 451 456 l 776 986 l 882 986 l 500 367 l 500 0 l 403 0 l 403 369 l 22 986 l 129 986 m 322 1274 l 421 1274 l 504 1144 l 443 1121 l 322 1274 z "},"Ỷ":{"ha":904,"x_min":22,"x_max":882,"o":"m 129 986 l 451 456 l 776 986 l 882 986 l 500 367 l 500 0 l 403 0 l 403 369 l 22 986 l 129 986 m 388 1221 l 350 1258 q 401 1293 375 1281 q 460 1306 428 1306 q 529 1279 506 1306 q 553 1218 553 1253 q 535 1163 553 1190 q 482 1104 518 1136 l 453 1138 q 485 1176 476 1160 q 494 1210 494 1193 q 483 1240 494 1228 q 451 1253 472 1253 q 420 1246 433 1253 q 388 1221 407 1239 z "},"Ȳ":{"ha":904,"x_min":22,"x_max":882,"o":"m 129 986 l 451 456 l 776 986 l 882 986 l 500 367 l 500 0 l 403 0 l 403 369 l 22 986 l 129 986 m 251 1181 l 251 1246 l 653 1246 l 653 1181 l 251 1181 z "},"Ỹ":{"ha":904,"x_min":22,"x_max":882,"o":"m 129 986 l 451 456 l 776 986 l 882 986 l 500 367 l 500 0 l 403 0 l 403 369 l 22 986 l 129 986 m 536 1146 q 465 1160 494 1146 q 413 1188 436 1174 q 358 1201 389 1201 q 313 1187 328 1201 q 294 1156 299 1172 q 289 1135 289 1139 l 231 1135 q 235 1163 231 1142 q 254 1206 240 1183 q 292 1247 268 1229 q 357 1264 317 1264 q 423 1249 396 1264 q 476 1220 450 1235 q 535 1206 501 1206 q 588 1222 571 1206 q 609 1254 604 1238 q 614 1274 614 1271 l 672 1274 q 667 1247 672 1267 q 647 1203 661 1226 q 605 1163 632 1179 q 536 1146 578 1146 z "},"Z":{"ha":874,"x_min":43,"x_max":826,"o":"m 43 76 l 714 900 l 54 900 l 54 986 l 826 986 l 826 910 l 164 86 l 825 86 l 825 0 l 43 0 l 43 76 z "},"Ź":{"ha":874,"x_min":43,"x_max":826,"o":"m 43 76 l 714 900 l 54 900 l 54 986 l 826 986 l 826 910 l 164 86 l 825 86 l 825 0 l 43 0 l 43 76 m 492 1121 l 429 1144 l 511 1274 l 611 1274 l 492 1121 z "},"Ž":{"ha":874,"x_min":43,"x_max":826,"o":"m 43 76 l 714 900 l 54 900 l 54 986 l 826 986 l 826 910 l 164 86 l 825 86 l 825 0 l 43 0 l 43 76 m 342 1274 l 460 1186 l 578 1274 l 632 1246 l 494 1126 l 425 1126 l 289 1246 l 342 1274 z "},"Ż":{"ha":874,"x_min":43,"x_max":826,"o":"m 43 76 l 714 900 l 54 900 l 54 986 l 826 986 l 826 910 l 164 86 l 825 86 l 825 0 l 43 0 l 43 76 m 417 1139 l 417 1274 l 503 1274 l 503 1139 l 417 1139 z "},"Ẓ":{"ha":874,"x_min":43,"x_max":826,"o":"m 43 76 l 714 900 l 54 900 l 54 986 l 826 986 l 826 910 l 164 86 l 825 86 l 825 0 l 43 0 l 43 76 m 394 -235 l 394 -100 l 481 -100 l 481 -235 l 394 -235 z "},"a":{"ha":757,"x_min":46,"x_max":692,"o":"m 46 208 q 85 326 46 276 q 192 402 124 375 q 351 429 261 429 q 461 421 404 429 q 563 396 518 413 l 563 457 q 508 603 563 549 q 358 657 454 657 q 244 635 300 657 q 126 572 188 614 l 90 639 q 229 712 161 688 q 368 736 297 736 q 579 660 501 736 q 657 449 657 583 l 657 114 q 665 85 657 94 q 692 75 674 76 l 692 0 q 665 -3 676 -1 q 649 -3 654 -4 q 596 19 614 -1 q 576 64 578 40 l 575 117 q 449 20 526 54 q 290 -14 371 -14 q 165 16 221 -14 q 77 97 108 46 q 46 208 46 147 m 531 153 q 554 190 546 172 q 563 222 563 208 l 563 328 q 465 356 515 346 q 363 365 414 365 q 199 325 261 365 q 136 215 136 285 q 157 140 136 175 q 218 81 178 104 q 313 58 258 58 q 440 85 381 58 q 531 153 499 111 z "},"á":{"ha":757,"x_min":46,"x_max":692,"o":"m 46 208 q 85 326 46 276 q 192 402 124 375 q 351 429 261 429 q 461 421 404 429 q 563 396 518 413 l 563 457 q 508 603 563 549 q 358 657 454 657 q 244 635 300 657 q 126 572 188 614 l 90 639 q 229 712 161 688 q 368 736 297 736 q 579 660 501 736 q 657 449 657 583 l 657 114 q 665 85 657 94 q 692 75 674 76 l 692 0 q 665 -3 676 -1 q 649 -3 654 -4 q 596 19 614 -1 q 576 64 578 40 l 575 117 q 449 20 526 54 q 290 -14 371 -14 q 165 16 221 -14 q 77 97 108 46 q 46 208 46 147 m 531 153 q 554 190 546 172 q 563 222 563 208 l 563 328 q 465 356 515 346 q 363 365 414 365 q 199 325 261 365 q 136 215 136 285 q 157 140 136 175 q 218 81 178 104 q 313 58 258 58 q 440 85 381 58 q 531 153 499 111 m 399 861 l 336 885 l 418 1014 l 518 1014 l 399 861 z "},"ă":{"ha":757,"x_min":46,"x_max":692,"o":"m 46 208 q 85 326 46 276 q 192 402 124 375 q 351 429 261 429 q 461 421 404 429 q 563 396 518 413 l 563 457 q 508 603 563 549 q 358 657 454 657 q 244 635 300 657 q 126 572 188 614 l 90 639 q 229 712 161 688 q 368 736 297 736 q 579 660 501 736 q 657 449 657 583 l 657 114 q 665 85 657 94 q 692 75 674 76 l 692 0 q 665 -3 676 -1 q 649 -3 654 -4 q 596 19 614 -1 q 576 64 578 40 l 575 117 q 449 20 526 54 q 290 -14 371 -14 q 165 16 221 -14 q 77 97 108 46 q 46 208 46 147 m 531 153 q 554 190 546 172 q 563 222 563 208 l 563 328 q 465 356 515 346 q 363 365 414 365 q 199 325 261 365 q 136 215 136 285 q 157 140 136 175 q 218 81 178 104 q 313 58 258 58 q 440 85 381 58 q 531 153 499 111 m 365 922 q 417 949 394 922 q 444 1014 440 975 l 501 1014 q 462 915 501 956 q 365 874 422 874 q 269 915 308 874 q 229 1014 229 956 l 288 1014 q 311 950 288 978 q 365 922 335 922 z "},"ắ":{"ha":757,"x_min":46,"x_max":692,"o":"m 46 208 q 85 326 46 276 q 192 402 124 375 q 351 429 261 429 q 461 421 404 429 q 563 396 518 413 l 563 457 q 508 603 563 549 q 358 657 454 657 q 244 635 300 657 q 126 572 188 614 l 90 639 q 229 712 161 688 q 368 736 297 736 q 579 660 501 736 q 657 449 657 583 l 657 114 q 665 85 657 94 q 692 75 674 76 l 692 0 q 665 -3 676 -1 q 649 -3 654 -4 q 596 19 614 -1 q 576 64 578 40 l 575 117 q 449 20 526 54 q 290 -14 371 -14 q 165 16 221 -14 q 77 97 108 46 q 46 208 46 147 m 531 153 q 554 190 546 172 q 563 222 563 208 l 563 328 q 465 356 515 346 q 363 365 414 365 q 199 325 261 365 q 136 215 136 285 q 157 140 136 175 q 218 81 178 104 q 313 58 258 58 q 440 85 381 58 q 531 153 499 111 z "},"ặ":{"ha":757,"x_min":46,"x_max":692,"o":"m 46 208 q 85 326 46 276 q 192 402 124 375 q 351 429 261 429 q 461 421 404 429 q 563 396 518 413 l 563 457 q 508 603 563 549 q 358 657 454 657 q 244 635 300 657 q 126 572 188 614 l 90 639 q 229 712 161 688 q 368 736 297 736 q 579 660 501 736 q 657 449 657 583 l 657 114 q 665 85 657 94 q 692 75 674 76 l 692 0 q 665 -3 676 -1 q 649 -3 654 -4 q 596 19 614 -1 q 576 64 578 40 l 575 117 q 449 20 526 54 q 290 -14 371 -14 q 165 16 221 -14 q 77 97 108 46 q 46 208 46 147 m 531 153 q 554 190 546 172 q 563 222 563 208 l 563 328 q 465 356 515 346 q 363 365 414 365 q 199 325 261 365 q 136 215 136 285 q 157 140 136 175 q 218 81 178 104 q 313 58 258 58 q 440 85 381 58 q 531 153 499 111 m 360 -235 l 360 -100 l 446 -100 l 446 -235 l 360 -235 m 365 922 q 417 949 394 922 q 444 1014 440 975 l 501 1014 q 462 915 501 956 q 365 874 422 874 q 269 915 308 874 q 229 1014 229 956 l 288 1014 q 311 950 288 978 q 365 922 335 922 z "},"ằ":{"ha":757,"x_min":46,"x_max":692,"o":"m 46 208 q 85 326 46 276 q 192 402 124 375 q 351 429 261 429 q 461 421 404 429 q 563 396 518 413 l 563 457 q 508 603 563 549 q 358 657 454 657 q 244 635 300 657 q 126 572 188 614 l 90 639 q 229 712 161 688 q 368 736 297 736 q 579 660 501 736 q 657 449 657 583 l 657 114 q 665 85 657 94 q 692 75 674 76 l 692 0 q 665 -3 676 -1 q 649 -3 654 -4 q 596 19 614 -1 q 576 64 578 40 l 575 117 q 449 20 526 54 q 290 -14 371 -14 q 165 16 221 -14 q 77 97 108 46 q 46 208 46 147 m 531 153 q 554 190 546 172 q 563 222 563 208 l 563 328 q 465 356 515 346 q 363 365 414 365 q 199 325 261 365 q 136 215 136 285 q 157 140 136 175 q 218 81 178 104 q 313 58 258 58 q 440 85 381 58 q 531 153 499 111 z "},"ẳ":{"ha":757,"x_min":46,"x_max":692,"o":"m 46 208 q 85 326 46 276 q 192 402 124 375 q 351 429 261 429 q 461 421 404 429 q 563 396 518 413 l 563 457 q 508 603 563 549 q 358 657 454 657 q 244 635 300 657 q 126 572 188 614 l 90 639 q 229 712 161 688 q 368 736 297 736 q 579 660 501 736 q 657 449 657 583 l 657 114 q 665 85 657 94 q 692 75 674 76 l 692 0 q 665 -3 676 -1 q 649 -3 654 -4 q 596 19 614 -1 q 576 64 578 40 l 575 117 q 449 20 526 54 q 290 -14 371 -14 q 165 16 221 -14 q 77 97 108 46 q 46 208 46 147 m 531 153 q 554 190 546 172 q 563 222 563 208 l 563 328 q 465 356 515 346 q 363 365 414 365 q 199 325 261 365 q 136 215 136 285 q 157 140 136 175 q 218 81 178 104 q 313 58 258 58 q 440 85 381 58 q 531 153 499 111 z "},"ẵ":{"ha":757,"x_min":46,"x_max":692,"o":"m 46 208 q 85 326 46 276 q 192 402 124 375 q 351 429 261 429 q 461 421 404 429 q 563 396 518 413 l 563 457 q 508 603 563 549 q 358 657 454 657 q 244 635 300 657 q 126 572 188 614 l 90 639 q 229 712 161 688 q 368 736 297 736 q 579 660 501 736 q 657 449 657 583 l 657 114 q 665 85 657 94 q 692 75 674 76 l 692 0 q 665 -3 676 -1 q 649 -3 654 -4 q 596 19 614 -1 q 576 64 578 40 l 575 117 q 449 20 526 54 q 290 -14 371 -14 q 165 16 221 -14 q 77 97 108 46 q 46 208 46 147 m 531 153 q 554 190 546 172 q 563 222 563 208 l 563 328 q 465 356 515 346 q 363 365 414 365 q 199 325 261 365 q 136 215 136 285 q 157 140 136 175 q 218 81 178 104 q 313 58 258 58 q 440 85 381 58 q 531 153 499 111 z "},"â":{"ha":757,"x_min":46,"x_max":692,"o":"m 46 208 q 85 326 46 276 q 192 402 124 375 q 351 429 261 429 q 461 421 404 429 q 563 396 518 413 l 563 457 q 508 603 563 549 q 358 657 454 657 q 244 635 300 657 q 126 572 188 614 l 90 639 q 229 712 161 688 q 368 736 297 736 q 579 660 501 736 q 657 449 657 583 l 657 114 q 665 85 657 94 q 692 75 674 76 l 692 0 q 665 -3 676 -1 q 649 -3 654 -4 q 596 19 614 -1 q 576 64 578 40 l 575 117 q 449 20 526 54 q 290 -14 371 -14 q 165 16 221 -14 q 77 97 108 46 q 46 208 46 147 m 531 153 q 554 190 546 172 q 563 222 563 208 l 563 328 q 465 356 515 346 q 363 365 414 365 q 199 325 261 365 q 136 215 136 285 q 157 140 136 175 q 218 81 178 104 q 313 58 258 58 q 440 85 381 58 q 531 153 499 111 m 194 896 l 331 1014 l 400 1014 l 538 896 l 483 867 l 365 954 l 247 867 l 194 896 z "},"ấ":{"ha":757,"x_min":46,"x_max":692,"o":"m 46 208 q 85 326 46 276 q 192 402 124 375 q 351 429 261 429 q 461 421 404 429 q 563 396 518 413 l 563 457 q 508 603 563 549 q 358 657 454 657 q 244 635 300 657 q 126 572 188 614 l 90 639 q 229 712 161 688 q 368 736 297 736 q 579 660 501 736 q 657 449 657 583 l 657 114 q 665 85 657 94 q 692 75 674 76 l 692 0 q 665 -3 676 -1 q 649 -3 654 -4 q 596 19 614 -1 q 576 64 578 40 l 575 117 q 449 20 526 54 q 290 -14 371 -14 q 165 16 221 -14 q 77 97 108 46 q 46 208 46 147 m 531 153 q 554 190 546 172 q 563 222 563 208 l 563 328 q 465 356 515 346 q 363 365 414 365 q 199 325 261 365 q 136 215 136 285 q 157 140 136 175 q 218 81 178 104 q 313 58 258 58 q 440 85 381 58 q 531 153 499 111 z "},"ậ":{"ha":757,"x_min":46,"x_max":692,"o":"m 46 208 q 85 326 46 276 q 192 402 124 375 q 351 429 261 429 q 461 421 404 429 q 563 396 518 413 l 563 457 q 508 603 563 549 q 358 657 454 657 q 244 635 300 657 q 126 572 188 614 l 90 639 q 229 712 161 688 q 368 736 297 736 q 579 660 501 736 q 657 449 657 583 l 657 114 q 665 85 657 94 q 692 75 674 76 l 692 0 q 665 -3 676 -1 q 649 -3 654 -4 q 596 19 614 -1 q 576 64 578 40 l 575 117 q 449 20 526 54 q 290 -14 371 -14 q 165 16 221 -14 q 77 97 108 46 q 46 208 46 147 m 531 153 q 554 190 546 172 q 563 222 563 208 l 563 328 q 465 356 515 346 q 363 365 414 365 q 199 325 261 365 q 136 215 136 285 q 157 140 136 175 q 218 81 178 104 q 313 58 258 58 q 440 85 381 58 q 531 153 499 111 m 360 -235 l 360 -100 l 446 -100 l 446 -235 l 360 -235 m 194 896 l 331 1014 l 400 1014 l 538 896 l 483 867 l 365 954 l 247 867 l 194 896 z "},"ầ":{"ha":757,"x_min":46,"x_max":692,"o":"m 46 208 q 85 326 46 276 q 192 402 124 375 q 351 429 261 429 q 461 421 404 429 q 563 396 518 413 l 563 457 q 508 603 563 549 q 358 657 454 657 q 244 635 300 657 q 126 572 188 614 l 90 639 q 229 712 161 688 q 368 736 297 736 q 579 660 501 736 q 657 449 657 583 l 657 114 q 665 85 657 94 q 692 75 674 76 l 692 0 q 665 -3 676 -1 q 649 -3 654 -4 q 596 19 614 -1 q 576 64 578 40 l 575 117 q 449 20 526 54 q 290 -14 371 -14 q 165 16 221 -14 q 77 97 108 46 q 46 208 46 147 m 531 153 q 554 190 546 172 q 563 222 563 208 l 563 328 q 465 356 515 346 q 363 365 414 365 q 199 325 261 365 q 136 215 136 285 q 157 140 136 175 q 218 81 178 104 q 313 58 258 58 q 440 85 381 58 q 531 153 499 111 z "},"ẩ":{"ha":757,"x_min":46,"x_max":692,"o":"m 46 208 q 85 326 46 276 q 192 402 124 375 q 351 429 261 429 q 461 421 404 429 q 563 396 518 413 l 563 457 q 508 603 563 549 q 358 657 454 657 q 244 635 300 657 q 126 572 188 614 l 90 639 q 229 712 161 688 q 368 736 297 736 q 579 660 501 736 q 657 449 657 583 l 657 114 q 665 85 657 94 q 692 75 674 76 l 692 0 q 665 -3 676 -1 q 649 -3 654 -4 q 596 19 614 -1 q 576 64 578 40 l 575 117 q 449 20 526 54 q 290 -14 371 -14 q 165 16 221 -14 q 77 97 108 46 q 46 208 46 147 m 531 153 q 554 190 546 172 q 563 222 563 208 l 563 328 q 465 356 515 346 q 363 365 414 365 q 199 325 261 365 q 136 215 136 285 q 157 140 136 175 q 218 81 178 104 q 313 58 258 58 q 440 85 381 58 q 531 153 499 111 z "},"ẫ":{"ha":757,"x_min":46,"x_max":692,"o":"m 46 208 q 85 326 46 276 q 192 402 124 375 q 351 429 261 429 q 461 421 404 429 q 563 396 518 413 l 563 457 q 508 603 563 549 q 358 657 454 657 q 244 635 300 657 q 126 572 188 614 l 90 639 q 229 712 161 688 q 368 736 297 736 q 579 660 501 736 q 657 449 657 583 l 657 114 q 665 85 657 94 q 692 75 674 76 l 692 0 q 665 -3 676 -1 q 649 -3 654 -4 q 596 19 614 -1 q 576 64 578 40 l 575 117 q 449 20 526 54 q 290 -14 371 -14 q 165 16 221 -14 q 77 97 108 46 q 46 208 46 147 m 531 153 q 554 190 546 172 q 563 222 563 208 l 563 328 q 465 356 515 346 q 363 365 414 365 q 199 325 261 365 q 136 215 136 285 q 157 140 136 175 q 218 81 178 104 q 313 58 258 58 q 440 85 381 58 q 531 153 499 111 z "},"ȁ":{"ha":757,"x_min":46,"x_max":692,"o":"m 46 208 q 85 326 46 276 q 192 402 124 375 q 351 429 261 429 q 461 421 404 429 q 563 396 518 413 l 563 457 q 508 603 563 549 q 358 657 454 657 q 244 635 300 657 q 126 572 188 614 l 90 639 q 229 712 161 688 q 368 736 297 736 q 579 660 501 736 q 657 449 657 583 l 657 114 q 665 85 657 94 q 692 75 674 76 l 692 0 q 665 -3 676 -1 q 649 -3 654 -4 q 596 19 614 -1 q 576 64 578 40 l 575 117 q 449 20 526 54 q 290 -14 371 -14 q 165 16 221 -14 q 77 97 108 46 q 46 208 46 147 m 531 153 q 554 190 546 172 q 563 222 563 208 l 563 328 q 465 356 515 346 q 363 365 414 365 q 199 325 261 365 q 136 215 136 285 q 157 140 136 175 q 218 81 178 104 q 313 58 258 58 q 440 85 381 58 q 531 153 499 111 m 328 1015 l 415 1015 l 494 886 l 443 863 l 328 1015 m 153 1015 l 242 1015 l 321 886 l 269 863 l 153 1015 z "},"ä":{"ha":757,"x_min":46,"x_max":692,"o":"m 46 208 q 85 326 46 276 q 192 402 124 375 q 351 429 261 429 q 461 421 404 429 q 563 396 518 413 l 563 457 q 508 603 563 549 q 358 657 454 657 q 244 635 300 657 q 126 572 188 614 l 90 639 q 229 712 161 688 q 368 736 297 736 q 579 660 501 736 q 657 449 657 583 l 657 114 q 665 85 657 94 q 692 75 674 76 l 692 0 q 665 -3 676 -1 q 649 -3 654 -4 q 596 19 614 -1 q 576 64 578 40 l 575 117 q 449 20 526 54 q 290 -14 371 -14 q 165 16 221 -14 q 77 97 108 46 q 46 208 46 147 m 531 153 q 554 190 546 172 q 563 222 563 208 l 563 328 q 465 356 515 346 q 363 365 414 365 q 199 325 261 365 q 136 215 136 285 q 157 140 136 175 q 218 81 178 104 q 313 58 258 58 q 440 85 381 58 q 531 153 499 111 m 222 881 l 222 1011 l 303 1011 l 303 881 l 222 881 m 429 881 l 429 1011 l 510 1011 l 510 881 l 429 881 z "},"ạ":{"ha":757,"x_min":46,"x_max":692,"o":"m 46 208 q 85 326 46 276 q 192 402 124 375 q 351 429 261 429 q 461 421 404 429 q 563 396 518 413 l 563 457 q 508 603 563 549 q 358 657 454 657 q 244 635 300 657 q 126 572 188 614 l 90 639 q 229 712 161 688 q 368 736 297 736 q 579 660 501 736 q 657 449 657 583 l 657 114 q 665 85 657 94 q 692 75 674 76 l 692 0 q 665 -3 676 -1 q 649 -3 654 -4 q 596 19 614 -1 q 576 64 578 40 l 575 117 q 449 20 526 54 q 290 -14 371 -14 q 165 16 221 -14 q 77 97 108 46 q 46 208 46 147 m 531 153 q 554 190 546 172 q 563 222 563 208 l 563 328 q 465 356 515 346 q 363 365 414 365 q 199 325 261 365 q 136 215 136 285 q 157 140 136 175 q 218 81 178 104 q 313 58 258 58 q 440 85 381 58 q 531 153 499 111 m 360 -235 l 360 -100 l 446 -100 l 446 -235 l 360 -235 z "},"à":{"ha":757,"x_min":46,"x_max":692,"o":"m 46 208 q 85 326 46 276 q 192 402 124 375 q 351 429 261 429 q 461 421 404 429 q 563 396 518 413 l 563 457 q 508 603 563 549 q 358 657 454 657 q 244 635 300 657 q 126 572 188 614 l 90 639 q 229 712 161 688 q 368 736 297 736 q 579 660 501 736 q 657 449 657 583 l 657 114 q 665 85 657 94 q 692 75 674 76 l 692 0 q 665 -3 676 -1 q 649 -3 654 -4 q 596 19 614 -1 q 576 64 578 40 l 575 117 q 449 20 526 54 q 290 -14 371 -14 q 165 16 221 -14 q 77 97 108 46 q 46 208 46 147 m 531 153 q 554 190 546 172 q 563 222 563 208 l 563 328 q 465 356 515 346 q 363 365 414 365 q 199 325 261 365 q 136 215 136 285 q 157 140 136 175 q 218 81 178 104 q 313 58 258 58 q 440 85 381 58 q 531 153 499 111 m 236 1015 l 335 1015 l 418 886 l 357 863 l 236 1015 z "},"ả":{"ha":757,"x_min":46,"x_max":692,"o":"m 46 208 q 85 326 46 276 q 192 402 124 375 q 351 429 261 429 q 461 421 404 429 q 563 396 518 413 l 563 457 q 508 603 563 549 q 358 657 454 657 q 244 635 300 657 q 126 572 188 614 l 90 639 q 229 712 161 688 q 368 736 297 736 q 579 660 501 736 q 657 449 657 583 l 657 114 q 665 85 657 94 q 692 75 674 76 l 692 0 q 665 -3 676 -1 q 649 -3 654 -4 q 596 19 614 -1 q 576 64 578 40 l 575 117 q 449 20 526 54 q 290 -14 371 -14 q 165 16 221 -14 q 77 97 108 46 q 46 208 46 147 m 531 153 q 554 190 546 172 q 563 222 563 208 l 563 328 q 465 356 515 346 q 363 365 414 365 q 199 325 261 365 q 136 215 136 285 q 157 140 136 175 q 218 81 178 104 q 313 58 258 58 q 440 85 381 58 q 531 153 499 111 m 301 961 l 264 999 q 315 1033 289 1021 q 374 1046 342 1046 q 443 1019 419 1046 q 467 958 467 993 q 449 903 467 931 q 396 844 432 876 l 367 878 q 399 917 390 900 q 408 950 408 933 q 397 981 408 968 q 365 993 386 993 q 334 986 347 993 q 301 961 321 979 z "},"ȃ":{"ha":757,"x_min":46,"x_max":692,"o":"m 46 208 q 85 326 46 276 q 192 402 124 375 q 351 429 261 429 q 461 421 404 429 q 563 396 518 413 l 563 457 q 508 603 563 549 q 358 657 454 657 q 244 635 300 657 q 126 572 188 614 l 90 639 q 229 712 161 688 q 368 736 297 736 q 579 660 501 736 q 657 449 657 583 l 657 114 q 665 85 657 94 q 692 75 674 76 l 692 0 q 665 -3 676 -1 q 649 -3 654 -4 q 596 19 614 -1 q 576 64 578 40 l 575 117 q 449 20 526 54 q 290 -14 371 -14 q 165 16 221 -14 q 77 97 108 46 q 46 208 46 147 m 531 153 q 554 190 546 172 q 563 222 563 208 l 563 328 q 465 356 515 346 q 363 365 414 365 q 199 325 261 365 q 136 215 136 285 q 157 140 136 175 q 218 81 178 104 q 313 58 258 58 q 440 85 381 58 q 531 153 499 111 m 365 965 q 311 938 335 965 q 288 874 288 910 l 229 874 q 269 973 229 932 q 365 1014 308 1014 q 462 973 422 1014 q 501 874 501 932 l 444 874 q 417 939 440 913 q 365 965 394 965 z "},"ā":{"ha":757,"x_min":46,"x_max":692,"o":"m 46 208 q 85 326 46 276 q 192 402 124 375 q 351 429 261 429 q 461 421 404 429 q 563 396 518 413 l 563 457 q 508 603 563 549 q 358 657 454 657 q 244 635 300 657 q 126 572 188 614 l 90 639 q 229 712 161 688 q 368 736 297 736 q 579 660 501 736 q 657 449 657 583 l 657 114 q 665 85 657 94 q 692 75 674 76 l 692 0 q 665 -3 676 -1 q 649 -3 654 -4 q 596 19 614 -1 q 576 64 578 40 l 575 117 q 449 20 526 54 q 290 -14 371 -14 q 165 16 221 -14 q 77 97 108 46 q 46 208 46 147 m 531 153 q 554 190 546 172 q 563 222 563 208 l 563 328 q 465 356 515 346 q 363 365 414 365 q 199 325 261 365 q 136 215 136 285 q 157 140 136 175 q 218 81 178 104 q 313 58 258 58 q 440 85 381 58 q 531 153 499 111 m 167 921 l 167 986 l 568 986 l 568 921 l 167 921 z "},"ą":{"ha":757,"x_min":46,"x_max":692,"o":"m 46 208 q 85 326 46 276 q 192 402 124 375 q 351 429 261 429 q 461 421 404 429 q 563 396 518 413 l 563 457 q 508 603 563 549 q 358 657 454 657 q 244 635 300 657 q 126 572 188 614 l 90 639 q 229 712 161 688 q 368 736 297 736 q 579 660 501 736 q 657 449 657 583 l 657 114 q 665 85 657 94 q 692 75 674 76 l 692 0 q 665 -3 676 -1 q 649 -3 654 -4 q 596 19 614 -1 q 576 64 578 40 l 575 117 q 449 20 526 54 q 290 -14 371 -14 q 165 16 221 -14 q 77 97 108 46 q 46 208 46 147 m 531 153 q 554 190 546 172 q 563 222 563 208 l 563 328 q 465 356 515 346 q 363 365 414 365 q 199 325 261 365 q 136 215 136 285 q 157 140 136 175 q 218 81 178 104 q 313 58 258 58 q 440 85 381 58 q 531 153 499 111 m 517 -146 q 548 -62 517 -103 q 642 22 579 -21 l 668 22 l 692 0 q 609 -74 635 -43 q 583 -133 583 -106 q 610 -172 583 -160 q 689 -190 638 -185 l 665 -253 q 573 -230 606 -246 q 528 -192 540 -214 q 517 -146 517 -169 z "},"å":{"ha":757,"x_min":46,"x_max":692,"o":"m 46 208 q 85 326 46 276 q 192 402 124 375 q 351 429 261 429 q 461 421 404 429 q 563 396 518 413 l 563 457 q 508 603 563 549 q 358 657 454 657 q 244 635 300 657 q 126 572 188 614 l 90 639 q 229 712 161 688 q 368 736 297 736 q 579 660 501 736 q 657 449 657 583 l 657 114 q 665 85 657 94 q 692 75 674 76 l 692 0 q 665 -3 676 -1 q 649 -3 654 -4 q 596 19 614 -1 q 576 64 578 40 l 575 117 q 449 20 526 54 q 290 -14 371 -14 q 165 16 221 -14 q 77 97 108 46 q 46 208 46 147 m 531 153 q 554 190 546 172 q 563 222 563 208 l 563 328 q 465 356 515 346 q 363 365 414 365 q 199 325 261 365 q 136 215 136 285 q 157 140 136 175 q 218 81 178 104 q 313 58 258 58 q 440 85 381 58 q 531 153 499 111 m 242 931 q 277 1015 242 982 q 365 1047 313 1047 q 454 1015 419 1047 q 489 931 489 982 q 454 847 489 879 q 365 815 419 815 q 277 847 313 815 q 242 931 242 879 m 365 999 q 317 981 338 999 q 297 931 297 963 q 317 882 297 901 q 365 863 336 863 q 413 881 392 863 q 435 931 435 900 q 414 981 435 963 q 365 999 393 999 z "},"ǻ":{"ha":757,"x_min":46,"x_max":692,"o":"m 46 208 q 85 326 46 276 q 192 402 124 375 q 351 429 261 429 q 461 421 404 429 q 563 396 518 413 l 563 457 q 508 603 563 549 q 358 657 454 657 q 244 635 300 657 q 126 572 188 614 l 90 639 q 229 712 161 688 q 368 736 297 736 q 579 660 501 736 q 657 449 657 583 l 657 114 q 665 85 657 94 q 692 75 674 76 l 692 0 q 665 -3 676 -1 q 649 -3 654 -4 q 596 19 614 -1 q 576 64 578 40 l 575 117 q 449 20 526 54 q 290 -14 371 -14 q 165 16 221 -14 q 77 97 108 46 q 46 208 46 147 m 531 153 q 554 190 546 172 q 563 222 563 208 l 563 328 q 465 356 515 346 q 363 365 414 365 q 199 325 261 365 q 136 215 136 285 q 157 140 136 175 q 218 81 178 104 q 313 58 258 58 q 440 85 381 58 q 531 153 499 111 m 242 931 q 277 1015 242 982 q 365 1047 313 1047 q 454 1015 419 1047 q 489 931 489 982 q 454 847 489 879 q 365 815 419 815 q 277 847 313 815 q 242 931 242 879 m 365 999 q 317 981 338 999 q 297 931 297 963 q 317 882 297 901 q 365 863 336 863 q 413 881 392 863 q 435 931 435 900 q 414 981 435 963 q 365 999 393 999 m 406 1121 l 343 1144 l 425 1274 l 525 1274 l 406 1121 z "},"ã":{"ha":757,"x_min":46,"x_max":692,"o":"m 46 208 q 85 326 46 276 q 192 402 124 375 q 351 429 261 429 q 461 421 404 429 q 563 396 518 413 l 563 457 q 508 603 563 549 q 358 657 454 657 q 244 635 300 657 q 126 572 188 614 l 90 639 q 229 712 161 688 q 368 736 297 736 q 579 660 501 736 q 657 449 657 583 l 657 114 q 665 85 657 94 q 692 75 674 76 l 692 0 q 665 -3 676 -1 q 649 -3 654 -4 q 596 19 614 -1 q 576 64 578 40 l 575 117 q 449 20 526 54 q 290 -14 371 -14 q 165 16 221 -14 q 77 97 108 46 q 46 208 46 147 m 531 153 q 554 190 546 172 q 563 222 563 208 l 563 328 q 465 356 515 346 q 363 365 414 365 q 199 325 261 365 q 136 215 136 285 q 157 140 136 175 q 218 81 178 104 q 313 58 258 58 q 440 85 381 58 q 531 153 499 111 m 450 886 q 379 900 408 886 q 326 928 350 914 q 272 942 303 942 q 227 927 242 942 q 208 896 213 913 q 203 875 203 879 l 144 875 q 149 903 144 882 q 168 947 154 924 q 206 987 182 969 q 271 1004 231 1004 q 337 990 310 1004 q 390 960 364 975 q 449 946 415 946 q 501 962 485 946 q 523 994 518 978 q 528 1014 528 1011 l 586 1014 q 581 987 586 1007 q 560 943 575 967 q 519 903 546 919 q 450 886 492 886 z "},"æ":{"ha":1294,"x_min":46,"x_max":1253,"o":"m 285 -14 q 163 16 217 -14 q 77 97 108 46 q 46 211 46 147 q 84 325 46 276 q 190 401 122 374 q 347 429 258 429 q 444 422 396 429 q 533 401 492 414 q 541 456 536 428 q 557 507 546 483 q 492 623 544 581 q 357 665 440 665 q 244 643 303 665 q 125 579 186 621 l 92 642 q 365 736 235 736 q 519 698 456 736 q 615 592 583 660 q 732 697 660 657 q 892 736 804 736 q 1078 685 997 736 q 1206 549 1160 633 q 1253 361 1253 465 q 1252 344 1253 354 q 1251 328 1251 333 l 622 328 q 667 190 629 250 q 767 94 706 129 q 900 58 828 58 q 1034 94 971 58 q 1121 189 1097 131 l 1204 167 q 1136 74 1182 115 q 1028 9 1090 32 q 896 -14 967 -14 q 724 30 801 -14 q 597 146 646 74 q 515 54 568 89 q 401 3 463 19 q 285 -14 340 -14 m 307 58 q 443 86 381 58 q 538 160 506 114 q 563 208 560 183 q 542 273 550 236 q 533 342 535 310 q 449 363 493 356 q 360 369 404 369 q 197 328 260 369 q 135 218 135 286 q 158 137 135 174 q 219 79 181 100 q 307 58 258 58 m 1163 392 q 1120 532 1157 471 q 1024 628 1083 593 q 890 663 965 663 q 758 628 818 663 q 663 532 699 593 q 622 392 626 471 l 1163 392 z "},"ǽ":{"ha":1294,"x_min":46,"x_max":1253,"o":"m 285 -14 q 163 16 217 -14 q 77 97 108 46 q 46 211 46 147 q 84 325 46 276 q 190 401 122 374 q 347 429 258 429 q 444 422 396 429 q 533 401 492 414 q 541 456 536 428 q 557 507 546 483 q 492 623 544 581 q 357 665 440 665 q 244 643 303 665 q 125 579 186 621 l 92 642 q 365 736 235 736 q 519 698 456 736 q 615 592 583 660 q 732 697 660 657 q 892 736 804 736 q 1078 685 997 736 q 1206 549 1160 633 q 1253 361 1253 465 q 1252 344 1253 354 q 1251 328 1251 333 l 622 328 q 667 190 629 250 q 767 94 706 129 q 900 58 828 58 q 1034 94 971 58 q 1121 189 1097 131 l 1204 167 q 1136 74 1182 115 q 1028 9 1090 32 q 896 -14 967 -14 q 724 30 801 -14 q 597 146 646 74 q 515 54 568 89 q 401 3 463 19 q 285 -14 340 -14 m 307 58 q 443 86 381 58 q 538 160 506 114 q 563 208 560 183 q 542 273 550 236 q 533 342 535 310 q 449 363 493 356 q 360 369 404 369 q 197 328 260 369 q 135 218 135 286 q 158 137 135 174 q 219 79 181 100 q 307 58 258 58 m 1163 392 q 1120 532 1157 471 q 1024 628 1083 593 q 890 663 965 663 q 758 628 818 663 q 663 532 699 593 q 622 392 626 471 l 1163 392 m 667 861 l 604 885 l 686 1014 l 786 1014 l 667 861 z "},"b":{"ha":857,"x_min":104,"x_max":801,"o":"m 458 -14 q 301 30 374 -14 q 189 140 229 74 l 189 0 l 104 0 l 104 1014 l 199 1014 l 199 572 q 315 691 247 646 q 474 736 383 736 q 610 704 550 736 q 714 619 671 672 q 779 498 757 565 q 801 360 801 431 q 776 217 801 283 q 703 98 750 150 q 594 16 656 46 q 458 -14 532 -14 m 436 69 q 544 93 494 69 q 631 158 594 117 q 686 252 667 200 q 706 360 706 304 q 673 503 706 436 q 583 612 640 571 q 447 653 525 653 q 344 628 392 653 q 259 562 296 603 q 199 472 222 521 l 199 247 q 228 177 204 210 q 287 121 251 144 q 361 83 322 97 q 436 69 400 69 z "},"c":{"ha":763,"x_min":54,"x_max":718,"o":"m 418 -14 q 273 16 339 -14 q 158 99 207 46 q 81 219 108 151 q 54 364 54 288 q 100 551 54 467 q 228 686 146 636 q 417 736 310 736 q 596 690 518 736 q 711 564 674 643 l 619 535 q 534 622 589 590 q 413 653 479 653 q 281 615 340 653 q 185 513 221 578 q 150 364 150 447 q 186 215 150 282 q 282 109 222 149 q 414 69 342 69 q 505 86 461 69 q 581 131 549 103 q 625 193 614 160 l 718 165 q 653 73 699 114 q 548 9 608 32 q 418 -14 488 -14 z "},"ć":{"ha":763,"x_min":54,"x_max":718,"o":"m 418 -14 q 273 16 339 -14 q 158 99 207 46 q 81 219 108 151 q 54 364 54 288 q 100 551 54 467 q 228 686 146 636 q 417 736 310 736 q 596 690 518 736 q 711 564 674 643 l 619 535 q 534 622 589 590 q 413 653 479 653 q 281 615 340 653 q 185 513 221 578 q 150 364 150 447 q 186 215 150 282 q 282 109 222 149 q 414 69 342 69 q 505 86 461 69 q 581 131 549 103 q 625 193 614 160 l 718 165 q 653 73 699 114 q 548 9 608 32 q 418 -14 488 -14 m 446 861 l 383 885 l 465 1014 l 565 1014 l 446 861 z "},"č":{"ha":763,"x_min":54,"x_max":718,"o":"m 418 -14 q 273 16 339 -14 q 158 99 207 46 q 81 219 108 151 q 54 364 54 288 q 100 551 54 467 q 228 686 146 636 q 417 736 310 736 q 596 690 518 736 q 711 564 674 643 l 619 535 q 534 622 589 590 q 413 653 479 653 q 281 615 340 653 q 185 513 221 578 q 150 364 150 447 q 186 215 150 282 q 282 109 222 149 q 414 69 342 69 q 505 86 461 69 q 581 131 549 103 q 625 193 614 160 l 718 165 q 653 73 699 114 q 548 9 608 32 q 418 -14 488 -14 m 296 1014 l 414 926 l 532 1014 l 586 986 l 449 867 l 379 867 l 243 986 l 296 1014 z "},"ç":{"ha":763,"x_min":54,"x_max":718,"o":"m 418 -14 q 273 16 339 -14 q 158 99 207 46 q 81 219 108 151 q 54 364 54 288 q 100 551 54 467 q 228 686 146 636 q 417 736 310 736 q 596 690 518 736 q 711 564 674 643 l 619 535 q 534 622 589 590 q 413 653 479 653 q 281 615 340 653 q 185 513 221 578 q 150 364 150 447 q 186 215 150 282 q 282 109 222 149 q 414 69 342 69 q 505 86 461 69 q 581 131 549 103 q 625 193 614 160 l 718 165 q 653 73 699 114 q 548 9 608 32 q 418 -14 488 -14 m 401 -250 q 324 -240 367 -250 q 243 -211 282 -231 l 271 -157 q 326 -179 300 -171 q 386 -187 353 -187 q 457 -170 432 -187 q 482 -117 482 -153 q 457 -53 482 -81 q 385 0 432 -26 l 425 26 q 513 -42 479 -7 q 546 -132 546 -78 q 507 -219 546 -187 q 401 -250 468 -250 z "},"ḉ":{"ha":763,"x_min":54,"x_max":718,"o":"m 418 -14 q 273 16 339 -14 q 158 99 207 46 q 81 219 108 151 q 54 364 54 288 q 100 551 54 467 q 228 686 146 636 q 417 736 310 736 q 596 690 518 736 q 711 564 674 643 l 619 535 q 534 622 589 590 q 413 653 479 653 q 281 615 340 653 q 185 513 221 578 q 150 364 150 447 q 186 215 150 282 q 282 109 222 149 q 414 69 342 69 q 505 86 461 69 q 581 131 549 103 q 625 193 614 160 l 718 165 q 653 73 699 114 q 548 9 608 32 q 418 -14 488 -14 m 401 -250 q 324 -240 367 -250 q 243 -211 282 -231 l 271 -157 q 326 -179 300 -171 q 386 -187 353 -187 q 457 -170 432 -187 q 482 -117 482 -153 q 457 -53 482 -81 q 385 0 432 -26 l 425 26 q 513 -42 479 -7 q 546 -132 546 -78 q 507 -219 546 -187 q 401 -250 468 -250 m 446 861 l 383 885 l 465 1014 l 565 1014 l 446 861 z "},"ĉ":{"ha":763,"x_min":54,"x_max":718,"o":"m 418 -14 q 273 16 339 -14 q 158 99 207 46 q 81 219 108 151 q 54 364 54 288 q 100 551 54 467 q 228 686 146 636 q 417 736 310 736 q 596 690 518 736 q 711 564 674 643 l 619 535 q 534 622 589 590 q 413 653 479 653 q 281 615 340 653 q 185 513 221 578 q 150 364 150 447 q 186 215 150 282 q 282 109 222 149 q 414 69 342 69 q 505 86 461 69 q 581 131 549 103 q 625 193 614 160 l 718 165 q 653 73 699 114 q 548 9 608 32 q 418 -14 488 -14 m 243 896 l 379 1014 l 449 1014 l 586 896 l 532 867 l 414 954 l 296 867 l 243 896 z "},"ċ":{"ha":763,"x_min":54,"x_max":718,"o":"m 418 -14 q 273 16 339 -14 q 158 99 207 46 q 81 219 108 151 q 54 364 54 288 q 100 551 54 467 q 228 686 146 636 q 417 736 310 736 q 596 690 518 736 q 711 564 674 643 l 619 535 q 534 622 589 590 q 413 653 479 653 q 281 615 340 653 q 185 513 221 578 q 150 364 150 447 q 186 215 150 282 q 282 109 222 149 q 414 69 342 69 q 505 86 461 69 q 581 131 549 103 q 625 193 614 160 l 718 165 q 653 73 699 114 q 548 9 608 32 q 418 -14 488 -14 m 371 879 l 371 1014 l 457 1014 l 457 879 l 371 879 z "},"d":{"ha":864,"x_min":56,"x_max":788,"o":"m 56 360 q 98 548 56 463 q 215 685 140 633 q 386 736 290 736 q 548 688 476 736 q 660 572 619 640 l 660 1014 l 754 1014 l 754 114 q 763 85 754 94 q 788 75 771 76 l 788 0 q 744 -3 760 -4 q 693 21 715 -1 q 671 69 671 43 l 671 140 q 554 28 628 69 q 401 -14 481 -14 q 263 17 326 -14 q 153 100 200 47 q 81 220 107 153 q 56 360 56 288 m 660 249 l 660 472 q 601 563 642 522 q 510 628 561 604 q 410 653 460 653 q 304 628 351 653 q 223 563 257 604 q 171 468 189 521 q 153 360 153 415 q 173 249 153 301 q 231 155 193 196 q 317 92 268 114 q 422 69 365 69 q 497 83 458 69 q 572 122 536 97 q 631 179 607 146 q 660 249 654 213 z "},"ð":{"ha":836,"x_min":58,"x_max":776,"o":"m 776 385 q 747 222 776 294 q 667 96 718 149 q 551 15 617 43 q 411 -14 486 -14 q 234 31 315 -14 q 106 153 153 76 q 58 324 58 231 q 85 452 58 392 q 158 559 111 513 q 266 632 204 606 q 399 658 328 658 q 567 613 490 658 q 681 496 643 568 q 645 628 669 563 q 575 758 621 693 q 453 887 529 822 q 264 1014 378 951 l 397 1014 q 585 869 511 947 q 701 708 658 790 q 760 542 743 625 q 776 385 776 460 m 154 322 q 189 195 154 253 q 283 103 224 138 q 414 69 342 69 q 549 106 489 69 q 644 203 608 143 q 681 335 681 264 q 645 459 681 404 q 550 547 610 514 q 418 579 490 579 q 285 544 346 579 q 190 451 225 510 q 154 322 154 393 m 688 949 l 546 861 l 515 850 l 346 744 l 315 788 l 482 889 l 510 899 l 657 990 l 688 949 z "},"ď":{"ha":864,"x_min":56,"x_max":988,"o":"m 56 360 q 98 548 56 463 q 215 685 140 633 q 386 736 290 736 q 548 688 476 736 q 660 572 619 640 l 660 1014 l 754 1014 l 754 114 q 763 85 754 94 q 788 75 771 76 l 788 0 q 744 -3 760 -4 q 693 21 715 -1 q 671 69 671 43 l 671 140 q 554 28 628 69 q 401 -14 481 -14 q 263 17 326 -14 q 153 100 200 47 q 81 220 107 153 q 56 360 56 288 m 660 249 l 660 472 q 601 563 642 522 q 510 628 561 604 q 410 653 460 653 q 304 628 351 653 q 223 563 257 604 q 171 468 189 521 q 153 360 153 415 q 173 249 153 301 q 231 155 193 196 q 317 92 268 114 q 422 69 365 69 q 497 83 458 69 q 572 122 536 97 q 631 179 607 146 q 660 249 654 213 m 868 861 l 806 885 l 888 1014 l 988 1014 l 868 861 z "},"đ":{"ha":864,"x_min":56,"x_max":851,"o":"m 501 857 l 501 921 l 851 921 l 851 857 l 501 857 m 56 360 q 98 548 56 463 q 215 685 140 633 q 386 736 290 736 q 548 688 476 736 q 660 572 619 640 l 660 1014 l 754 1014 l 754 114 q 763 85 754 94 q 788 75 771 76 l 788 0 q 744 -3 760 -4 q 693 21 715 -1 q 671 69 671 43 l 671 140 q 554 28 628 69 q 401 -14 481 -14 q 263 17 326 -14 q 153 100 200 47 q 81 220 107 153 q 56 360 56 288 m 660 249 l 660 472 q 601 563 642 522 q 510 628 561 604 q 410 653 460 653 q 304 628 351 653 q 223 563 257 604 q 171 468 189 521 q 153 360 153 415 q 173 249 153 301 q 231 155 193 196 q 317 92 268 114 q 422 69 365 69 q 497 83 458 69 q 572 122 536 97 q 631 179 607 146 q 660 249 654 213 z "},"ḍ":{"ha":864,"x_min":56,"x_max":788,"o":"m 56 360 q 98 548 56 463 q 215 685 140 633 q 386 736 290 736 q 548 688 476 736 q 660 572 619 640 l 660 1014 l 754 1014 l 754 114 q 763 85 754 94 q 788 75 771 76 l 788 0 q 744 -3 760 -4 q 693 21 715 -1 q 671 69 671 43 l 671 140 q 554 28 628 69 q 401 -14 481 -14 q 263 17 326 -14 q 153 100 200 47 q 81 220 107 153 q 56 360 56 288 m 660 249 l 660 472 q 601 563 642 522 q 510 628 561 604 q 410 653 460 653 q 304 628 351 653 q 223 563 257 604 q 171 468 189 521 q 153 360 153 415 q 173 249 153 301 q 231 155 193 196 q 317 92 268 114 q 422 69 365 69 q 497 83 458 69 q 572 122 536 97 q 631 179 607 146 q 660 249 654 213 m 389 -235 l 389 -100 l 475 -100 l 475 -235 l 389 -235 z "},"ḏ":{"ha":864,"x_min":56,"x_max":788,"o":"m 56 360 q 98 548 56 463 q 215 685 140 633 q 386 736 290 736 q 548 688 476 736 q 660 572 619 640 l 660 1014 l 754 1014 l 754 114 q 763 85 754 94 q 788 75 771 76 l 788 0 q 744 -3 760 -4 q 693 21 715 -1 q 671 69 671 43 l 671 140 q 554 28 628 69 q 401 -14 481 -14 q 263 17 326 -14 q 153 100 200 47 q 81 220 107 153 q 56 360 56 288 m 660 249 l 660 472 q 601 563 642 522 q 510 628 561 604 q 410 653 460 653 q 304 628 351 653 q 223 563 257 604 q 171 468 189 521 q 153 360 153 415 q 173 249 153 301 q 231 155 193 196 q 317 92 268 114 q 422 69 365 69 q 497 83 458 69 q 572 122 536 97 q 631 179 607 146 q 660 249 654 213 m 232 -179 l 232 -114 l 633 -114 l 633 -179 l 232 -179 z "},"e":{"ha":815,"x_min":54,"x_max":774,"o":"m 417 -14 q 272 16 339 -14 q 157 98 206 46 q 81 218 108 150 q 54 364 54 286 q 101 550 54 465 q 229 685 147 635 q 415 736 311 736 q 602 685 522 736 q 728 549 682 633 q 774 365 774 465 q 774 344 774 354 q 772 328 774 333 l 153 328 q 197 190 160 250 q 292 94 233 129 q 421 58 351 58 q 555 94 492 58 q 643 189 618 131 l 725 167 q 657 74 703 115 q 549 9 611 32 q 417 -14 488 -14 m 150 396 l 685 396 q 642 535 679 475 q 547 628 606 594 q 417 663 488 663 q 288 628 346 663 q 192 534 229 594 q 150 396 156 474 z "},"é":{"ha":815,"x_min":54,"x_max":774,"o":"m 417 -14 q 272 16 339 -14 q 157 98 206 46 q 81 218 108 150 q 54 364 54 286 q 101 550 54 465 q 229 685 147 635 q 415 736 311 736 q 602 685 522 736 q 728 549 682 633 q 774 365 774 465 q 774 344 774 354 q 772 328 774 333 l 153 328 q 197 190 160 250 q 292 94 233 129 q 421 58 351 58 q 555 94 492 58 q 643 189 618 131 l 725 167 q 657 74 703 115 q 549 9 611 32 q 417 -14 488 -14 m 150 396 l 685 396 q 642 535 679 475 q 547 628 606 594 q 417 663 488 663 q 288 628 346 663 q 192 534 229 594 q 150 396 156 474 m 444 861 l 382 885 l 464 1014 l 564 1014 l 444 861 z "},"ĕ":{"ha":815,"x_min":54,"x_max":774,"o":"m 417 -14 q 272 16 339 -14 q 157 98 206 46 q 81 218 108 150 q 54 364 54 286 q 101 550 54 465 q 229 685 147 635 q 415 736 311 736 q 602 685 522 736 q 728 549 682 633 q 774 365 774 465 q 774 344 774 354 q 772 328 774 333 l 153 328 q 197 190 160 250 q 292 94 233 129 q 421 58 351 58 q 555 94 492 58 q 643 189 618 131 l 725 167 q 657 74 703 115 q 549 9 611 32 q 417 -14 488 -14 m 150 396 l 685 396 q 642 535 679 475 q 547 628 606 594 q 417 663 488 663 q 288 628 346 663 q 192 534 229 594 q 150 396 156 474 m 413 922 q 465 949 442 922 q 492 1014 488 975 l 549 1014 q 509 915 549 956 q 413 874 469 874 q 316 915 356 874 q 276 1014 276 956 l 335 1014 q 358 950 335 978 q 413 922 382 922 z "},"ě":{"ha":815,"x_min":54,"x_max":774,"o":"m 417 -14 q 272 16 339 -14 q 157 98 206 46 q 81 218 108 150 q 54 364 54 286 q 101 550 54 465 q 229 685 147 635 q 415 736 311 736 q 602 685 522 736 q 728 549 682 633 q 774 365 774 465 q 774 344 774 354 q 772 328 774 333 l 153 328 q 197 190 160 250 q 292 94 233 129 q 421 58 351 58 q 555 94 492 58 q 643 189 618 131 l 725 167 q 657 74 703 115 q 549 9 611 32 q 417 -14 488 -14 m 150 396 l 685 396 q 642 535 679 475 q 547 628 606 594 q 417 663 488 663 q 288 628 346 663 q 192 534 229 594 q 150 396 156 474 m 294 1014 l 413 926 l 531 1014 l 585 986 l 447 867 l 378 867 l 242 986 l 294 1014 z "},"ḝ":{"ha":815,"x_min":54,"x_max":774,"o":"m 417 -14 q 272 16 339 -14 q 157 98 206 46 q 81 218 108 150 q 54 364 54 286 q 101 550 54 465 q 229 685 147 635 q 415 736 311 736 q 602 685 522 736 q 728 549 682 633 q 774 365 774 465 q 774 344 774 354 q 772 328 774 333 l 153 328 q 197 190 160 250 q 292 94 233 129 q 421 58 351 58 q 555 94 492 58 q 643 189 618 131 l 725 167 q 657 74 703 115 q 549 9 611 32 q 417 -14 488 -14 m 150 396 l 685 396 q 642 535 679 475 q 547 628 606 594 q 417 663 488 663 q 288 628 346 663 q 192 534 229 594 q 150 396 156 474 m 400 -250 q 323 -240 365 -250 q 242 -211 281 -231 l 269 -157 q 325 -179 299 -171 q 385 -187 351 -187 q 456 -170 431 -187 q 481 -117 481 -153 q 456 -53 481 -81 q 383 0 431 -26 l 424 26 q 511 -42 478 -7 q 544 -132 544 -78 q 506 -219 544 -187 q 400 -250 467 -250 m 413 922 q 465 949 442 922 q 492 1014 488 975 l 549 1014 q 509 915 549 956 q 413 874 469 874 q 316 915 356 874 q 276 1014 276 956 l 335 1014 q 358 950 335 978 q 413 922 382 922 z "},"ê":{"ha":815,"x_min":54,"x_max":774,"o":"m 417 -14 q 272 16 339 -14 q 157 98 206 46 q 81 218 108 150 q 54 364 54 286 q 101 550 54 465 q 229 685 147 635 q 415 736 311 736 q 602 685 522 736 q 728 549 682 633 q 774 365 774 465 q 774 344 774 354 q 772 328 774 333 l 153 328 q 197 190 160 250 q 292 94 233 129 q 421 58 351 58 q 555 94 492 58 q 643 189 618 131 l 725 167 q 657 74 703 115 q 549 9 611 32 q 417 -14 488 -14 m 150 396 l 685 396 q 642 535 679 475 q 547 628 606 594 q 417 663 488 663 q 288 628 346 663 q 192 534 229 594 q 150 396 156 474 m 242 896 l 378 1014 l 447 1014 l 585 896 l 531 867 l 413 954 l 294 867 l 242 896 z "},"ế":{"ha":815,"x_min":54,"x_max":774,"o":"m 417 -14 q 272 16 339 -14 q 157 98 206 46 q 81 218 108 150 q 54 364 54 286 q 101 550 54 465 q 229 685 147 635 q 415 736 311 736 q 602 685 522 736 q 728 549 682 633 q 774 365 774 465 q 774 344 774 354 q 772 328 774 333 l 153 328 q 197 190 160 250 q 292 94 233 129 q 421 58 351 58 q 555 94 492 58 q 643 189 618 131 l 725 167 q 657 74 703 115 q 549 9 611 32 q 417 -14 488 -14 m 150 396 l 685 396 q 642 535 679 475 q 547 628 606 594 q 417 663 488 663 q 288 628 346 663 q 192 534 229 594 q 150 396 156 474 z "},"ệ":{"ha":815,"x_min":54,"x_max":774,"o":"m 417 -14 q 272 16 339 -14 q 157 98 206 46 q 81 218 108 150 q 54 364 54 286 q 101 550 54 465 q 229 685 147 635 q 415 736 311 736 q 602 685 522 736 q 728 549 682 633 q 774 365 774 465 q 774 344 774 354 q 772 328 774 333 l 153 328 q 197 190 160 250 q 292 94 233 129 q 421 58 351 58 q 555 94 492 58 q 643 189 618 131 l 725 167 q 657 74 703 115 q 549 9 611 32 q 417 -14 488 -14 m 150 396 l 685 396 q 642 535 679 475 q 547 628 606 594 q 417 663 488 663 q 288 628 346 663 q 192 534 229 594 q 150 396 156 474 m 372 -235 l 372 -100 l 458 -100 l 458 -235 l 372 -235 m 242 896 l 378 1014 l 447 1014 l 585 896 l 531 867 l 413 954 l 294 867 l 242 896 z "},"ề":{"ha":815,"x_min":54,"x_max":774,"o":"m 417 -14 q 272 16 339 -14 q 157 98 206 46 q 81 218 108 150 q 54 364 54 286 q 101 550 54 465 q 229 685 147 635 q 415 736 311 736 q 602 685 522 736 q 728 549 682 633 q 774 365 774 465 q 774 344 774 354 q 772 328 774 333 l 153 328 q 197 190 160 250 q 292 94 233 129 q 421 58 351 58 q 555 94 492 58 q 643 189 618 131 l 725 167 q 657 74 703 115 q 549 9 611 32 q 417 -14 488 -14 m 150 396 l 685 396 q 642 535 679 475 q 547 628 606 594 q 417 663 488 663 q 288 628 346 663 q 192 534 229 594 q 150 396 156 474 z "},"ể":{"ha":815,"x_min":54,"x_max":774,"o":"m 417 -14 q 272 16 339 -14 q 157 98 206 46 q 81 218 108 150 q 54 364 54 286 q 101 550 54 465 q 229 685 147 635 q 415 736 311 736 q 602 685 522 736 q 728 549 682 633 q 774 365 774 465 q 774 344 774 354 q 772 328 774 333 l 153 328 q 197 190 160 250 q 292 94 233 129 q 421 58 351 58 q 555 94 492 58 q 643 189 618 131 l 725 167 q 657 74 703 115 q 549 9 611 32 q 417 -14 488 -14 m 150 396 l 685 396 q 642 535 679 475 q 547 628 606 594 q 417 663 488 663 q 288 628 346 663 q 192 534 229 594 q 150 396 156 474 z "},"ễ":{"ha":815,"x_min":54,"x_max":774,"o":"m 417 -14 q 272 16 339 -14 q 157 98 206 46 q 81 218 108 150 q 54 364 54 286 q 101 550 54 465 q 229 685 147 635 q 415 736 311 736 q 602 685 522 736 q 728 549 682 633 q 774 365 774 465 q 774 344 774 354 q 772 328 774 333 l 153 328 q 197 190 160 250 q 292 94 233 129 q 421 58 351 58 q 555 94 492 58 q 643 189 618 131 l 725 167 q 657 74 703 115 q 549 9 611 32 q 417 -14 488 -14 m 150 396 l 685 396 q 642 535 679 475 q 547 628 606 594 q 417 663 488 663 q 288 628 346 663 q 192 534 229 594 q 150 396 156 474 z "},"ȅ":{"ha":815,"x_min":54,"x_max":774,"o":"m 417 -14 q 272 16 339 -14 q 157 98 206 46 q 81 218 108 150 q 54 364 54 286 q 101 550 54 465 q 229 685 147 635 q 415 736 311 736 q 602 685 522 736 q 728 549 682 633 q 774 365 774 465 q 774 344 774 354 q 772 328 774 333 l 153 328 q 197 190 160 250 q 292 94 233 129 q 421 58 351 58 q 555 94 492 58 q 643 189 618 131 l 725 167 q 657 74 703 115 q 549 9 611 32 q 417 -14 488 -14 m 150 396 l 685 396 q 642 535 679 475 q 547 628 606 594 q 417 663 488 663 q 288 628 346 663 q 192 534 229 594 q 150 396 156 474 m 374 1015 l 461 1015 l 540 886 l 489 863 l 374 1015 m 199 1015 l 288 1015 l 367 886 l 315 863 l 199 1015 z "},"ë":{"ha":815,"x_min":54,"x_max":774,"o":"m 417 -14 q 272 16 339 -14 q 157 98 206 46 q 81 218 108 150 q 54 364 54 286 q 101 550 54 465 q 229 685 147 635 q 415 736 311 736 q 602 685 522 736 q 728 549 682 633 q 774 365 774 465 q 774 344 774 354 q 772 328 774 333 l 153 328 q 197 190 160 250 q 292 94 233 129 q 421 58 351 58 q 555 94 492 58 q 643 189 618 131 l 725 167 q 657 74 703 115 q 549 9 611 32 q 417 -14 488 -14 m 150 396 l 685 396 q 642 535 679 475 q 547 628 606 594 q 417 663 488 663 q 288 628 346 663 q 192 534 229 594 q 150 396 156 474 m 268 881 l 268 1011 l 349 1011 l 349 881 l 268 881 m 475 881 l 475 1011 l 556 1011 l 556 881 l 475 881 z "},"ė":{"ha":815,"x_min":54,"x_max":774,"o":"m 417 -14 q 272 16 339 -14 q 157 98 206 46 q 81 218 108 150 q 54 364 54 286 q 101 550 54 465 q 229 685 147 635 q 415 736 311 736 q 602 685 522 736 q 728 549 682 633 q 774 365 774 465 q 774 344 774 354 q 772 328 774 333 l 153 328 q 197 190 160 250 q 292 94 233 129 q 421 58 351 58 q 555 94 492 58 q 643 189 618 131 l 725 167 q 657 74 703 115 q 549 9 611 32 q 417 -14 488 -14 m 150 396 l 685 396 q 642 535 679 475 q 547 628 606 594 q 417 663 488 663 q 288 628 346 663 q 192 534 229 594 q 150 396 156 474 m 369 879 l 369 1014 l 456 1014 l 456 879 l 369 879 z "},"ẹ":{"ha":815,"x_min":54,"x_max":774,"o":"m 417 -14 q 272 16 339 -14 q 157 98 206 46 q 81 218 108 150 q 54 364 54 286 q 101 550 54 465 q 229 685 147 635 q 415 736 311 736 q 602 685 522 736 q 728 549 682 633 q 774 365 774 465 q 774 344 774 354 q 772 328 774 333 l 153 328 q 197 190 160 250 q 292 94 233 129 q 421 58 351 58 q 555 94 492 58 q 643 189 618 131 l 725 167 q 657 74 703 115 q 549 9 611 32 q 417 -14 488 -14 m 150 396 l 685 396 q 642 535 679 475 q 547 628 606 594 q 417 663 488 663 q 288 628 346 663 q 192 534 229 594 q 150 396 156 474 m 372 -235 l 372 -100 l 458 -100 l 458 -235 l 372 -235 z "},"è":{"ha":815,"x_min":54,"x_max":774,"o":"m 417 -14 q 272 16 339 -14 q 157 98 206 46 q 81 218 108 150 q 54 364 54 286 q 101 550 54 465 q 229 685 147 635 q 415 736 311 736 q 602 685 522 736 q 728 549 682 633 q 774 365 774 465 q 774 344 774 354 q 772 328 774 333 l 153 328 q 197 190 160 250 q 292 94 233 129 q 421 58 351 58 q 555 94 492 58 q 643 189 618 131 l 725 167 q 657 74 703 115 q 549 9 611 32 q 417 -14 488 -14 m 150 396 l 685 396 q 642 535 679 475 q 547 628 606 594 q 417 663 488 663 q 288 628 346 663 q 192 534 229 594 q 150 396 156 474 m 283 1015 l 382 1015 l 465 886 l 404 863 l 283 1015 z "},"ẻ":{"ha":815,"x_min":54,"x_max":774,"o":"m 417 -14 q 272 16 339 -14 q 157 98 206 46 q 81 218 108 150 q 54 364 54 286 q 101 550 54 465 q 229 685 147 635 q 415 736 311 736 q 602 685 522 736 q 728 549 682 633 q 774 365 774 465 q 774 344 774 354 q 772 328 774 333 l 153 328 q 197 190 160 250 q 292 94 233 129 q 421 58 351 58 q 555 94 492 58 q 643 189 618 131 l 725 167 q 657 74 703 115 q 549 9 611 32 q 417 -14 488 -14 m 150 396 l 685 396 q 642 535 679 475 q 547 628 606 594 q 417 663 488 663 q 288 628 346 663 q 192 534 229 594 q 150 396 156 474 m 349 961 l 311 999 q 363 1033 336 1021 q 421 1046 389 1046 q 490 1019 467 1046 q 514 958 514 993 q 497 903 514 931 q 443 844 479 876 l 414 878 q 447 917 438 900 q 456 950 456 933 q 444 981 456 968 q 413 993 433 993 q 381 986 394 993 q 349 961 368 979 z "},"ȇ":{"ha":815,"x_min":54,"x_max":774,"o":"m 417 -14 q 272 16 339 -14 q 157 98 206 46 q 81 218 108 150 q 54 364 54 286 q 101 550 54 465 q 229 685 147 635 q 415 736 311 736 q 602 685 522 736 q 728 549 682 633 q 774 365 774 465 q 774 344 774 354 q 772 328 774 333 l 153 328 q 197 190 160 250 q 292 94 233 129 q 421 58 351 58 q 555 94 492 58 q 643 189 618 131 l 725 167 q 657 74 703 115 q 549 9 611 32 q 417 -14 488 -14 m 150 396 l 685 396 q 642 535 679 475 q 547 628 606 594 q 417 663 488 663 q 288 628 346 663 q 192 534 229 594 q 150 396 156 474 m 413 965 q 358 938 382 965 q 335 874 335 910 l 276 874 q 316 973 276 932 q 413 1014 356 1014 q 509 973 469 1014 q 549 874 549 932 l 492 874 q 465 939 488 913 q 413 965 442 965 z "},"ē":{"ha":815,"x_min":54,"x_max":774,"o":"m 417 -14 q 272 16 339 -14 q 157 98 206 46 q 81 218 108 150 q 54 364 54 286 q 101 550 54 465 q 229 685 147 635 q 415 736 311 736 q 602 685 522 736 q 728 549 682 633 q 774 365 774 465 q 774 344 774 354 q 772 328 774 333 l 153 328 q 197 190 160 250 q 292 94 233 129 q 421 58 351 58 q 555 94 492 58 q 643 189 618 131 l 725 167 q 657 74 703 115 q 549 9 611 32 q 417 -14 488 -14 m 150 396 l 685 396 q 642 535 679 475 q 547 628 606 594 q 417 663 488 663 q 288 628 346 663 q 192 534 229 594 q 150 396 156 474 m 213 921 l 213 986 l 614 986 l 614 921 l 213 921 z "},"ḗ":{"ha":815,"x_min":54,"x_max":774,"o":"m 417 -14 q 272 16 339 -14 q 157 98 206 46 q 81 218 108 150 q 54 364 54 286 q 101 550 54 465 q 229 685 147 635 q 415 736 311 736 q 602 685 522 736 q 728 549 682 633 q 774 365 774 465 q 774 344 774 354 q 772 328 774 333 l 153 328 q 197 190 160 250 q 292 94 233 129 q 421 58 351 58 q 555 94 492 58 q 643 189 618 131 l 725 167 q 657 74 703 115 q 549 9 611 32 q 417 -14 488 -14 m 150 396 l 685 396 q 642 535 679 475 q 547 628 606 594 q 417 663 488 663 q 288 628 346 663 q 192 534 229 594 q 150 396 156 474 m 213 921 l 213 986 l 614 986 l 614 921 l 213 921 m 446 1124 l 383 1147 l 465 1276 l 565 1276 l 446 1124 z "},"ḕ":{"ha":815,"x_min":54,"x_max":774,"o":"m 417 -14 q 272 16 339 -14 q 157 98 206 46 q 81 218 108 150 q 54 364 54 286 q 101 550 54 465 q 229 685 147 635 q 415 736 311 736 q 602 685 522 736 q 728 549 682 633 q 774 365 774 465 q 774 344 774 354 q 772 328 774 333 l 153 328 q 197 190 160 250 q 292 94 233 129 q 421 58 351 58 q 555 94 492 58 q 643 189 618 131 l 725 167 q 657 74 703 115 q 549 9 611 32 q 417 -14 488 -14 m 150 396 l 685 396 q 642 535 679 475 q 547 628 606 594 q 417 663 488 663 q 288 628 346 663 q 192 534 229 594 q 150 396 156 474 m 213 921 l 213 986 l 614 986 l 614 921 l 213 921 m 285 1278 l 383 1278 l 467 1149 l 406 1125 l 285 1278 z "},"ę":{"ha":815,"x_min":54,"x_max":774,"o":"m 417 -14 q 272 16 339 -14 q 157 98 206 46 q 81 218 108 150 q 54 364 54 286 q 101 550 54 465 q 229 685 147 635 q 415 736 311 736 q 602 685 522 736 q 728 549 682 633 q 774 365 774 465 q 774 344 774 354 q 772 328 774 333 l 153 328 q 197 190 160 250 q 292 94 233 129 q 421 58 351 58 q 555 94 492 58 q 643 189 618 131 l 725 167 q 657 74 703 115 q 549 9 611 32 q 417 -14 488 -14 m 150 396 l 685 396 q 642 535 679 475 q 547 628 606 594 q 417 663 488 663 q 288 628 346 663 q 192 534 229 594 q 150 396 156 474 m 342 -146 q 373 -62 342 -103 q 467 22 404 -21 l 493 22 l 517 0 q 434 -74 460 -43 q 408 -133 408 -106 q 435 -172 408 -160 q 514 -190 463 -185 l 490 -253 q 398 -230 431 -246 q 353 -192 365 -214 q 342 -146 342 -169 z "},"ẽ":{"ha":815,"x_min":54,"x_max":774,"o":"m 417 -14 q 272 16 339 -14 q 157 98 206 46 q 81 218 108 150 q 54 364 54 286 q 101 550 54 465 q 229 685 147 635 q 415 736 311 736 q 602 685 522 736 q 728 549 682 633 q 774 365 774 465 q 774 344 774 354 q 772 328 774 333 l 153 328 q 197 190 160 250 q 292 94 233 129 q 421 58 351 58 q 555 94 492 58 q 643 189 618 131 l 725 167 q 657 74 703 115 q 549 9 611 32 q 417 -14 488 -14 m 150 396 l 685 396 q 642 535 679 475 q 547 628 606 594 q 417 663 488 663 q 288 628 346 663 q 192 534 229 594 q 150 396 156 474 m 497 886 q 426 900 456 886 q 374 928 397 914 q 319 942 350 942 q 274 927 289 942 q 255 896 260 913 q 250 875 250 879 l 192 875 q 197 903 192 882 q 215 947 201 924 q 253 987 229 969 q 318 1004 278 1004 q 384 990 357 1004 q 437 960 411 975 q 496 946 463 946 q 549 962 532 946 q 570 994 565 978 q 575 1014 575 1011 l 633 1014 q 628 987 633 1007 q 608 943 622 967 q 566 903 593 919 q 497 886 539 886 z "},"ə":{"ha":815,"x_min":40,"x_max":761,"o":"m 403 -14 q 217 37 299 -14 q 88 173 135 88 q 40 360 42 258 q 41 378 40 368 q 43 394 42 388 l 661 394 q 618 533 656 472 q 522 628 581 593 q 394 663 464 663 q 260 626 322 663 q 172 533 199 590 l 90 556 q 158 649 113 608 q 266 713 204 689 q 399 736 328 736 q 544 706 478 736 q 658 624 610 676 q 734 503 707 572 q 761 357 761 435 q 715 171 761 256 q 589 36 669 86 q 403 -14 508 -14 m 403 58 q 531 94 475 58 q 624 190 588 129 q 664 329 660 251 l 133 329 q 176 189 139 250 q 274 93 214 128 q 403 58 333 58 z "},"f":{"ha":458,"x_min":39,"x_max":504,"o":"m 139 0 l 139 649 l 39 649 l 39 724 l 139 724 l 139 743 q 165 896 139 832 q 238 994 190 960 q 351 1028 286 1028 q 435 1015 394 1028 q 504 982 475 1003 l 475 914 q 428 938 457 929 q 369 946 399 946 q 269 894 304 946 q 233 746 233 843 l 233 724 l 433 724 l 433 649 l 233 649 l 233 0 l 139 0 z "},"g":{"ha":858,"x_min":56,"x_max":754,"o":"m 394 -10 q 258 21 321 -10 q 151 103 196 51 q 81 222 106 156 q 56 360 56 289 q 80 503 56 436 q 149 624 104 571 q 256 706 194 676 q 392 736 317 736 q 553 689 485 736 q 669 572 622 642 l 669 724 l 754 724 l 754 -3 q 706 -172 754 -103 q 577 -275 658 -240 q 400 -310 496 -310 q 200 -265 276 -310 q 75 -146 124 -221 l 133 -100 q 248 -201 176 -168 q 400 -235 319 -235 q 530 -209 471 -235 q 624 -132 589 -183 q 660 -3 660 -81 l 660 140 q 546 31 618 72 q 394 -10 474 -10 m 421 69 q 503 85 464 69 q 576 126 543 100 q 632 183 610 151 q 660 249 654 215 l 660 472 q 600 566 639 525 q 512 630 561 607 q 410 653 463 653 q 301 627 349 653 q 220 559 253 601 q 169 464 188 517 q 151 358 151 411 q 172 248 151 300 q 230 155 193 196 q 316 92 267 114 q 421 69 365 69 z "},"ğ":{"ha":858,"x_min":56,"x_max":754,"o":"m 394 -10 q 258 21 321 -10 q 151 103 196 51 q 81 222 106 156 q 56 360 56 289 q 80 503 56 436 q 149 624 104 571 q 256 706 194 676 q 392 736 317 736 q 553 689 485 736 q 669 572 622 642 l 669 724 l 754 724 l 754 -3 q 706 -172 754 -103 q 577 -275 658 -240 q 400 -310 496 -310 q 200 -265 276 -310 q 75 -146 124 -221 l 133 -100 q 248 -201 176 -168 q 400 -235 319 -235 q 530 -209 471 -235 q 624 -132 589 -183 q 660 -3 660 -81 l 660 140 q 546 31 618 72 q 394 -10 474 -10 m 421 69 q 503 85 464 69 q 576 126 543 100 q 632 183 610 151 q 660 249 654 215 l 660 472 q 600 566 639 525 q 512 630 561 607 q 410 653 463 653 q 301 627 349 653 q 220 559 253 601 q 169 464 188 517 q 151 358 151 411 q 172 248 151 300 q 230 155 193 196 q 316 92 267 114 q 421 69 365 69 m 418 922 q 470 949 447 922 q 497 1014 493 975 l 554 1014 q 515 915 554 956 q 418 874 475 874 q 322 915 361 874 q 282 1014 282 956 l 340 1014 q 364 950 340 978 q 418 922 388 922 z "},"ǧ":{"ha":858,"x_min":56,"x_max":754,"o":"m 394 -10 q 258 21 321 -10 q 151 103 196 51 q 81 222 106 156 q 56 360 56 289 q 80 503 56 436 q 149 624 104 571 q 256 706 194 676 q 392 736 317 736 q 553 689 485 736 q 669 572 622 642 l 669 724 l 754 724 l 754 -3 q 706 -172 754 -103 q 577 -275 658 -240 q 400 -310 496 -310 q 200 -265 276 -310 q 75 -146 124 -221 l 133 -100 q 248 -201 176 -168 q 400 -235 319 -235 q 530 -209 471 -235 q 624 -132 589 -183 q 660 -3 660 -81 l 660 140 q 546 31 618 72 q 394 -10 474 -10 m 421 69 q 503 85 464 69 q 576 126 543 100 q 632 183 610 151 q 660 249 654 215 l 660 472 q 600 566 639 525 q 512 630 561 607 q 410 653 463 653 q 301 627 349 653 q 220 559 253 601 q 169 464 188 517 q 151 358 151 411 q 172 248 151 300 q 230 155 193 196 q 316 92 267 114 q 421 69 365 69 m 300 1014 l 418 926 l 536 1014 l 590 986 l 453 867 l 383 867 l 247 986 l 300 1014 z "},"ĝ":{"ha":858,"x_min":56,"x_max":754,"o":"m 394 -10 q 258 21 321 -10 q 151 103 196 51 q 81 222 106 156 q 56 360 56 289 q 80 503 56 436 q 149 624 104 571 q 256 706 194 676 q 392 736 317 736 q 553 689 485 736 q 669 572 622 642 l 669 724 l 754 724 l 754 -3 q 706 -172 754 -103 q 577 -275 658 -240 q 400 -310 496 -310 q 200 -265 276 -310 q 75 -146 124 -221 l 133 -100 q 248 -201 176 -168 q 400 -235 319 -235 q 530 -209 471 -235 q 624 -132 589 -183 q 660 -3 660 -81 l 660 140 q 546 31 618 72 q 394 -10 474 -10 m 421 69 q 503 85 464 69 q 576 126 543 100 q 632 183 610 151 q 660 249 654 215 l 660 472 q 600 566 639 525 q 512 630 561 607 q 410 653 463 653 q 301 627 349 653 q 220 559 253 601 q 169 464 188 517 q 151 358 151 411 q 172 248 151 300 q 230 155 193 196 q 316 92 267 114 q 421 69 365 69 m 247 896 l 383 1014 l 453 1014 l 590 896 l 536 867 l 418 954 l 300 867 l 247 896 z "},"ģ":{"ha":858,"x_min":56,"x_max":754,"o":"m 394 -10 q 258 21 321 -10 q 151 103 196 51 q 81 222 106 156 q 56 360 56 289 q 80 503 56 436 q 149 624 104 571 q 256 706 194 676 q 392 736 317 736 q 553 689 485 736 q 669 572 622 642 l 669 724 l 754 724 l 754 -3 q 706 -172 754 -103 q 577 -275 658 -240 q 400 -310 496 -310 q 200 -265 276 -310 q 75 -146 124 -221 l 133 -100 q 248 -201 176 -168 q 400 -235 319 -235 q 530 -209 471 -235 q 624 -132 589 -183 q 660 -3 660 -81 l 660 140 q 546 31 618 72 q 394 -10 474 -10 m 421 69 q 503 85 464 69 q 576 126 543 100 q 632 183 610 151 q 660 249 654 215 l 660 472 q 600 566 639 525 q 512 630 561 607 q 410 653 463 653 q 301 627 349 653 q 220 559 253 601 q 169 464 188 517 q 151 358 151 411 q 172 248 151 300 q 230 155 193 196 q 316 92 267 114 q 421 69 365 69 m 457 1014 l 433 925 l 461 925 l 461 828 l 374 828 l 374 925 l 408 1014 l 457 1014 z "},"ġ":{"ha":858,"x_min":56,"x_max":754,"o":"m 394 -10 q 258 21 321 -10 q 151 103 196 51 q 81 222 106 156 q 56 360 56 289 q 80 503 56 436 q 149 624 104 571 q 256 706 194 676 q 392 736 317 736 q 553 689 485 736 q 669 572 622 642 l 669 724 l 754 724 l 754 -3 q 706 -172 754 -103 q 577 -275 658 -240 q 400 -310 496 -310 q 200 -265 276 -310 q 75 -146 124 -221 l 133 -100 q 248 -201 176 -168 q 400 -235 319 -235 q 530 -209 471 -235 q 624 -132 589 -183 q 660 -3 660 -81 l 660 140 q 546 31 618 72 q 394 -10 474 -10 m 421 69 q 503 85 464 69 q 576 126 543 100 q 632 183 610 151 q 660 249 654 215 l 660 472 q 600 566 639 525 q 512 630 561 607 q 410 653 463 653 q 301 627 349 653 q 220 559 253 601 q 169 464 188 517 q 151 358 151 411 q 172 248 151 300 q 230 155 193 196 q 316 92 267 114 q 421 69 365 69 m 375 879 l 375 1014 l 461 1014 l 461 879 l 375 879 z "},"ḡ":{"ha":858,"x_min":56,"x_max":754,"o":"m 394 -10 q 258 21 321 -10 q 151 103 196 51 q 81 222 106 156 q 56 360 56 289 q 80 503 56 436 q 149 624 104 571 q 256 706 194 676 q 392 736 317 736 q 553 689 485 736 q 669 572 622 642 l 669 724 l 754 724 l 754 -3 q 706 -172 754 -103 q 577 -275 658 -240 q 400 -310 496 -310 q 200 -265 276 -310 q 75 -146 124 -221 l 133 -100 q 248 -201 176 -168 q 400 -235 319 -235 q 530 -209 471 -235 q 624 -132 589 -183 q 660 -3 660 -81 l 660 140 q 546 31 618 72 q 394 -10 474 -10 m 421 69 q 503 85 464 69 q 576 126 543 100 q 632 183 610 151 q 660 249 654 215 l 660 472 q 600 566 639 525 q 512 630 561 607 q 410 653 463 653 q 301 627 349 653 q 220 559 253 601 q 169 464 188 517 q 151 358 151 411 q 172 248 151 300 q 230 155 193 196 q 316 92 267 114 q 421 69 365 69 m 218 921 l 218 986 l 619 986 l 619 921 l 218 921 z "},"h":{"ha":810,"x_min":104,"x_max":713,"o":"m 713 0 l 618 0 l 618 404 q 575 588 618 526 q 451 650 532 650 q 347 623 399 650 q 255 549 294 596 q 199 443 215 503 l 199 0 l 104 0 l 104 1014 l 199 1014 l 199 560 q 319 688 242 640 q 483 736 396 736 q 590 714 546 736 q 660 649 633 692 q 700 551 688 607 q 713 424 713 494 l 713 0 z "},"ħ":{"ha":810,"x_min":19,"x_max":713,"o":"m 19 857 l 19 921 l 369 921 l 369 857 l 19 857 m 713 0 l 618 0 l 618 404 q 575 588 618 526 q 451 650 532 650 q 347 623 399 650 q 255 549 294 596 q 199 443 215 503 l 199 0 l 104 0 l 104 1014 l 199 1014 l 199 560 q 319 688 242 640 q 483 736 396 736 q 590 714 546 736 q 660 649 633 692 q 700 551 688 607 q 713 424 713 494 l 713 0 z "},"ḫ":{"ha":810,"x_min":104,"x_max":713,"o":"m 713 0 l 618 0 l 618 404 q 575 588 618 526 q 451 650 532 650 q 347 623 399 650 q 255 549 294 596 q 199 443 215 503 l 199 0 l 104 0 l 104 1014 l 199 1014 l 199 560 q 319 688 242 640 q 483 736 396 736 q 590 714 546 736 q 660 649 633 692 q 700 551 688 607 q 713 424 713 494 l 713 0 m 406 -162 q 458 -136 435 -162 q 485 -71 481 -110 l 542 -71 q 502 -170 542 -129 q 406 -211 463 -211 q 309 -170 349 -211 q 269 -71 269 -129 l 328 -71 q 351 -135 328 -107 q 406 -162 375 -162 z "},"ĥ":{"ha":810,"x_min":104,"x_max":713,"o":"m 713 0 l 618 0 l 618 404 q 575 588 618 526 q 451 650 532 650 q 347 623 399 650 q 255 549 294 596 q 199 443 215 503 l 199 0 l 104 0 l 104 1014 l 199 1014 l 199 560 q 319 688 242 640 q 483 736 396 736 q 590 714 546 736 q 660 649 633 692 q 700 551 688 607 q 713 424 713 494 l 713 0 m 264 1158 l 400 1276 l 469 1276 l 607 1158 l 553 1129 l 435 1217 l 317 1129 l 264 1158 z "},"ḥ":{"ha":810,"x_min":104,"x_max":713,"o":"m 713 0 l 618 0 l 618 404 q 575 588 618 526 q 451 650 532 650 q 347 623 399 650 q 255 549 294 596 q 199 443 215 503 l 199 0 l 104 0 l 104 1014 l 199 1014 l 199 560 q 319 688 242 640 q 483 736 396 736 q 590 714 546 736 q 660 649 633 692 q 700 551 688 607 q 713 424 713 494 l 713 0 m 361 -235 l 361 -100 l 447 -100 l 447 -235 l 361 -235 z "},"i":{"ha":303,"x_min":104,"x_max":199,"o":"m 104 0 l 104 724 l 199 724 l 199 0 l 104 0 m 104 875 l 104 1014 l 199 1014 l 199 875 l 104 875 z "},"ı":{"ha":303,"x_min":104,"x_max":199,"o":"m 104 0 l 104 724 l 199 724 l 199 0 l 104 0 z "},"í":{"ha":303,"x_min":104,"x_max":304,"o":"m 104 0 l 104 724 l 199 724 l 199 0 l 104 0 m 183 861 l 121 885 l 203 1014 l 303 1014 l 183 861 z "},"ĭ":{"ha":303,"x_min":15,"x_max":288,"o":"m 104 0 l 104 724 l 199 724 l 199 0 l 104 0 m 151 922 q 203 949 181 922 q 231 1014 226 975 l 288 1014 q 248 915 288 956 q 151 874 208 874 q 55 915 94 874 q 15 1014 15 956 l 74 1014 q 97 950 74 978 q 151 922 121 922 z "},"î":{"ha":303,"x_min":-21,"x_max":322,"o":"m 104 0 l 104 724 l 199 724 l 199 0 l 104 0 m -19 896 l 117 1014 l 186 1014 l 324 896 l 269 867 l 151 954 l 33 867 l -19 896 z "},"ȉ":{"ha":303,"x_min":-61,"x_max":281,"o":"m 104 0 l 104 724 l 199 724 l 199 0 l 104 0 m 113 1015 l 200 1015 l 279 886 l 228 863 l 113 1015 m -62 1015 l 26 1015 l 106 886 l 54 863 l -62 1015 z "},"ï":{"ha":303,"x_min":8,"x_max":294,"o":"m 104 0 l 104 724 l 199 724 l 199 0 l 104 0 m 7 881 l 7 1011 l 88 1011 l 88 881 l 7 881 m 214 881 l 214 1011 l 294 1011 l 294 881 l 214 881 z "},"ḯ":{"ha":303,"x_min":8,"x_max":304,"o":"m 104 0 l 104 724 l 199 724 l 199 0 l 104 0 m 7 881 l 7 1011 l 88 1011 l 88 881 l 7 881 m 214 881 l 214 1011 l 294 1011 l 294 881 l 214 881 m 183 1139 l 121 1163 l 203 1292 l 303 1292 l 183 1139 z "},"ị":{"ha":303,"x_min":104,"x_max":199,"o":"m 104 0 l 104 724 l 199 724 l 199 0 l 104 0 m 104 875 l 104 1014 l 199 1014 l 199 875 l 104 875 m 108 -235 l 108 -100 l 194 -100 l 194 -235 l 108 -235 z "},"ì":{"ha":303,"x_min":21,"x_max":204,"o":"m 104 0 l 104 724 l 199 724 l 199 0 l 104 0 m 22 1015 l 121 1015 l 204 886 l 143 863 l 22 1015 z "},"ỉ":{"ha":303,"x_min":18,"x_max":221,"o":"m 104 0 l 104 724 l 199 724 l 199 0 l 104 0 m 56 919 l 18 957 q 69 992 43 979 q 128 1004 96 1004 q 197 978 174 1004 q 221 917 221 951 q 203 862 221 889 q 150 803 186 835 l 121 836 q 153 875 144 858 q 163 908 163 892 q 151 939 163 926 q 119 951 140 951 q 88 944 101 951 q 56 919 75 938 z "},"ȋ":{"ha":303,"x_min":15,"x_max":288,"o":"m 104 0 l 104 724 l 199 724 l 199 0 l 104 0 m 151 965 q 97 938 121 965 q 74 874 74 910 l 15 874 q 55 973 15 932 q 151 1014 94 1014 q 248 973 208 1014 q 288 874 288 932 l 231 874 q 203 939 226 913 q 151 965 181 965 z "},"ī":{"ha":303,"x_min":-49,"x_max":353,"o":"m 104 0 l 104 724 l 199 724 l 199 0 l 104 0 m -49 921 l -49 986 l 353 986 l 353 921 l -49 921 z "},"į":{"ha":303,"x_min":25,"x_max":199,"o":"m 104 0 l 104 724 l 199 724 l 199 0 l 104 0 m 104 875 l 104 1014 l 199 1014 l 199 875 l 104 875 m 24 -146 q 55 -62 24 -103 q 149 22 86 -21 l 175 22 l 199 0 q 116 -74 142 -43 q 90 -133 90 -106 q 117 -172 90 -160 q 196 -190 144 -185 l 172 -253 q 80 -230 113 -246 q 35 -192 47 -214 q 24 -146 24 -169 z "},"ĩ":{"ha":303,"x_min":-71,"x_max":372,"o":"m 104 0 l 104 724 l 199 724 l 199 0 l 104 0 m 236 886 q 165 900 194 886 q 113 928 136 914 q 58 942 89 942 q 13 927 28 942 q -6 896 -1 913 q -11 875 -11 879 l -69 875 q -65 903 -69 882 q -46 947 -60 924 q -8 987 -32 969 q 57 1004 17 1004 q 123 990 96 1004 q 176 960 150 975 q 235 946 201 946 q 288 962 271 946 q 309 994 304 978 q 314 1014 314 1011 l 372 1014 q 367 987 372 1007 q 347 943 361 967 q 305 903 332 919 q 236 886 278 886 z "},"j":{"ha":313,"x_min":-162,"x_max":208,"o":"m -4 -251 q -91 -239 -50 -251 q -162 -197 -132 -226 l -117 -133 q -69 -160 -96 -153 q -15 -167 -42 -167 q 47 -150 18 -167 q 95 -103 76 -133 q 114 -37 114 -74 l 114 724 l 208 724 l 208 -32 q 178 -146 208 -96 q 99 -224 147 -196 q -4 -251 50 -251 m 114 875 l 114 1014 l 208 1014 l 208 875 l 114 875 z "},"ȷ":{"ha":303,"x_min":-174,"x_max":199,"o":"m -15 -251 q -101 -239 -60 -251 q -174 -197 -142 -226 l -126 -133 q -78 -160 -106 -153 q -25 -167 -51 -167 q 38 -150 8 -167 q 85 -103 67 -133 q 104 -37 104 -74 l 104 724 l 199 724 l 199 -32 q 167 -146 199 -96 q 88 -224 136 -196 q -15 -251 40 -251 z "},"ĵ":{"ha":303,"x_min":-174,"x_max":322,"o":"m -15 -251 q -101 -239 -60 -251 q -174 -197 -142 -226 l -126 -133 q -78 -160 -106 -153 q -25 -167 -51 -167 q 38 -150 8 -167 q 85 -103 67 -133 q 104 -37 104 -74 l 104 724 l 199 724 l 199 -32 q 167 -146 199 -96 q 88 -224 136 -196 q -15 -251 40 -251 m -19 896 l 117 1014 l 186 1014 l 324 896 l 269 867 l 151 954 l 33 867 l -19 896 z "},"k":{"ha":736,"x_min":104,"x_max":724,"o":"m 621 0 l 353 371 l 199 226 l 199 0 l 104 0 l 104 1014 l 199 1014 l 199 328 l 608 722 l 713 722 l 417 426 l 724 0 l 621 0 z "},"ķ":{"ha":736,"x_min":104,"x_max":724,"o":"m 621 0 l 353 371 l 199 226 l 199 0 l 104 0 l 104 1014 l 199 1014 l 199 328 l 608 722 l 713 722 l 417 426 l 724 0 l 621 0 m 339 -276 l 363 -174 l 335 -174 l 335 -68 l 422 -68 l 422 -174 l 388 -276 l 339 -276 z "},"ĸ":{"ha":736,"x_min":104,"x_max":724,"o":"m 621 0 l 354 371 l 199 226 l 199 0 l 104 0 l 104 724 l 199 724 l 199 325 l 606 722 l 713 722 l 417 426 l 724 0 l 621 0 z "},"l":{"ha":378,"x_min":108,"x_max":379,"o":"m 108 1014 l 203 1014 l 203 164 q 222 93 203 110 q 269 76 242 76 q 319 82 294 76 q 363 93 344 88 l 379 17 q 315 -1 353 6 q 249 -8 276 -8 q 147 29 185 -8 q 108 132 108 67 l 108 1014 z "},"ĺ":{"ha":378,"x_min":108,"x_max":379,"o":"m 108 1014 l 203 1014 l 203 164 q 222 93 203 110 q 269 76 242 76 q 319 82 294 76 q 363 93 344 88 l 379 17 q 315 -1 353 6 q 249 -8 276 -8 q 147 29 185 -8 q 108 132 108 67 l 108 1014 m 189 1124 l 126 1147 l 208 1276 l 308 1276 l 189 1124 z "},"ľ":{"ha":378,"x_min":108,"x_max":449,"o":"m 108 1014 l 203 1014 l 203 164 q 222 93 203 110 q 269 76 242 76 q 319 82 294 76 q 363 93 344 88 l 379 17 q 315 -1 353 6 q 249 -8 276 -8 q 147 29 185 -8 q 108 132 108 67 l 108 1014 m 329 861 l 267 885 l 349 1014 l 449 1014 l 329 861 z "},"ļ":{"ha":378,"x_min":108,"x_max":379,"o":"m 108 1014 l 203 1014 l 203 164 q 222 93 203 110 q 269 76 242 76 q 319 82 294 76 q 363 93 344 88 l 379 17 q 315 -1 353 6 q 249 -8 276 -8 q 147 29 185 -8 q 108 132 108 67 l 108 1014 m 199 -276 l 222 -174 l 194 -174 l 194 -68 l 282 -68 l 282 -174 l 247 -276 l 199 -276 z "},"ŀ":{"ha":436,"x_min":108,"x_max":413,"o":"m 108 1014 l 203 1014 l 203 164 q 222 93 203 110 q 269 76 242 76 q 319 82 294 76 q 363 93 344 88 l 379 17 q 315 -1 353 6 q 249 -8 276 -8 q 147 29 185 -8 q 108 132 108 67 l 108 1014 m 332 342 l 332 497 l 414 497 l 414 342 l 332 342 z "},"ḷ":{"ha":378,"x_min":108,"x_max":379,"o":"m 108 1014 l 203 1014 l 203 164 q 222 93 203 110 q 269 76 242 76 q 319 82 294 76 q 363 93 344 88 l 379 17 q 315 -1 353 6 q 249 -8 276 -8 q 147 29 185 -8 q 108 132 108 67 l 108 1014 m 199 -235 l 199 -100 l 285 -100 l 285 -235 l 199 -235 z "},"ḻ":{"ha":378,"x_min":42,"x_max":442,"o":"m 108 1014 l 203 1014 l 203 164 q 222 93 203 110 q 269 76 242 76 q 319 82 294 76 q 363 93 344 88 l 379 17 q 315 -1 353 6 q 249 -8 276 -8 q 147 29 185 -8 q 108 132 108 67 l 108 1014 m 42 -179 l 42 -114 l 443 -114 l 443 -179 l 42 -179 z "},"ł":{"ha":406,"x_min":14,"x_max":406,"o":"m 46 401 l 14 456 l 353 724 l 386 669 l 46 401 m 135 1014 l 229 1014 l 229 164 q 248 93 229 110 q 296 76 267 76 q 346 82 321 76 q 389 93 371 88 l 406 17 q 341 -1 379 6 q 275 -8 303 -8 q 173 29 211 -8 q 135 132 135 67 l 135 1014 z "},"m":{"ha":1276,"x_min":104,"x_max":1181,"o":"m 1181 0 l 1086 0 l 1086 404 q 1046 590 1086 531 q 926 650 1006 650 q 780 592 844 650 q 689 442 715 533 l 689 0 l 594 0 l 594 404 q 556 591 594 532 q 436 650 517 650 q 290 593 356 650 q 199 443 225 536 l 199 0 l 104 0 l 104 724 l 190 724 l 190 560 q 308 690 236 644 q 467 736 379 736 q 613 685 557 736 q 681 550 668 633 q 801 689 731 642 q 960 736 871 736 q 1063 714 1021 736 q 1131 651 1106 692 q 1169 552 1157 610 q 1181 424 1181 494 l 1181 0 z "},"ṃ":{"ha":1276,"x_min":104,"x_max":1181,"o":"m 1181 0 l 1086 0 l 1086 404 q 1046 590 1086 531 q 926 650 1006 650 q 780 592 844 650 q 689 442 715 533 l 689 0 l 594 0 l 594 404 q 556 591 594 532 q 436 650 517 650 q 290 593 356 650 q 199 443 225 536 l 199 0 l 104 0 l 104 724 l 190 724 l 190 560 q 308 690 236 644 q 467 736 379 736 q 613 685 557 736 q 681 550 668 633 q 801 689 731 642 q 960 736 871 736 q 1063 714 1021 736 q 1131 651 1106 692 q 1169 552 1157 610 q 1181 424 1181 494 l 1181 0 m 594 -235 l 594 -100 l 681 -100 l 681 -235 l 594 -235 z "},"n":{"ha":810,"x_min":104,"x_max":713,"o":"m 713 0 l 618 0 l 618 404 q 581 591 618 532 q 463 650 543 650 q 353 623 407 650 q 258 549 299 596 q 199 443 217 503 l 199 0 l 104 0 l 104 724 l 190 724 l 190 560 q 267 652 219 613 q 374 714 314 692 q 497 736 433 736 q 599 714 557 736 q 665 651 640 692 q 701 552 690 610 q 713 424 713 494 l 713 0 z "},"ń":{"ha":810,"x_min":104,"x_max":713,"o":"m 713 0 l 618 0 l 618 404 q 581 591 618 532 q 463 650 543 650 q 353 623 407 650 q 258 549 299 596 q 199 443 217 503 l 199 0 l 104 0 l 104 724 l 190 724 l 190 560 q 267 652 219 613 q 374 714 314 692 q 497 736 433 736 q 599 714 557 736 q 665 651 640 692 q 701 552 690 610 q 713 424 713 494 l 713 0 m 444 861 l 382 885 l 464 1014 l 564 1014 l 444 861 z "},"ň":{"ha":810,"x_min":104,"x_max":713,"o":"m 713 0 l 618 0 l 618 404 q 581 591 618 532 q 463 650 543 650 q 353 623 407 650 q 258 549 299 596 q 199 443 217 503 l 199 0 l 104 0 l 104 724 l 190 724 l 190 560 q 267 652 219 613 q 374 714 314 692 q 497 736 433 736 q 599 714 557 736 q 665 651 640 692 q 701 552 690 610 q 713 424 713 494 l 713 0 m 293 1014 l 411 926 l 529 1014 l 583 986 l 446 867 l 376 867 l 240 986 l 293 1014 z "},"ņ":{"ha":810,"x_min":104,"x_max":713,"o":"m 713 0 l 618 0 l 618 404 q 581 591 618 532 q 463 650 543 650 q 353 623 407 650 q 258 549 299 596 q 199 443 217 503 l 199 0 l 104 0 l 104 724 l 190 724 l 190 560 q 267 652 219 613 q 374 714 314 692 q 497 736 433 736 q 599 714 557 736 q 665 651 640 692 q 701 552 690 610 q 713 424 713 494 l 713 0 m 360 -276 l 383 -174 l 356 -174 l 356 -68 l 443 -68 l 443 -174 l 408 -276 l 360 -276 z "},"ṅ":{"ha":810,"x_min":104,"x_max":713,"o":"m 713 0 l 618 0 l 618 404 q 581 591 618 532 q 463 650 543 650 q 353 623 407 650 q 258 549 299 596 q 199 443 217 503 l 199 0 l 104 0 l 104 724 l 190 724 l 190 560 q 267 652 219 613 q 374 714 314 692 q 497 736 433 736 q 599 714 557 736 q 665 651 640 692 q 701 552 690 610 q 713 424 713 494 l 713 0 m 368 879 l 368 1014 l 454 1014 l 454 879 l 368 879 z "},"ṇ":{"ha":810,"x_min":104,"x_max":713,"o":"m 713 0 l 618 0 l 618 404 q 581 591 618 532 q 463 650 543 650 q 353 623 407 650 q 258 549 299 596 q 199 443 217 503 l 199 0 l 104 0 l 104 724 l 190 724 l 190 560 q 267 652 219 613 q 374 714 314 692 q 497 736 433 736 q 599 714 557 736 q 665 651 640 692 q 701 552 690 610 q 713 424 713 494 l 713 0 m 360 -235 l 360 -100 l 446 -100 l 446 -235 l 360 -235 z "},"ŋ":{"ha":810,"x_min":104,"x_max":713,"o":"m 500 -251 q 413 -239 454 -251 q 342 -197 372 -226 l 388 -133 q 435 -160 408 -153 q 489 -167 463 -167 q 551 -150 522 -167 q 599 -103 581 -133 q 618 -37 618 -74 l 618 404 q 581 591 618 532 q 463 650 543 650 q 353 623 407 650 q 258 549 299 596 q 199 443 217 503 l 199 0 l 104 0 l 104 724 l 190 724 l 190 560 q 267 652 219 613 q 374 714 314 692 q 497 736 433 736 q 599 714 557 736 q 665 651 640 692 q 701 552 690 610 q 713 424 713 494 l 713 -32 q 682 -146 713 -96 q 603 -224 651 -196 q 500 -251 554 -251 z "},"ṉ":{"ha":810,"x_min":104,"x_max":713,"o":"m 713 0 l 618 0 l 618 404 q 581 591 618 532 q 463 650 543 650 q 353 623 407 650 q 258 549 299 596 q 199 443 217 503 l 199 0 l 104 0 l 104 724 l 190 724 l 190 560 q 267 652 219 613 q 374 714 314 692 q 497 736 433 736 q 599 714 557 736 q 665 651 640 692 q 701 552 690 610 q 713 424 713 494 l 713 0 m 201 -179 l 201 -114 l 603 -114 l 603 -179 l 201 -179 z "},"ñ":{"ha":810,"x_min":104,"x_max":713,"o":"m 713 0 l 618 0 l 618 404 q 581 591 618 532 q 463 650 543 650 q 353 623 407 650 q 258 549 299 596 q 199 443 217 503 l 199 0 l 104 0 l 104 724 l 190 724 l 190 560 q 267 652 219 613 q 374 714 314 692 q 497 736 433 736 q 599 714 557 736 q 665 651 640 692 q 701 552 690 610 q 713 424 713 494 l 713 0 m 496 886 q 425 900 454 886 q 372 928 396 914 q 318 942 349 942 q 273 927 288 942 q 253 896 258 913 q 249 875 249 879 l 190 875 q 195 903 190 882 q 214 947 200 924 q 252 987 228 969 q 317 1004 276 1004 q 383 990 356 1004 q 435 960 410 975 q 494 946 461 946 q 547 962 531 946 q 569 994 564 978 q 574 1014 574 1011 l 632 1014 q 626 987 632 1007 q 606 943 621 967 q 565 903 592 919 q 496 886 538 886 z "},"o":{"ha":826,"x_min":54,"x_max":772,"o":"m 413 -14 q 269 16 335 -14 q 155 98 203 46 q 81 217 107 150 q 54 360 54 285 q 81 505 54 438 q 156 624 107 572 q 270 706 204 676 q 414 736 336 736 q 557 706 492 736 q 671 624 622 676 q 746 505 719 572 q 772 360 772 438 q 746 217 772 285 q 672 98 719 150 q 558 16 624 46 q 413 -14 492 -14 m 150 358 q 185 212 150 278 q 281 108 221 146 q 413 69 340 69 q 544 108 485 69 q 640 215 604 147 q 676 361 676 282 q 640 508 676 442 q 544 614 604 575 q 413 653 485 653 q 281 613 340 653 q 186 506 222 572 q 150 358 150 440 z "},"ó":{"ha":826,"x_min":54,"x_max":772,"o":"m 413 -14 q 269 16 335 -14 q 155 98 203 46 q 81 217 107 150 q 54 360 54 285 q 81 505 54 438 q 156 624 107 572 q 270 706 204 676 q 414 736 336 736 q 557 706 492 736 q 671 624 622 676 q 746 505 719 572 q 772 360 772 438 q 746 217 772 285 q 672 98 719 150 q 558 16 624 46 q 413 -14 492 -14 m 150 358 q 185 212 150 278 q 281 108 221 146 q 413 69 340 69 q 544 108 485 69 q 640 215 604 147 q 676 361 676 282 q 640 508 676 442 q 544 614 604 575 q 413 653 485 653 q 281 613 340 653 q 186 506 222 572 q 150 358 150 440 m 446 861 l 383 885 l 465 1014 l 565 1014 l 446 861 z "},"ŏ":{"ha":826,"x_min":54,"x_max":772,"o":"m 413 -14 q 269 16 335 -14 q 155 98 203 46 q 81 217 107 150 q 54 360 54 285 q 81 505 54 438 q 156 624 107 572 q 270 706 204 676 q 414 736 336 736 q 557 706 492 736 q 671 624 622 676 q 746 505 719 572 q 772 360 772 438 q 746 217 772 285 q 672 98 719 150 q 558 16 624 46 q 413 -14 492 -14 m 150 358 q 185 212 150 278 q 281 108 221 146 q 413 69 340 69 q 544 108 485 69 q 640 215 604 147 q 676 361 676 282 q 640 508 676 442 q 544 614 604 575 q 413 653 485 653 q 281 613 340 653 q 186 506 222 572 q 150 358 150 440 m 413 922 q 465 949 442 922 q 492 1014 488 975 l 549 1014 q 509 915 549 956 q 413 874 469 874 q 316 915 356 874 q 276 1014 276 956 l 335 1014 q 358 950 335 978 q 413 922 382 922 z "},"ô":{"ha":826,"x_min":54,"x_max":772,"o":"m 413 -14 q 269 16 335 -14 q 155 98 203 46 q 81 217 107 150 q 54 360 54 285 q 81 505 54 438 q 156 624 107 572 q 270 706 204 676 q 414 736 336 736 q 557 706 492 736 q 671 624 622 676 q 746 505 719 572 q 772 360 772 438 q 746 217 772 285 q 672 98 719 150 q 558 16 624 46 q 413 -14 492 -14 m 150 358 q 185 212 150 278 q 281 108 221 146 q 413 69 340 69 q 544 108 485 69 q 640 215 604 147 q 676 361 676 282 q 640 508 676 442 q 544 614 604 575 q 413 653 485 653 q 281 613 340 653 q 186 506 222 572 q 150 358 150 440 m 242 896 l 378 1014 l 447 1014 l 585 896 l 531 867 l 413 954 l 294 867 l 242 896 z "},"ố":{"ha":826,"x_min":54,"x_max":772,"o":"m 413 -14 q 269 16 335 -14 q 155 98 203 46 q 81 217 107 150 q 54 360 54 285 q 81 505 54 438 q 156 624 107 572 q 270 706 204 676 q 414 736 336 736 q 557 706 492 736 q 671 624 622 676 q 746 505 719 572 q 772 360 772 438 q 746 217 772 285 q 672 98 719 150 q 558 16 624 46 q 413 -14 492 -14 m 150 358 q 185 212 150 278 q 281 108 221 146 q 413 69 340 69 q 544 108 485 69 q 640 215 604 147 q 676 361 676 282 q 640 508 676 442 q 544 614 604 575 q 413 653 485 653 q 281 613 340 653 q 186 506 222 572 q 150 358 150 440 z "},"ộ":{"ha":826,"x_min":54,"x_max":772,"o":"m 413 -14 q 269 16 335 -14 q 155 98 203 46 q 81 217 107 150 q 54 360 54 285 q 81 505 54 438 q 156 624 107 572 q 270 706 204 676 q 414 736 336 736 q 557 706 492 736 q 671 624 622 676 q 746 505 719 572 q 772 360 772 438 q 746 217 772 285 q 672 98 719 150 q 558 16 624 46 q 413 -14 492 -14 m 150 358 q 185 212 150 278 q 281 108 221 146 q 413 69 340 69 q 544 108 485 69 q 640 215 604 147 q 676 361 676 282 q 640 508 676 442 q 544 614 604 575 q 413 653 485 653 q 281 613 340 653 q 186 506 222 572 q 150 358 150 440 m 369 -235 l 369 -100 l 456 -100 l 456 -235 l 369 -235 m 242 896 l 378 1014 l 447 1014 l 585 896 l 531 867 l 413 954 l 294 867 l 242 896 z "},"ồ":{"ha":826,"x_min":54,"x_max":772,"o":"m 413 -14 q 269 16 335 -14 q 155 98 203 46 q 81 217 107 150 q 54 360 54 285 q 81 505 54 438 q 156 624 107 572 q 270 706 204 676 q 414 736 336 736 q 557 706 492 736 q 671 624 622 676 q 746 505 719 572 q 772 360 772 438 q 746 217 772 285 q 672 98 719 150 q 558 16 624 46 q 413 -14 492 -14 m 150 358 q 185 212 150 278 q 281 108 221 146 q 413 69 340 69 q 544 108 485 69 q 640 215 604 147 q 676 361 676 282 q 640 508 676 442 q 544 614 604 575 q 413 653 485 653 q 281 613 340 653 q 186 506 222 572 q 150 358 150 440 z "},"ổ":{"ha":826,"x_min":54,"x_max":772,"o":"m 413 -14 q 269 16 335 -14 q 155 98 203 46 q 81 217 107 150 q 54 360 54 285 q 81 505 54 438 q 156 624 107 572 q 270 706 204 676 q 414 736 336 736 q 557 706 492 736 q 671 624 622 676 q 746 505 719 572 q 772 360 772 438 q 746 217 772 285 q 672 98 719 150 q 558 16 624 46 q 413 -14 492 -14 m 150 358 q 185 212 150 278 q 281 108 221 146 q 413 69 340 69 q 544 108 485 69 q 640 215 604 147 q 676 361 676 282 q 640 508 676 442 q 544 614 604 575 q 413 653 485 653 q 281 613 340 653 q 186 506 222 572 q 150 358 150 440 z "},"ỗ":{"ha":826,"x_min":54,"x_max":772,"o":"m 413 -14 q 269 16 335 -14 q 155 98 203 46 q 81 217 107 150 q 54 360 54 285 q 81 505 54 438 q 156 624 107 572 q 270 706 204 676 q 414 736 336 736 q 557 706 492 736 q 671 624 622 676 q 746 505 719 572 q 772 360 772 438 q 746 217 772 285 q 672 98 719 150 q 558 16 624 46 q 413 -14 492 -14 m 150 358 q 185 212 150 278 q 281 108 221 146 q 413 69 340 69 q 544 108 485 69 q 640 215 604 147 q 676 361 676 282 q 640 508 676 442 q 544 614 604 575 q 413 653 485 653 q 281 613 340 653 q 186 506 222 572 q 150 358 150 440 z "},"ȍ":{"ha":826,"x_min":54,"x_max":772,"o":"m 413 -14 q 269 16 335 -14 q 155 98 203 46 q 81 217 107 150 q 54 360 54 285 q 81 505 54 438 q 156 624 107 572 q 270 706 204 676 q 414 736 336 736 q 557 706 492 736 q 671 624 622 676 q 746 505 719 572 q 772 360 772 438 q 746 217 772 285 q 672 98 719 150 q 558 16 624 46 q 413 -14 492 -14 m 150 358 q 185 212 150 278 q 281 108 221 146 q 413 69 340 69 q 544 108 485 69 q 640 215 604 147 q 676 361 676 282 q 640 508 676 442 q 544 614 604 575 q 413 653 485 653 q 281 613 340 653 q 186 506 222 572 q 150 358 150 440 m 375 1015 l 463 1015 l 542 886 l 490 863 l 375 1015 m 200 1015 l 289 1015 l 368 886 l 317 863 l 200 1015 z "},"ö":{"ha":826,"x_min":54,"x_max":772,"o":"m 413 -14 q 269 16 335 -14 q 155 98 203 46 q 81 217 107 150 q 54 360 54 285 q 81 505 54 438 q 156 624 107 572 q 270 706 204 676 q 414 736 336 736 q 557 706 492 736 q 671 624 622 676 q 746 505 719 572 q 772 360 772 438 q 746 217 772 285 q 672 98 719 150 q 558 16 624 46 q 413 -14 492 -14 m 150 358 q 185 212 150 278 q 281 108 221 146 q 413 69 340 69 q 544 108 485 69 q 640 215 604 147 q 676 361 676 282 q 640 508 676 442 q 544 614 604 575 q 413 653 485 653 q 281 613 340 653 q 186 506 222 572 q 150 358 150 440 m 269 881 l 269 1011 l 350 1011 l 350 881 l 269 881 m 476 881 l 476 1011 l 557 1011 l 557 881 l 476 881 z "},"ȫ":{"ha":826,"x_min":54,"x_max":772,"o":"m 413 -14 q 269 16 335 -14 q 155 98 203 46 q 81 217 107 150 q 54 360 54 285 q 81 505 54 438 q 156 624 107 572 q 270 706 204 676 q 414 736 336 736 q 557 706 492 736 q 671 624 622 676 q 746 505 719 572 q 772 360 772 438 q 746 217 772 285 q 672 98 719 150 q 558 16 624 46 q 413 -14 492 -14 m 150 358 q 185 212 150 278 q 281 108 221 146 q 413 69 340 69 q 544 108 485 69 q 640 215 604 147 q 676 361 676 282 q 640 508 676 442 q 544 614 604 575 q 413 653 485 653 q 281 613 340 653 q 186 506 222 572 q 150 358 150 440 m 269 881 l 269 1011 l 350 1011 l 350 881 l 269 881 m 476 881 l 476 1011 l 557 1011 l 557 881 l 476 881 m 213 1199 l 213 1264 l 614 1264 l 614 1199 l 213 1199 z "},"ȱ":{"ha":826,"x_min":54,"x_max":772,"o":"m 413 -14 q 269 16 335 -14 q 155 98 203 46 q 81 217 107 150 q 54 360 54 285 q 81 505 54 438 q 156 624 107 572 q 270 706 204 676 q 414 736 336 736 q 557 706 492 736 q 671 624 622 676 q 746 505 719 572 q 772 360 772 438 q 746 217 772 285 q 672 98 719 150 q 558 16 624 46 q 413 -14 492 -14 m 150 358 q 185 212 150 278 q 281 108 221 146 q 413 69 340 69 q 544 108 485 69 q 640 215 604 147 q 676 361 676 282 q 640 508 676 442 q 544 614 604 575 q 413 653 485 653 q 281 613 340 653 q 186 506 222 572 q 150 358 150 440 m 369 879 l 369 1014 l 456 1014 l 456 879 l 369 879 m 213 1211 l 213 1276 l 614 1276 l 614 1211 l 213 1211 z "},"ọ":{"ha":826,"x_min":54,"x_max":772,"o":"m 413 -14 q 269 16 335 -14 q 155 98 203 46 q 81 217 107 150 q 54 360 54 285 q 81 505 54 438 q 156 624 107 572 q 270 706 204 676 q 414 736 336 736 q 557 706 492 736 q 671 624 622 676 q 746 505 719 572 q 772 360 772 438 q 746 217 772 285 q 672 98 719 150 q 558 16 624 46 q 413 -14 492 -14 m 150 358 q 185 212 150 278 q 281 108 221 146 q 413 69 340 69 q 544 108 485 69 q 640 215 604 147 q 676 361 676 282 q 640 508 676 442 q 544 614 604 575 q 413 653 485 653 q 281 613 340 653 q 186 506 222 572 q 150 358 150 440 m 369 -235 l 369 -100 l 456 -100 l 456 -235 l 369 -235 z "},"ò":{"ha":826,"x_min":54,"x_max":772,"o":"m 413 -14 q 269 16 335 -14 q 155 98 203 46 q 81 217 107 150 q 54 360 54 285 q 81 505 54 438 q 156 624 107 572 q 270 706 204 676 q 414 736 336 736 q 557 706 492 736 q 671 624 622 676 q 746 505 719 572 q 772 360 772 438 q 746 217 772 285 q 672 98 719 150 q 558 16 624 46 q 413 -14 492 -14 m 150 358 q 185 212 150 278 q 281 108 221 146 q 413 69 340 69 q 544 108 485 69 q 640 215 604 147 q 676 361 676 282 q 640 508 676 442 q 544 614 604 575 q 413 653 485 653 q 281 613 340 653 q 186 506 222 572 q 150 358 150 440 m 283 1015 l 382 1015 l 465 886 l 404 863 l 283 1015 z "},"ỏ":{"ha":826,"x_min":54,"x_max":772,"o":"m 413 -14 q 269 16 335 -14 q 155 98 203 46 q 81 217 107 150 q 54 360 54 285 q 81 505 54 438 q 156 624 107 572 q 270 706 204 676 q 414 736 336 736 q 557 706 492 736 q 671 624 622 676 q 746 505 719 572 q 772 360 772 438 q 746 217 772 285 q 672 98 719 150 q 558 16 624 46 q 413 -14 492 -14 m 150 358 q 185 212 150 278 q 281 108 221 146 q 413 69 340 69 q 544 108 485 69 q 640 215 604 147 q 676 361 676 282 q 640 508 676 442 q 544 614 604 575 q 413 653 485 653 q 281 613 340 653 q 186 506 222 572 q 150 358 150 440 m 349 961 l 311 999 q 363 1033 336 1021 q 421 1046 389 1046 q 490 1019 467 1046 q 514 958 514 993 q 497 903 514 931 q 443 844 479 876 l 414 878 q 447 917 438 900 q 456 950 456 933 q 444 981 456 968 q 413 993 433 993 q 381 986 394 993 q 349 961 368 979 z "},"ơ":{"ha":826,"x_min":54,"x_max":772,"o":"m 413 -14 q 269 16 335 -14 q 155 98 203 46 q 81 217 107 150 q 54 360 54 285 q 81 505 54 438 q 156 624 107 572 q 270 706 204 676 q 414 736 336 736 q 557 706 492 736 q 671 624 622 676 q 746 505 719 572 q 772 360 772 438 q 746 217 772 285 q 672 98 719 150 q 558 16 624 46 q 413 -14 492 -14 m 150 358 q 185 212 150 278 q 281 108 221 146 q 413 69 340 69 q 544 108 485 69 q 640 215 604 147 q 676 361 676 282 q 640 508 676 442 q 544 614 604 575 q 413 653 485 653 q 281 613 340 653 q 186 506 222 572 q 150 358 150 440 m 500 654 l 501 725 q 574 733 547 725 q 614 757 600 742 q 631 794 626 774 q 636 842 635 814 l 717 842 q 711 794 715 817 q 698 751 707 771 q 674 711 689 731 q 631 680 657 693 q 571 660 604 667 q 500 654 538 654 z "},"ớ":{"ha":826,"x_min":54,"x_max":772,"o":"m 413 -14 q 269 16 335 -14 q 155 98 203 46 q 81 217 107 150 q 54 360 54 285 q 81 505 54 438 q 156 624 107 572 q 270 706 204 676 q 414 736 336 736 q 557 706 492 736 q 671 624 622 676 q 746 505 719 572 q 772 360 772 438 q 746 217 772 285 q 672 98 719 150 q 558 16 624 46 q 413 -14 492 -14 m 150 358 q 185 212 150 278 q 281 108 221 146 q 413 69 340 69 q 544 108 485 69 q 640 215 604 147 q 676 361 676 282 q 640 508 676 442 q 544 614 604 575 q 413 653 485 653 q 281 613 340 653 q 186 506 222 572 q 150 358 150 440 m 500 654 l 501 725 q 574 733 547 725 q 614 757 600 742 q 631 794 626 774 q 636 842 635 814 l 717 842 q 711 794 715 817 q 698 751 707 771 q 674 711 689 731 q 631 680 657 693 q 571 660 604 667 q 500 654 538 654 m 446 861 l 383 885 l 465 1014 l 565 1014 l 446 861 z "},"ợ":{"ha":826,"x_min":54,"x_max":772,"o":"m 413 -14 q 269 16 335 -14 q 155 98 203 46 q 81 217 107 150 q 54 360 54 285 q 81 505 54 438 q 156 624 107 572 q 270 706 204 676 q 414 736 336 736 q 557 706 492 736 q 671 624 622 676 q 746 505 719 572 q 772 360 772 438 q 746 217 772 285 q 672 98 719 150 q 558 16 624 46 q 413 -14 492 -14 m 150 358 q 185 212 150 278 q 281 108 221 146 q 413 69 340 69 q 544 108 485 69 q 640 215 604 147 q 676 361 676 282 q 640 508 676 442 q 544 614 604 575 q 413 653 485 653 q 281 613 340 653 q 186 506 222 572 q 150 358 150 440 m 500 654 l 501 725 q 574 733 547 725 q 614 757 600 742 q 631 794 626 774 q 636 842 635 814 l 717 842 q 711 794 715 817 q 698 751 707 771 q 674 711 689 731 q 631 680 657 693 q 571 660 604 667 q 500 654 538 654 m 369 -235 l 369 -100 l 456 -100 l 456 -235 l 369 -235 z "},"ờ":{"ha":826,"x_min":54,"x_max":772,"o":"m 413 -14 q 269 16 335 -14 q 155 98 203 46 q 81 217 107 150 q 54 360 54 285 q 81 505 54 438 q 156 624 107 572 q 270 706 204 676 q 414 736 336 736 q 557 706 492 736 q 671 624 622 676 q 746 505 719 572 q 772 360 772 438 q 746 217 772 285 q 672 98 719 150 q 558 16 624 46 q 413 -14 492 -14 m 150 358 q 185 212 150 278 q 281 108 221 146 q 413 69 340 69 q 544 108 485 69 q 640 215 604 147 q 676 361 676 282 q 640 508 676 442 q 544 614 604 575 q 413 653 485 653 q 281 613 340 653 q 186 506 222 572 q 150 358 150 440 m 500 654 l 501 725 q 574 733 547 725 q 614 757 600 742 q 631 794 626 774 q 636 842 635 814 l 717 842 q 711 794 715 817 q 698 751 707 771 q 674 711 689 731 q 631 680 657 693 q 571 660 604 667 q 500 654 538 654 m 283 1015 l 382 1015 l 465 886 l 404 863 l 283 1015 z "},"ở":{"ha":826,"x_min":54,"x_max":772,"o":"m 413 -14 q 269 16 335 -14 q 155 98 203 46 q 81 217 107 150 q 54 360 54 285 q 81 505 54 438 q 156 624 107 572 q 270 706 204 676 q 414 736 336 736 q 557 706 492 736 q 671 624 622 676 q 746 505 719 572 q 772 360 772 438 q 746 217 772 285 q 672 98 719 150 q 558 16 624 46 q 413 -14 492 -14 m 150 358 q 185 212 150 278 q 281 108 221 146 q 413 69 340 69 q 544 108 485 69 q 640 215 604 147 q 676 361 676 282 q 640 508 676 442 q 544 614 604 575 q 413 653 485 653 q 281 613 340 653 q 186 506 222 572 q 150 358 150 440 m 500 654 l 501 725 q 574 733 547 725 q 614 757 600 742 q 631 794 626 774 q 636 842 635 814 l 717 842 q 711 794 715 817 q 698 751 707 771 q 674 711 689 731 q 631 680 657 693 q 571 660 604 667 q 500 654 538 654 m 349 961 l 311 999 q 363 1033 336 1021 q 421 1046 389 1046 q 490 1019 467 1046 q 514 958 514 993 q 497 903 514 931 q 443 844 479 876 l 414 878 q 447 917 438 900 q 456 950 456 933 q 444 981 456 968 q 413 993 433 993 q 381 986 394 993 q 349 961 368 979 z "},"ỡ":{"ha":826,"x_min":54,"x_max":772,"o":"m 413 -14 q 269 16 335 -14 q 155 98 203 46 q 81 217 107 150 q 54 360 54 285 q 81 505 54 438 q 156 624 107 572 q 270 706 204 676 q 414 736 336 736 q 557 706 492 736 q 671 624 622 676 q 746 505 719 572 q 772 360 772 438 q 746 217 772 285 q 672 98 719 150 q 558 16 624 46 q 413 -14 492 -14 m 150 358 q 185 212 150 278 q 281 108 221 146 q 413 69 340 69 q 544 108 485 69 q 640 215 604 147 q 676 361 676 282 q 640 508 676 442 q 544 614 604 575 q 413 653 485 653 q 281 613 340 653 q 186 506 222 572 q 150 358 150 440 m 500 654 l 501 725 q 574 733 547 725 q 614 757 600 742 q 631 794 626 774 q 636 842 635 814 l 717 842 q 711 794 715 817 q 698 751 707 771 q 674 711 689 731 q 631 680 657 693 q 571 660 604 667 q 500 654 538 654 m 497 886 q 426 900 456 886 q 374 928 397 914 q 319 942 350 942 q 274 927 289 942 q 255 896 260 913 q 250 875 250 879 l 192 875 q 197 903 192 882 q 215 947 201 924 q 253 987 229 969 q 318 1004 278 1004 q 384 990 357 1004 q 437 960 411 975 q 496 946 463 946 q 549 962 532 946 q 570 994 565 978 q 575 1014 575 1011 l 633 1014 q 628 987 633 1007 q 608 943 622 967 q 566 903 593 919 q 497 886 539 886 z "},"ő":{"ha":826,"x_min":54,"x_max":772,"o":"m 413 -14 q 269 16 335 -14 q 155 98 203 46 q 81 217 107 150 q 54 360 54 285 q 81 505 54 438 q 156 624 107 572 q 270 706 204 676 q 414 736 336 736 q 557 706 492 736 q 671 624 622 676 q 746 505 719 572 q 772 360 772 438 q 746 217 772 285 q 672 98 719 150 q 558 16 624 46 q 413 -14 492 -14 m 150 358 q 185 212 150 278 q 281 108 221 146 q 413 69 340 69 q 544 108 485 69 q 640 215 604 147 q 676 361 676 282 q 640 508 676 442 q 544 614 604 575 q 413 653 485 653 q 281 613 340 653 q 186 506 222 572 q 150 358 150 440 m 325 863 l 274 886 l 353 1015 l 442 1015 l 325 863 m 500 863 l 447 886 l 526 1015 l 615 1015 l 500 863 z "},"ȏ":{"ha":826,"x_min":54,"x_max":772,"o":"m 413 -14 q 269 16 335 -14 q 155 98 203 46 q 81 217 107 150 q 54 360 54 285 q 81 505 54 438 q 156 624 107 572 q 270 706 204 676 q 414 736 336 736 q 557 706 492 736 q 671 624 622 676 q 746 505 719 572 q 772 360 772 438 q 746 217 772 285 q 672 98 719 150 q 558 16 624 46 q 413 -14 492 -14 m 150 358 q 185 212 150 278 q 281 108 221 146 q 413 69 340 69 q 544 108 485 69 q 640 215 604 147 q 676 361 676 282 q 640 508 676 442 q 544 614 604 575 q 413 653 485 653 q 281 613 340 653 q 186 506 222 572 q 150 358 150 440 m 413 965 q 358 938 382 965 q 335 874 335 910 l 276 874 q 316 973 276 932 q 413 1014 356 1014 q 509 973 469 1014 q 549 874 549 932 l 492 874 q 465 939 488 913 q 413 965 442 965 z "},"ō":{"ha":826,"x_min":54,"x_max":772,"o":"m 413 -14 q 269 16 335 -14 q 155 98 203 46 q 81 217 107 150 q 54 360 54 285 q 81 505 54 438 q 156 624 107 572 q 270 706 204 676 q 414 736 336 736 q 557 706 492 736 q 671 624 622 676 q 746 505 719 572 q 772 360 772 438 q 746 217 772 285 q 672 98 719 150 q 558 16 624 46 q 413 -14 492 -14 m 150 358 q 185 212 150 278 q 281 108 221 146 q 413 69 340 69 q 544 108 485 69 q 640 215 604 147 q 676 361 676 282 q 640 508 676 442 q 544 614 604 575 q 413 653 485 653 q 281 613 340 653 q 186 506 222 572 q 150 358 150 440 m 213 921 l 213 986 l 614 986 l 614 921 l 213 921 z "},"ṓ":{"ha":826,"x_min":54,"x_max":772,"o":"m 413 -14 q 269 16 335 -14 q 155 98 203 46 q 81 217 107 150 q 54 360 54 285 q 81 505 54 438 q 156 624 107 572 q 270 706 204 676 q 414 736 336 736 q 557 706 492 736 q 671 624 622 676 q 746 505 719 572 q 772 360 772 438 q 746 217 772 285 q 672 98 719 150 q 558 16 624 46 q 413 -14 492 -14 m 150 358 q 185 212 150 278 q 281 108 221 146 q 413 69 340 69 q 544 108 485 69 q 640 215 604 147 q 676 361 676 282 q 640 508 676 442 q 544 614 604 575 q 413 653 485 653 q 281 613 340 653 q 186 506 222 572 q 150 358 150 440 m 213 921 l 213 986 l 614 986 l 614 921 l 213 921 m 446 1124 l 383 1147 l 465 1276 l 565 1276 l 446 1124 z "},"ṑ":{"ha":826,"x_min":54,"x_max":772,"o":"m 413 -14 q 269 16 335 -14 q 155 98 203 46 q 81 217 107 150 q 54 360 54 285 q 81 505 54 438 q 156 624 107 572 q 270 706 204 676 q 414 736 336 736 q 557 706 492 736 q 671 624 622 676 q 746 505 719 572 q 772 360 772 438 q 746 217 772 285 q 672 98 719 150 q 558 16 624 46 q 413 -14 492 -14 m 150 358 q 185 212 150 278 q 281 108 221 146 q 413 69 340 69 q 544 108 485 69 q 640 215 604 147 q 676 361 676 282 q 640 508 676 442 q 544 614 604 575 q 413 653 485 653 q 281 613 340 653 q 186 506 222 572 q 150 358 150 440 m 213 921 l 213 986 l 614 986 l 614 921 l 213 921 m 285 1278 l 383 1278 l 467 1149 l 406 1125 l 285 1278 z "},"ǫ":{"ha":826,"x_min":54,"x_max":772,"o":"m 413 -14 q 269 16 335 -14 q 155 98 203 46 q 81 217 107 150 q 54 360 54 285 q 81 505 54 438 q 156 624 107 572 q 270 706 204 676 q 414 736 336 736 q 557 706 492 736 q 671 624 622 676 q 746 505 719 572 q 772 360 772 438 q 746 217 772 285 q 672 98 719 150 q 558 16 624 46 q 413 -14 492 -14 m 150 358 q 185 212 150 278 q 281 108 221 146 q 413 69 340 69 q 544 108 485 69 q 640 215 604 147 q 676 361 676 282 q 640 508 676 442 q 544 614 604 575 q 413 653 485 653 q 281 613 340 653 q 186 506 222 572 q 150 358 150 440 m 332 -146 q 363 -62 332 -103 q 457 22 394 -21 l 483 22 l 507 0 q 424 -74 450 -43 q 399 -133 399 -106 q 426 -172 399 -160 q 504 -190 453 -185 l 481 -253 q 388 -230 421 -246 q 344 -192 356 -214 q 332 -146 332 -169 z "},"ø":{"ha":826,"x_min":54,"x_max":772,"o":"m 413 -14 q 269 16 335 -14 q 155 98 203 46 q 81 217 107 150 q 54 360 54 285 q 81 504 54 436 q 156 624 107 572 q 270 706 204 676 q 413 736 336 736 q 557 706 492 736 q 671 624 622 676 q 746 504 719 572 q 772 360 772 436 q 746 217 772 285 q 672 98 719 150 q 558 16 624 46 q 413 -14 492 -14 m 413 69 q 544 108 485 69 q 640 215 604 147 q 676 361 676 282 q 640 508 676 442 q 544 614 604 575 q 413 653 485 653 q 281 613 340 653 q 186 507 222 574 q 150 358 150 440 q 185 212 150 278 q 281 108 221 146 q 413 69 340 69 m 114 -1 l 203 113 l 260 78 l 197 -1 l 114 -1 m 268 85 l 213 117 l 560 642 l 621 614 l 268 85 m 631 619 l 569 647 l 626 726 l 713 726 l 631 619 z "},"ǿ":{"ha":826,"x_min":54,"x_max":772,"o":"m 413 -14 q 269 16 335 -14 q 155 98 203 46 q 81 217 107 150 q 54 360 54 285 q 81 504 54 436 q 156 624 107 572 q 270 706 204 676 q 413 736 336 736 q 557 706 492 736 q 671 624 622 676 q 746 504 719 572 q 772 360 772 436 q 746 217 772 285 q 672 98 719 150 q 558 16 624 46 q 413 -14 492 -14 m 413 69 q 544 108 485 69 q 640 215 604 147 q 676 361 676 282 q 640 508 676 442 q 544 614 604 575 q 413 653 485 653 q 281 613 340 653 q 186 507 222 574 q 150 358 150 440 q 185 212 150 278 q 281 108 221 146 q 413 69 340 69 m 114 -1 l 203 113 l 260 78 l 197 -1 l 114 -1 m 268 85 l 213 117 l 560 642 l 621 614 l 268 85 m 631 619 l 569 647 l 626 726 l 713 726 l 631 619 m 374 861 l 311 885 l 393 1014 l 493 1014 l 374 861 z "},"õ":{"ha":826,"x_min":54,"x_max":772,"o":"m 413 -14 q 269 16 335 -14 q 155 98 203 46 q 81 217 107 150 q 54 360 54 285 q 81 505 54 438 q 156 624 107 572 q 270 706 204 676 q 414 736 336 736 q 557 706 492 736 q 671 624 622 676 q 746 505 719 572 q 772 360 772 438 q 746 217 772 285 q 672 98 719 150 q 558 16 624 46 q 413 -14 492 -14 m 150 358 q 185 212 150 278 q 281 108 221 146 q 413 69 340 69 q 544 108 485 69 q 640 215 604 147 q 676 361 676 282 q 640 508 676 442 q 544 614 604 575 q 413 653 485 653 q 281 613 340 653 q 186 506 222 572 q 150 358 150 440 m 497 886 q 426 900 456 886 q 374 928 397 914 q 319 942 350 942 q 274 927 289 942 q 255 896 260 913 q 250 875 250 879 l 192 875 q 197 903 192 882 q 215 947 201 924 q 253 987 229 969 q 318 1004 278 1004 q 384 990 357 1004 q 437 960 411 975 q 496 946 463 946 q 549 962 532 946 q 570 994 565 978 q 575 1014 575 1011 l 633 1014 q 628 987 633 1007 q 608 943 622 967 q 566 903 593 919 q 497 886 539 886 z "},"ṍ":{"ha":826,"x_min":54,"x_max":772,"o":"m 413 -14 q 269 16 335 -14 q 155 98 203 46 q 81 217 107 150 q 54 360 54 285 q 81 505 54 438 q 156 624 107 572 q 270 706 204 676 q 414 736 336 736 q 557 706 492 736 q 671 624 622 676 q 746 505 719 572 q 772 360 772 438 q 746 217 772 285 q 672 98 719 150 q 558 16 624 46 q 413 -14 492 -14 m 150 358 q 185 212 150 278 q 281 108 221 146 q 413 69 340 69 q 544 108 485 69 q 640 215 604 147 q 676 361 676 282 q 640 508 676 442 q 544 614 604 575 q 413 653 485 653 q 281 613 340 653 q 186 506 222 572 q 150 358 150 440 m 497 886 q 426 900 456 886 q 374 928 397 914 q 319 942 350 942 q 274 927 289 942 q 255 896 260 913 q 250 875 250 879 l 192 875 q 197 903 192 882 q 215 947 201 924 q 253 987 229 969 q 318 1004 278 1004 q 384 990 357 1004 q 437 960 411 975 q 496 946 463 946 q 549 962 532 946 q 570 994 565 978 q 575 1014 575 1011 l 633 1014 q 628 987 633 1007 q 608 943 622 967 q 566 903 593 919 q 497 886 539 886 m 446 1151 l 383 1175 l 465 1304 l 565 1304 l 446 1151 z "},"ṏ":{"ha":826,"x_min":54,"x_max":772,"o":"m 413 -14 q 269 16 335 -14 q 155 98 203 46 q 81 217 107 150 q 54 360 54 285 q 81 505 54 438 q 156 624 107 572 q 270 706 204 676 q 414 736 336 736 q 557 706 492 736 q 671 624 622 676 q 746 505 719 572 q 772 360 772 438 q 746 217 772 285 q 672 98 719 150 q 558 16 624 46 q 413 -14 492 -14 m 150 358 q 185 212 150 278 q 281 108 221 146 q 413 69 340 69 q 544 108 485 69 q 640 215 604 147 q 676 361 676 282 q 640 508 676 442 q 544 614 604 575 q 413 653 485 653 q 281 613 340 653 q 186 506 222 572 q 150 358 150 440 m 497 886 q 426 900 456 886 q 374 928 397 914 q 319 942 350 942 q 274 927 289 942 q 255 896 260 913 q 250 875 250 879 l 192 875 q 197 903 192 882 q 215 947 201 924 q 253 987 229 969 q 318 1004 278 1004 q 384 990 357 1004 q 437 960 411 975 q 496 946 463 946 q 549 962 532 946 q 570 994 565 978 q 575 1014 575 1011 l 633 1014 q 628 987 633 1007 q 608 943 622 967 q 566 903 593 919 q 497 886 539 886 m 269 1171 l 269 1301 l 350 1301 l 350 1171 l 269 1171 m 476 1171 l 476 1301 l 557 1301 l 557 1171 l 476 1171 z "}}}
